<svg width="50" height="50" viewBox="0 0 50 50" fill="none" xmlns="http://www.w3.org/2000/svg">
<path d="M37.5001 27.0792H27.0834V37.4958C27.0834 38.0484 26.8639 38.5783 26.4732 38.969C26.0825 39.3597 25.5526 39.5792 25.0001 39.5792C24.4475 39.5792 23.9176 39.3597 23.5269 38.969C23.1362 38.5783 22.9167 38.0484 22.9167 37.4958V27.0792H12.5001C11.9475 27.0792 11.4176 26.8597 11.0269 26.469C10.6362 26.0783 10.4167 25.5484 10.4167 24.9958C10.4167 24.4433 10.6362 23.9134 11.0269 23.5227C11.4176 23.132 11.9475 22.9125 12.5001 22.9125H22.9167V12.4958C22.9167 11.9433 23.1362 11.4134 23.5269 11.0227C23.9176 10.632 24.4475 10.4125 25.0001 10.4125C25.5526 10.4125 26.0825 10.632 26.4732 11.0227C26.8639 11.4134 27.0834 11.9433 27.0834 12.4958V22.9125H37.5001C38.0526 22.9125 38.5825 23.132 38.9732 23.5227C39.3639 23.9134 39.5834 24.4433 39.5834 24.9958C39.5834 25.5484 39.3639 26.0783 38.9732 26.469C38.5825 26.8597 38.0526 27.0792 37.5001 27.0792Z" fill="#F9FAFB"/>
</svg>
