<svg width="20" height="20" viewBox="0 0 20 20" fill="none" xmlns="http://www.w3.org/2000/svg">
<path d="M19 17.7344V8.17188C19 7.99722 18.9593 7.82497 18.8812 7.66876C18.8031 7.51255 18.6897 7.37667 18.55 7.27187L10.675 1.36562C10.4803 1.21957 10.2434 1.14063 10 1.14062C9.75658 1.14062 9.51973 1.21957 9.325 1.36562L1.45 7.27187C1.31028 7.37667 1.19688 7.51255 1.11877 7.66876C1.04066 7.82497 1 7.99722 1 8.17188V17.7344C1 18.0327 1.11853 18.3189 1.32951 18.5299C1.54048 18.7408 1.82663 18.8594 2.125 18.8594H6.625C6.92337 18.8594 7.20952 18.7408 7.42049 18.5299C7.63147 18.3189 7.75 18.0327 7.75 17.7344V14.3594C7.75 14.061 7.86853 13.7749 8.07951 13.5639C8.29048 13.3529 8.57663 13.2344 8.875 13.2344H11.125C11.4234 13.2344 11.7095 13.3529 11.9205 13.5639C12.1315 13.7749 12.25 14.061 12.25 14.3594V17.7344C12.25 18.0327 12.3685 18.3189 12.5795 18.5299C12.7905 18.7408 13.0766 18.8594 13.375 18.8594H17.875C18.1734 18.8594 18.4595 18.7408 18.6705 18.5299C18.8815 18.3189 19 18.0327 19 17.7344Z" fill="white" stroke="#F9FAFB" stroke-width="2" stroke-linecap="round" stroke-linejoin="round"/>
</svg>
