<svg width="200" height="151" viewBox="0 0 200 151" fill="none" xmlns="http://www.w3.org/2000/svg">
<g clip-path="url(#clip0_8_2971)">
<path d="M105.933 0H79.8719C78.2941 0 76.9204 1.07435 76.5381 2.60369L44.4253 131.209L46.7902 131.212L78.6401 3.66247C78.82 2.94105 79.467 2.43588 80.2109 2.43588H105.933C106.606 2.43588 107.151 1.89092 107.151 1.21794C107.149 0.544959 106.604 0 105.933 0Z" fill="#324D90"/>
<path d="M198.784 0.10553H172.681C171.103 0.10553 169.73 1.17988 169.347 2.70922L137.235 131.314L139.6 131.318L171.449 3.768C171.629 3.04658 172.276 2.54141 173.02 2.54141H198.786C199.459 2.54141 200.004 1.99645 200.004 1.32347C200 0.650489 199.455 0.10553 198.784 0.10553Z" fill="#324D90"/>
<path d="M76.8877 137.389C76.8358 132.423 74.9397 126.737 69.9537 124.986C67.6632 124.463 65.2411 124.832 62.9056 124.744C56.7207 123.841 52.3057 129.309 52.1829 137.389C52.3074 145.468 56.7207 150.935 62.9056 150.032C65.2411 149.945 67.6632 150.312 69.9537 149.789C74.9068 148.106 76.8669 142.25 76.8877 137.389Z" fill="#152E60"/>
<path d="M32.8152 131.901C31.6906 128.429 28.9503 124.749 24.9868 124.73C22.5094 124.742 19.9386 124.737 17.5096 124.732C12.7313 124.844 8.8906 130.583 8.96845 137.598C9.05149 144.516 12.9181 150.085 17.7103 150.047C20.1358 150.038 22.5613 150.037 24.9868 150.047C31.0471 149.772 33.7044 142.679 33.6715 137.389C33.6715 135.421 33.3636 133.56 32.8152 131.901Z" fill="#152E60"/>
<path d="M155.191 56.0495H92.7261V133.065H155.191V56.0495Z" fill="#F08F3C"/>
<path d="M133.331 56.0495H125.932V64.8311H133.331V56.0495Z" fill="#FDF1E6"/>
<path d="M103.08 56.0495H8.9668V133.065H103.08V56.0495Z" fill="#F3AC4A"/>
<path d="M61.5978 56.0495H50.4478V64.8311H61.5978V56.0495Z" fill="#FDF1E6"/>
<path d="M164.156 132.389H0V136.781H164.156V132.389Z" fill="#324D90"/>
<path d="M82.0778 132.389H0V136.781H82.0778V132.389Z" fill="#152E60"/>
<path d="M149.964 124.73C148.063 124.74 146.161 124.74 144.26 124.73C131.351 122.898 130.605 149.634 142.63 150.049C144.532 150.038 146.433 150.038 148.334 150.049C161.242 151.881 161.989 125.143 149.964 124.73Z" fill="#152E60"/>
<path d="M158.649 137.388C158.422 154.049 141.502 154.047 141.278 137.388C141.504 120.728 158.424 120.73 158.649 137.388Z" fill="#324D90"/>
<path d="M153.078 137.388C152.997 143.807 146.93 143.807 146.848 137.388C146.93 130.97 152.997 130.97 153.078 137.388Z" fill="#152E60"/>
<path d="M106.746 124.73C104.845 124.74 102.944 124.74 101.042 124.73C88.1329 122.898 87.3872 149.634 99.4127 150.049C101.314 150.038 103.215 150.038 105.117 150.049C118.026 151.881 118.772 125.143 106.746 124.73Z" fill="#152E60"/>
<path d="M115.433 137.388C115.208 154.049 98.2864 154.047 98.0615 137.388C98.2882 120.728 115.208 120.73 115.433 137.388Z" fill="#324D90"/>
<path d="M109.862 137.388C109.781 143.807 103.714 143.807 103.632 137.388C103.714 130.97 109.781 130.97 109.862 137.388Z" fill="#152E60"/>
</g>
<defs>
<clipPath id="clip0_8_2971">
<rect width="200" height="150.139" fill="white"/>
</clipPath>
</defs>
</svg>
