<svg width="20" height="20" viewBox="0 0 20 20" fill="none" xmlns="http://www.w3.org/2000/svg">
<path d="M8.44165 13.2017L7.78581 15.6517L6.17581 15.2208L6.83165 12.7708C5.85001 12.409 4.93764 11.8817 4.13415 11.2117L2.33998 13.0058L1.16165 11.8275L2.95581 10.0325C1.94254 8.81896 1.26172 7.36313 0.97998 5.8075L1.72998 5.67083C4.13777 7.40651 7.03181 8.33824 9.99998 8.33333C13.0866 8.33333 15.9433 7.34666 18.27 5.67083L19.02 5.80666C18.7386 7.3625 18.058 8.81862 17.045 10.0325L18.8391 11.8275L17.6608 13.0058L15.8658 11.2117C15.0624 11.882 14.15 12.4096 13.1683 12.7717L13.825 15.2208L12.215 15.6517L11.5583 13.2017C10.5269 13.3783 9.47303 13.3783 8.44165 13.2017Z" fill="#145D8A"/>
</svg>
