<svg width="834" height="433" viewBox="0 0 834 433" fill="none" xmlns="http://www.w3.org/2000/svg">
<g clip-path="url(#clip0_1_865)">
<path d="M822.317 404.522C822.202 404.908 822.084 405.294 821.966 405.683C820.946 408.97 819.823 412.308 818.593 415.696C818.424 416.167 818.248 416.642 818.072 417.113C816.578 421.146 814.927 425.253 813.113 429.432C813.113 429.435 813.113 429.435 813.11 429.438C813.09 429.485 813.07 429.539 813.047 429.587L43.6251 430.735C43.8065 427.353 -26.6491 318.08 47.0721 211.726C120.793 105.379 206.995 162.689 224.683 87.8565C228.504 71.6879 234.652 58.0564 242.546 46.7184C242.963 46.1111 243.389 45.51 243.824 44.9216C244.93 43.3968 246.07 41.9194 247.24 40.4832C247.565 40.0846 247.89 39.6892 248.219 39.2969C251.199 35.7538 254.367 32.4732 257.702 29.4489C258.373 28.8415 259.047 28.2405 259.735 27.6552H259.738C300.693 -7.54812 365.07 -6.04546 411.056 14.8905C472.13 42.6913 583.909 -5.63105 679.424 29.6799C681.008 30.262 682.586 30.8693 684.159 31.5052H684.162C687.47 32.8307 690.753 34.2606 694.013 35.8076C701.115 39.1672 707.32 42.9855 712.743 47.1866C713.515 47.7845 714.269 48.3919 715.009 49.0025H715.015C781.183 103.842 722.358 218.831 756.535 236.613C777.978 247.771 809.635 272.823 823.328 313.496C823.5 314.012 823.673 314.53 823.84 315.052C824.027 315.631 824.209 316.213 824.387 316.795C824.549 317.32 824.707 317.849 824.857 318.374C831.762 341.989 832.598 370.61 822.317 404.522Z" fill="#E4F3FC"/>
<g opacity="0.4">
<path d="M379.063 132.183H438.567V78.283H379.063V132.183Z" fill="#AFDBF6"/>
<path d="M408.815 132.183H468.319V78.283H408.815V132.183Z" fill="#CBD5E1"/>
<path d="M379.097 118.514H388.525L387.693 115.6L388.525 113.516H379.097V118.514Z" fill="#95CFF3"/>
<path d="M408.813 94.9649H418.241L417.412 92.0482L418.241 89.9666H408.813V94.9649Z" fill="#E4F3FC"/>
<path d="M408.813 89.9666H399.385L400.214 92.8802L399.385 94.9649H408.813V89.9666Z" fill="#95CFF3"/>
<path d="M468.32 119.093H458.891L459.721 122.006L458.891 124.091H468.32V119.093Z" fill="#E4F3FC"/>
<path d="M464.421 81.9377H447.298V89.2548H464.421V81.9377Z" fill="#F9FAFB"/>
<path d="M273.976 132.183H333.48V78.283H273.976V132.183Z" fill="#AFDBF6"/>
<path d="M303.728 132.183H363.232V78.283H303.728V132.183Z" fill="#CBD5E1"/>
<path d="M274.01 118.514H283.438L282.609 115.6L283.438 113.516H274.01V118.514Z" fill="#95CFF3"/>
<path d="M303.728 94.9649H313.157L312.327 92.0482L313.157 89.9666H303.728V94.9649Z" fill="#E4F3FC"/>
<path d="M303.728 89.9666H294.297L295.13 92.8802L294.297 94.9649H303.728V89.9666Z" fill="#95CFF3"/>
<path d="M363.235 119.093H353.804L354.636 122.006L353.804 124.091H363.235V119.093Z" fill="#E4F3FC"/>
<path d="M359.336 81.9377H342.213V89.2548H359.336V81.9377Z" fill="#F9FAFB"/>
<path d="M258.373 132.183H235.485V432.07H258.373V132.183Z" fill="#AFDBF6"/>
<path d="M505.434 132.183H486.41V432.07H505.434V132.183Z" fill="#AFDBF6"/>
<path d="M505.437 132.183H258.373V139.988H505.437V132.183Z" fill="#AFDBF6"/>
<path d="M505.437 274.322H258.373V282.127H505.437V274.322Z" fill="#AFDBF6"/>
<path d="M505.437 393.535H258.373V401.34H505.437V393.535Z" fill="#AFDBF6"/>
<path d="M383.184 274.323H444.703V218.598H383.184V274.323Z" fill="#A9C8ED"/>
<path d="M413.943 274.323H475.463V218.598H413.943V274.323Z" fill="#CBD5E1"/>
<path d="M383.218 260.188H392.966L392.108 257.176L392.966 255.022H383.218V260.188Z" fill="#95CFF3"/>
<path d="M413.942 235.842H423.69L422.831 232.827L423.69 230.676H413.942V235.842Z" fill="#E4F3FC"/>
<path d="M413.942 230.676H404.194L405.052 233.687L404.194 235.842H413.942V230.676Z" fill="#95CFF3"/>
<path d="M475.464 260.786H465.716L466.575 263.801L465.716 265.955H475.464V260.786Z" fill="#E4F3FC"/>
<path d="M471.436 222.375H453.731V229.942H471.436V222.375Z" fill="#F9FAFB"/>
<path d="M304.233 274.323H365.752V218.598H304.233V274.323Z" fill="#AFDBF6"/>
<path d="M334.992 274.323H396.512V218.598H334.992V274.323Z" fill="#CBD5E1"/>
<path d="M304.267 260.188H314.015L313.157 257.176L314.015 255.022H304.267V260.188Z" fill="#95CFF3"/>
<path d="M334.991 235.842H344.739L343.881 232.827L344.739 230.676H334.991V235.842Z" fill="#E4F3FC"/>
<path d="M334.991 230.676H325.243L326.101 233.687L325.243 235.842H334.991V230.676Z" fill="#95CFF3"/>
<path d="M396.514 260.786H386.766L387.624 263.801L386.766 265.955H396.514V260.786Z" fill="#E4F3FC"/>
<path d="M396.514 229.939H386.766L387.624 232.953L386.766 235.108H396.514V229.939Z" fill="#E4F3FC"/>
<path d="M370.06 256.022H341.205V268.353H370.06V256.022Z" fill="#F9FAFB"/>
<path d="M383.181 393.355H436.356V345.191H383.181V393.355Z" fill="#AFDBF6"/>
<path d="M409.766 393.355H462.94V345.191H409.766V393.355Z" fill="#CBD5E1"/>
<path d="M383.212 381.141H391.638L390.895 378.534L391.638 376.674H383.212V381.141Z" fill="#95CFF3"/>
<path d="M409.769 360.097H418.195L417.452 357.491L418.195 355.63H409.769V360.097Z" fill="#E4F3FC"/>
<path d="M409.769 355.63H401.343L402.086 358.234L401.343 360.097H409.769V355.63Z" fill="#95CFF3"/>
<path d="M462.943 381.656H454.517L455.26 384.263L454.517 386.123H462.943V381.656Z" fill="#E4F3FC"/>
<path d="M459.459 348.456H444.159V354.995H459.459V348.456Z" fill="#F9FAFB"/>
<path d="M282.195 393.354H343.715V337.629H282.195V393.354Z" fill="#AFDBF6"/>
<path d="M312.954 393.354H374.474V337.629H312.954V393.354Z" fill="#CBD5E1"/>
<path d="M282.228 379.224H291.979L291.118 376.209L291.979 374.055H282.228V379.224Z" fill="#145D8A"/>
<path d="M312.955 354.874H322.703L321.845 351.86L322.703 349.708H312.955V354.874Z" fill="#1A7CB8"/>
<path d="M312.955 349.708H303.204L304.065 352.72L303.204 354.874H312.955V349.708Z" fill="#145D8A"/>
<path d="M374.475 379.822H364.727L365.585 382.833L364.727 384.988H374.475V379.822Z" fill="#1A7CB8"/>
<path d="M370.449 341.407H352.744V348.974H370.449V341.407Z" fill="#F9FAFB"/>
<path d="M299.511 218.339H346.542V175.737H299.511V218.339Z" fill="#AFDBF6"/>
<path d="M323.027 218.339H370.059V175.737H323.027V218.339Z" fill="#CBD5E1"/>
<path d="M299.538 207.535H306.991L306.335 205.232L306.991 203.587H299.538V207.535Z" fill="#95CFF3"/>
<path d="M323.026 188.921H330.478L329.822 186.618L330.478 184.973H323.026V188.921Z" fill="#E4F3FC"/>
<path d="M323.026 184.973H315.573L316.229 187.276L315.573 188.921H323.026V184.973Z" fill="#95CFF3"/>
<path d="M370.06 207.993H362.608L363.264 210.296L362.608 211.945H370.06V207.993Z" fill="#E4F3FC"/>
<path d="M366.979 178.627H353.444V184.41H366.979V178.627Z" fill="#F9FAFB"/>
<path d="M383.543 218.339H430.575V175.737H383.543V218.339Z" fill="#AFDBF6"/>
<path d="M407.059 218.339H454.091V175.737H407.059V218.339Z" fill="#CBD5E1"/>
<path d="M383.569 207.535H391.022L390.365 205.232L391.022 203.587H383.569V207.535Z" fill="#95CFF3"/>
<path d="M407.056 188.921H414.509L413.852 186.618L414.509 184.973H407.056V188.921Z" fill="#E4F3FC"/>
<path d="M407.056 184.973H399.603L400.26 187.276L399.603 188.921H407.056V184.973Z" fill="#95CFF3"/>
<path d="M454.091 207.993H446.638L447.295 210.296L446.638 211.945H454.091V207.993Z" fill="#E4F3FC"/>
<path d="M451.01 178.627H437.475V184.41H451.01V178.627Z" fill="#F9FAFB"/>
</g>
<path d="M760.215 348.785L759.046 348.405C762.139 336.861 756.526 324.843 746.54 321.613L721.379 313.48C716.202 311.807 713.293 305.575 714.894 299.589C720.075 280.248 710.672 260.109 693.935 254.699L694.298 253.345C711.68 258.964 721.446 279.881 716.066 299.969C714.664 305.208 717.209 310.661 721.742 312.126L746.902 320.259C757.531 323.701 763.507 336.494 760.215 348.785Z" fill="#145D8A"/>
<path d="M757.673 358.272L756.503 357.892C759.596 346.349 753.984 334.331 743.997 331.101L718.836 322.967C713.659 321.294 710.75 315.062 712.351 309.08C717.532 289.738 708.13 269.599 691.393 264.187L691.755 262.833C709.138 268.451 718.903 289.368 713.523 309.456C712.121 314.695 714.667 320.149 719.199 321.613L744.36 329.747C754.992 333.189 760.964 345.982 757.673 358.272Z" fill="#145D8A"/>
<path d="M626.959 218.129H573.983V266.116H626.959V218.129Z" fill="#ED823A"/>
<path d="M600.471 218.129H547.495V266.116H600.471V218.129Z" fill="#FF8800"/>
<path d="M626.93 253.946H618.535L619.275 251.349L618.535 249.495H626.93V253.946Z" fill="#DD732C"/>
<path d="M600.471 232.979H592.076L592.816 230.385L592.076 228.531H600.471V232.979Z" fill="#FFAC4D"/>
<path d="M600.471 228.531H608.865L608.128 231.125L608.865 232.979H600.471V228.531Z" fill="#DD732C"/>
<path d="M547.495 254.462H555.89L555.15 257.056L555.89 258.91H547.495V254.462Z" fill="#FFAC4D"/>
<path d="M550.962 227.898H566.207V221.381H550.962V227.898Z" fill="#F9FAFB"/>
<path d="M628.862 87.6383C621.265 87.6383 613.3 86.3128 608.88 83.5131C601.847 79.0557 592.926 80.9443 592.837 80.9633L592.621 79.7802C593.001 79.6947 602.032 77.7745 609.43 82.466C616.721 87.0878 634.838 87.4991 643.039 84.4305C651.12 81.4094 661.847 78.1573 666.307 78.1573V79.3657C661.97 79.3657 651.39 82.583 643.393 85.5757C639.771 86.9297 634.414 87.6383 628.862 87.6383Z" fill="#145D8A"/>
<path d="M585.2 173.897H581.724V198.794H585.2V173.897Z" fill="#145D8A"/>
<path d="M592.079 173.897H588.603V198.794H592.079V173.897Z" fill="#145D8A"/>
<path d="M628.862 84.9556C621.265 84.9556 613.3 83.6301 608.88 80.8304C601.847 76.3731 592.926 78.2617 592.837 78.2807L592.621 77.0975C593.001 77.0121 602.032 75.095 609.43 79.7833C616.721 84.4052 634.838 84.8164 643.039 81.7478C651.12 78.7267 661.847 75.4746 666.307 75.4746V76.6831C661.97 76.6831 651.39 79.9004 643.393 82.893C639.771 84.2502 634.414 84.9556 628.862 84.9556Z" fill="#145D8A"/>
<path d="M702.028 230.489H700.585V229.281H702.028C708.709 229.281 714.145 223.308 714.145 215.969V78.1794C714.145 70.8401 708.709 64.8675 702.028 64.8675H691.332V63.659H702.028C709.316 63.659 715.245 70.1726 715.245 78.1763V215.965C715.245 223.975 709.316 230.489 702.028 230.489Z" fill="#145D8A"/>
<path d="M700.585 218.822V217.614C705.233 217.614 709.011 213.46 709.011 208.357V80.2737C709.011 75.3228 705.345 71.2957 700.838 71.2957H692.36V70.0872H700.838C705.95 70.0872 710.111 74.6553 710.111 80.2737V208.354C710.114 214.124 705.837 218.822 700.585 218.822Z" fill="#145D8A"/>
<path d="M601.424 179.424H571.408C567.138 179.424 563.676 175.621 563.676 170.93V97.268C563.676 92.5765 567.138 88.774 571.408 88.774H601.424C605.695 88.774 609.156 92.5765 609.156 97.268V170.93C609.156 175.621 605.695 179.424 601.424 179.424Z" fill="#95CFF3"/>
<path d="M576.143 106.018C578.328 106.018 580.1 104.072 580.1 101.672C580.1 99.271 578.328 97.3249 576.143 97.3249C573.958 97.3249 572.186 99.271 572.186 101.672C572.186 104.072 573.958 106.018 576.143 106.018Z" fill="#DDE7FE"/>
<path d="M572.186 163.663C572.186 161.262 573.957 159.317 576.143 159.317C578.328 159.317 580.1 161.262 580.1 163.663C580.1 166.064 578.328 168.01 576.143 168.01C573.957 168.01 572.186 166.064 572.186 163.663Z" fill="#DDE7FE"/>
<path d="M592.73 101.672C592.73 99.2704 594.501 97.3249 596.69 97.3249C598.878 97.3249 600.646 99.2704 600.646 101.672C600.646 104.073 598.875 106.018 596.69 106.018C594.504 106.018 592.73 104.073 592.73 101.672Z" fill="#DDE7FE"/>
<path d="M592.73 163.663C592.73 161.262 594.501 159.317 596.69 159.317C598.878 159.317 600.646 161.262 600.646 163.663C600.646 166.064 598.875 168.01 596.69 168.01C594.504 168.01 592.73 166.064 592.73 163.663Z" fill="#DDE7FE"/>
<path d="M603.307 203.071C603.307 203.966 603.126 204.836 602.789 205.662H571.705C571.368 204.833 571.187 203.966 571.187 203.071C571.187 197.415 578.38 192.824 587.247 192.824C596.114 192.824 603.307 197.411 603.307 203.071Z" fill="#FF8800"/>
<path d="M630.227 214.751V261.156C630.227 264.879 628.56 268.365 625.772 270.476L612.888 280.235C611.964 280.934 610.7 280.681 610.063 279.665C609.427 278.65 609.657 277.261 610.582 276.562L623.465 266.803C625.153 265.522 626.164 263.415 626.164 261.156V214.751C626.164 209.73 622.46 205.662 617.89 205.662H556.601C552.031 205.662 548.327 209.73 548.327 214.751V260.89C548.327 263.269 549.425 265.442 551.262 266.705L565.655 276.591C566.605 277.242 566.893 278.618 566.3 279.662C565.707 280.706 564.451 281.026 563.501 280.374L549.105 270.491C546.07 268.407 544.258 264.819 544.258 260.89V214.751C544.258 207.266 549.782 201.198 556.595 201.198H617.884C624.704 201.198 630.227 207.266 630.227 214.751Z" fill="#145D8A"/>
<path d="M669.639 60.8688H585.185V63.6622H669.639V60.8688Z" fill="#145D8A"/>
<path d="M669.639 68.6921H585.185V71.4855H669.639V68.6921Z" fill="#145D8A"/>
<path d="M597.366 88.774H572.183V69.3659C572.183 61.4794 578.003 55.0828 585.185 55.0828C592.364 55.0828 598.187 61.4762 598.187 69.3659V87.8724C598.187 88.369 597.821 88.774 597.366 88.774Z" fill="#FF8800"/>
<path d="M686.768 55.0828H673.933C667.894 55.0828 663.001 60.4607 663.001 67.0914V318.735C663.001 325.368 667.897 330.743 673.933 330.743H686.768C692.807 330.743 697.699 325.365 697.699 318.735V67.0914C697.702 60.4607 692.807 55.0828 686.768 55.0828Z" fill="#95CFF3"/>
<path d="M680.352 70.6914C681.467 70.6914 682.37 69.6986 682.37 68.4738C682.37 67.2491 681.467 66.2562 680.352 66.2562C679.237 66.2562 678.333 67.2491 678.333 68.4738C678.333 69.6986 679.237 70.6914 680.352 70.6914Z" fill="#145D8A"/>
<path d="M695.243 277.802H664.196C661.245 277.802 658.854 275.176 658.854 271.934V99.7924C658.854 96.5498 661.248 93.9241 664.196 93.9241H695.243C698.195 93.9241 700.585 96.553 700.585 99.7924V271.934C700.585 275.176 698.195 277.802 695.243 277.802Z" fill="#98B5F4"/>
<path d="M703.012 344.682H664.024C661.17 344.682 658.854 342.138 658.854 339.003V319.412C658.854 316.277 661.17 313.733 664.024 313.733H697.843C700.697 313.733 703.012 316.277 703.012 319.412V344.682Z" fill="#98B5F4"/>
<path d="M592.863 68.9108C592.959 64.249 589.597 60.3841 585.353 60.2783C581.11 60.1724 577.591 63.8657 577.495 68.5274C577.399 73.1892 580.761 77.0541 585.004 77.1599C589.248 77.2658 592.766 73.5725 592.863 68.9108Z" fill="#FF8800"/>
<path d="M585.185 77.398C580.817 77.398 577.26 73.4943 577.26 68.6921C577.26 63.8931 580.814 59.9862 585.185 59.9862C589.557 59.9862 593.11 63.8899 593.11 68.6921C593.11 73.4911 589.557 77.398 585.185 77.398ZM585.185 60.5082C581.079 60.5082 577.738 64.1778 577.738 68.6889C577.738 73.2001 581.079 76.8697 585.185 76.8697C589.292 76.8697 592.632 73.2001 592.632 68.6889C592.635 64.181 589.292 60.5082 585.185 60.5082Z" fill="#145D8A"/>
<path d="M589.777 69.9119C590.372 67.1421 588.811 64.3665 586.29 63.7124C583.768 63.0584 581.241 64.7736 580.646 67.5435C580.051 70.3133 581.612 73.0889 584.133 73.7429C586.655 74.3969 589.181 72.6818 589.777 69.9119Z" fill="#ED823A"/>
<path d="M767.626 343.218L797.695 328.208L786.428 300.971L756.36 315.981L767.626 343.218Z" fill="#AFDBF6"/>
<path d="M782.66 335.704L812.729 320.695L801.462 293.458L771.394 308.468L782.66 335.704Z" fill="#CBD5E1"/>
<path d="M774.87 316.938L779.636 314.559L778.608 313.297L778.591 312.034L773.828 314.413L774.87 316.938Z" fill="#1A7CB8"/>
<path d="M773.828 314.413L769.062 316.792L770.09 318.054L770.107 319.317L774.87 316.938L773.828 314.413Z" fill="#145D8A"/>
<path d="M809.986 314.119L805.22 316.498L806.251 317.76L806.265 319.022L811.031 316.644L809.986 314.119Z" fill="#1A7CB8"/>
<path d="M800.241 296.354L791.589 300.673L793.119 304.371L801.77 300.052L800.241 296.354Z" fill="#F9FAFB"/>
<path d="M822.317 404.522C822.202 404.908 822.084 405.294 821.966 405.683C820.946 408.97 819.823 412.308 818.593 415.696C818.423 416.167 818.248 416.642 818.072 417.113C816.578 421.146 814.927 425.253 813.113 429.432H772.682L770.366 405.683L770.254 404.522L770.165 403.611L764.411 344.678L764.368 344.223L767.409 342.733L782.484 335.33L797.563 327.931L812.638 320.535L823.84 315.04C824.027 315.619 824.209 316.201 824.387 316.783C824.549 317.308 824.707 317.836 824.857 318.361C831.762 341.989 832.598 370.61 822.317 404.522Z" fill="#145D8A"/>
<path d="M822.317 404.522C822.202 404.908 822.084 405.294 821.966 405.683H774.404L774.3 404.522L774.217 403.611L769.022 345.858L771.42 344.678L824.857 318.361C831.762 341.989 832.598 370.61 822.317 404.522Z" fill="#CAE7F9"/>
<path d="M774.407 405.683H367.422C352.088 405.683 339.659 392.03 339.659 375.184C339.659 358.338 352.091 344.685 367.422 344.685H774.41C789.744 344.685 802.173 358.342 802.173 375.184C802.17 392.026 789.741 405.683 774.407 405.683Z" fill="#95CFF3"/>
<path d="M802.17 375.181C802.17 383.605 799.063 391.229 794.038 396.75C789.016 402.267 782.073 405.683 774.407 405.683H705.397C703.917 405.683 702.719 404.367 702.719 402.741V347.624C702.719 345.998 703.917 344.682 705.397 344.682H774.407C789.741 344.682 802.17 358.338 802.17 375.181Z" fill="#C5D7FF"/>
<path d="M822.317 404.522C822.202 404.908 822.084 405.294 821.966 405.683C820.946 408.97 819.823 412.308 818.593 415.696C818.423 416.167 818.248 416.642 818.072 417.113C816.578 421.146 814.927 425.253 813.113 429.432C813.113 429.435 813.113 429.435 813.11 429.438L769.059 429.46L364.638 429.666V404.525H822.317V404.522Z" fill="#C5D7FF"/>
<path d="M486.669 371.888L483.539 370.29C483.28 370.154 483.11 369.872 483.104 369.559C483.096 369.158 483.07 368.749 483.029 368.345C482.957 367.588 482.834 366.851 482.658 366.143C482.574 365.814 482.684 365.463 482.932 365.257L485.8 362.856C486.105 362.603 486.186 362.128 485.975 361.764L484.21 358.702C484.011 358.354 483.605 358.234 483.271 358.411L480.291 360.018C480.003 360.183 479.649 360.113 479.418 359.847C478.445 358.734 477.31 357.794 476.063 357.067C475.761 356.889 475.605 356.5 475.686 356.137L476.17 353.982C476.259 353.574 476.058 353.15 475.692 352.998L472.613 351.777C472.55 351.749 472.487 351.733 472.42 351.73C472.115 351.695 471.81 351.879 471.68 352.198L470.589 354.767L470.327 355.396C469.714 355.371 469.089 355.396 468.464 355.472C467.62 355.574 466.802 355.757 466.025 356.016C465.728 356.114 465.405 356.007 465.218 355.732L463.462 353.191C463.22 352.843 462.779 352.758 462.445 352.992L460.314 354.469L459.704 354.897C459.37 355.127 459.246 355.602 459.421 355.988L460.642 358.727C460.786 359.044 460.735 359.427 460.507 359.667C459.845 360.41 459.249 361.227 458.745 362.1C458.693 362.173 458.655 362.245 458.615 362.318C458.604 362.347 458.586 362.369 458.569 362.391C458.388 362.66 458.079 362.777 457.783 362.695L454.595 361.837C454.56 361.828 454.523 361.825 454.488 361.815C454.151 361.78 453.826 362.002 453.705 362.359L452.591 365.731C452.458 366.136 452.625 366.589 452.985 366.775L456.254 368.439C456.533 368.575 456.7 368.889 456.683 369.224C456.654 369.961 456.674 370.711 456.749 371.47C456.789 371.875 456.844 372.27 456.913 372.663C456.968 372.979 456.853 373.305 456.619 373.498L453.861 375.81C453.558 376.06 453.478 376.532 453.685 376.889L455.436 379.917C455.649 380.28 456.075 380.42 456.435 380.227L458.794 378.955C459.113 378.784 459.488 378.873 459.712 379.167C460.591 380.331 461.627 381.337 462.785 382.153C463.064 382.34 463.197 382.707 463.116 383.055L462.411 386.209C462.318 386.633 462.531 387.066 462.9 387.218L465.958 388.439C466.324 388.585 466.736 388.395 466.894 388.009L466.958 387.86L468.222 384.874C468.357 384.554 468.651 384.368 468.973 384.39H468.976C469.745 384.444 470.529 384.431 471.32 384.336C471.744 384.289 472.156 384.213 472.567 384.121C472.852 384.054 473.143 384.175 473.319 384.428L475.104 387.006C475.349 387.36 475.801 387.449 476.138 387.215L478.88 385.301C478.958 385.244 479.021 385.174 479.076 385.102C479.245 384.855 479.283 384.516 479.159 384.228L478.177 382.042C478.059 381.777 478.082 381.457 478.229 381.214C478.269 381.15 478.318 381.093 478.37 381.04C479.726 379.793 480.838 378.268 481.647 376.544C481.783 376.25 482.068 376.082 482.361 376.101C482.405 376.105 482.448 376.111 482.491 376.127L485.068 376.82C485.446 376.921 485.826 376.699 485.964 376.298L485.99 376.218L487.081 372.935C487.208 372.527 487.032 372.077 486.669 371.888ZM476.524 372.976C476.207 373.947 475.413 375.137 474.598 375.912C474.408 376.089 474.217 376.247 474.039 376.37C473.192 376.952 472.325 377.338 471.47 377.55C466.577 378.743 462.01 374.232 462.86 368.503C462.946 367.93 463.084 367.342 463.283 366.75C463.666 365.614 464.737 364.143 465.665 363.498C465.763 363.428 465.863 363.362 465.961 363.296C472.063 359.363 478.94 365.551 476.524 372.976Z" fill="#98B5F4"/>
<path d="M507.864 386.693L505.612 385.544C505.425 385.446 505.307 385.241 505.298 385.016C505.293 384.725 505.272 384.437 505.244 384.14C505.189 383.596 505.103 383.067 504.976 382.561C504.918 382.321 504.996 382.068 505.172 381.922L507.236 380.195C507.461 380.015 507.513 379.67 507.366 379.41L506.096 377.209C505.952 376.959 505.664 376.873 505.419 376.997L503.277 378.158C503.069 378.272 502.816 378.224 502.652 378.034C501.949 377.237 501.134 376.56 500.236 376.035C500.02 375.908 499.908 375.63 499.968 375.367L500.316 373.814C500.38 373.52 500.233 373.213 499.974 373.106L497.759 372.226C497.713 372.204 497.667 372.194 497.621 372.191C497.399 372.166 497.18 372.299 497.088 372.527L496.308 374.377L496.118 374.827C495.674 374.814 495.228 374.83 494.776 374.883C494.171 374.956 493.581 375.089 493.022 375.276C492.812 375.345 492.576 375.269 492.443 375.07L491.179 373.245C491.003 372.995 490.687 372.932 490.448 373.099L488.916 374.165L488.481 374.475C488.242 374.643 488.152 374.982 488.276 375.26L489.155 377.228C489.258 377.455 489.221 377.731 489.06 377.905C488.579 378.439 488.152 379.028 487.79 379.654C487.755 379.708 487.726 379.758 487.695 379.812C487.689 379.828 487.674 379.847 487.663 379.866C487.533 380.056 487.309 380.141 487.098 380.081L484.803 379.467C484.777 379.458 484.749 379.455 484.726 379.448C484.487 379.423 484.248 379.584 484.164 379.841L483.361 382.264C483.266 382.558 483.386 382.881 483.646 383.017L485.996 384.209C486.194 384.311 486.315 384.535 486.307 384.776C486.284 385.304 486.301 385.845 486.356 386.392C486.384 386.68 486.422 386.968 486.474 387.25C486.511 387.477 486.433 387.711 486.263 387.851L484.282 389.515C484.06 389.695 484.006 390.037 484.153 390.293L485.414 392.469C485.564 392.732 485.872 392.83 486.128 392.691L487.827 391.777C488.055 391.653 488.322 391.716 488.487 391.928C489.114 392.764 489.863 393.488 490.695 394.073C490.894 394.209 490.989 394.472 490.931 394.725L490.427 396.993C490.361 397.3 490.514 397.61 490.782 397.718L492.982 398.597C493.244 398.705 493.538 398.569 493.653 398.293L493.699 398.186L494.609 396.038C494.704 395.81 494.92 395.674 495.15 395.69H495.153C495.703 395.731 496.265 395.721 496.838 395.652C497.14 395.617 497.437 395.56 497.736 395.5C497.941 395.452 498.154 395.535 498.281 395.718L499.565 397.575C499.741 397.828 500.063 397.892 500.308 397.721L502.283 396.345C502.338 396.307 502.384 396.253 502.422 396.202C502.545 396.025 502.571 395.778 502.482 395.573L501.774 394C501.69 393.807 501.705 393.577 501.811 393.403C501.84 393.358 501.872 393.311 501.912 393.279C502.888 392.384 503.686 391.286 504.27 390.043C504.368 389.831 504.573 389.714 504.786 389.727C504.815 389.727 504.846 389.733 504.878 389.739L506.733 390.239C507 390.312 507.277 390.154 507.375 389.863L507.395 389.809L508.178 387.446C508.25 387.151 508.126 386.826 507.864 386.693ZM500.567 387.474C500.339 388.173 499.764 389.031 499.179 389.584C499.044 389.714 498.908 389.828 498.776 389.913C498.165 390.334 497.546 390.612 496.93 390.764C493.411 391.621 490.125 388.376 490.736 384.254C490.796 383.846 490.897 383.422 491.038 382.995C491.314 382.178 492.083 381.119 492.751 380.654C492.823 380.606 492.895 380.556 492.967 380.508C497.359 377.686 502.306 382.134 500.567 387.474Z" fill="#CAE7F9"/>
<path d="M606.777 371.888L603.647 370.29C603.388 370.154 603.221 369.872 603.212 369.559C603.204 369.158 603.181 368.749 603.14 368.345C603.065 367.588 602.944 366.851 602.769 366.143C602.685 365.814 602.792 365.463 603.04 365.257L605.908 362.856C606.219 362.603 606.296 362.128 606.083 361.764L604.321 358.702C604.119 358.354 603.716 358.234 603.382 358.411L600.399 360.018C600.111 360.183 599.759 360.113 599.529 359.847C598.556 358.734 597.421 357.794 596.171 357.067C595.872 356.889 595.713 356.5 595.794 356.137L596.281 353.982C596.367 353.574 596.166 353.15 595.803 352.998L592.721 351.777C592.658 351.749 592.598 351.733 592.531 351.73C592.226 351.695 591.921 351.879 591.788 352.198L590.7 354.767L590.438 355.396C589.824 355.371 589.2 355.396 588.575 355.472C587.731 355.574 586.913 355.757 586.135 356.016C585.839 356.114 585.516 356.007 585.329 355.732L583.57 353.191C583.331 352.843 582.887 352.758 582.556 352.992L580.422 354.469L579.814 354.897C579.48 355.127 579.357 355.602 579.529 355.988L580.753 358.727C580.894 359.044 580.845 359.427 580.618 359.667C579.95 360.41 579.357 361.227 578.855 362.1C578.804 362.173 578.766 362.245 578.726 362.318C578.714 362.347 578.694 362.369 578.68 362.391C578.498 362.66 578.187 362.777 577.894 362.695L574.706 361.837C574.671 361.828 574.634 361.825 574.599 361.815C574.262 361.78 573.937 362.002 573.816 362.359L572.702 365.731C572.566 366.136 572.736 366.589 573.096 366.775L576.365 368.439C576.641 368.575 576.811 368.889 576.794 369.224C576.762 369.961 576.785 370.711 576.86 371.47C576.897 371.875 576.955 372.27 577.021 372.663C577.076 372.979 576.964 373.305 576.73 373.498L573.971 375.81C573.669 376.06 573.588 376.532 573.793 376.889L575.544 379.917C575.751 380.28 576.18 380.42 576.54 380.227L578.902 378.955C579.218 378.784 579.593 378.873 579.82 379.167C580.696 380.331 581.735 381.337 582.893 382.153C583.166 382.34 583.305 382.707 583.224 383.055L582.519 386.209C582.423 386.633 582.639 387.066 583.008 387.218L586.063 388.439C586.432 388.585 586.841 388.395 586.999 388.009L587.066 387.86L588.33 384.874C588.462 384.554 588.759 384.368 589.079 384.39H589.084C589.85 384.444 590.634 384.431 591.426 384.336C591.849 384.289 592.264 384.213 592.672 384.121C592.96 384.054 593.251 384.175 593.427 384.428L595.212 387.006C595.454 387.36 595.906 387.449 596.246 387.215L598.988 385.301C599.063 385.244 599.129 385.174 599.184 385.102C599.351 384.855 599.391 384.516 599.261 384.228L598.282 382.042C598.164 381.777 598.187 381.457 598.334 381.214C598.371 381.15 598.42 381.093 598.475 381.04C599.831 379.793 600.94 378.268 601.752 376.544C601.885 376.25 602.173 376.082 602.466 376.101C602.507 376.105 602.553 376.111 602.593 376.127L605.176 376.82C605.548 376.921 605.931 376.699 606.066 376.298L606.092 376.218L607.183 372.935C607.313 372.527 607.14 372.077 606.777 371.888ZM596.632 372.976C596.312 373.947 595.52 375.137 594.706 375.912C594.515 376.089 594.325 376.247 594.147 376.37C593.297 376.952 592.433 377.338 591.575 377.55C586.683 378.743 582.118 374.232 582.965 368.503C583.054 367.93 583.192 367.342 583.391 366.75C583.774 365.614 584.842 364.143 585.77 363.498C585.871 363.428 585.968 363.362 586.069 363.296C592.174 359.363 599.048 365.551 596.632 372.976Z" fill="#98B5F4"/>
<path d="M627.975 386.693L625.723 385.544C625.536 385.446 625.412 385.241 625.409 385.016C625.401 384.725 625.383 384.437 625.355 384.14C625.3 383.596 625.213 383.067 625.087 382.561C625.026 382.321 625.101 382.068 625.283 381.922L627.347 380.195C627.569 380.015 627.624 379.67 627.474 379.41L626.207 377.209C626.063 376.959 625.772 376.873 625.53 376.997L623.385 378.158C623.18 378.272 622.927 378.224 622.76 378.034C622.06 377.237 621.242 376.56 620.347 376.035C620.128 375.908 620.018 375.63 620.076 375.367L620.427 373.814C620.491 373.52 620.344 373.213 620.082 373.106L617.867 372.226C617.824 372.204 617.778 372.194 617.732 372.191C617.51 372.166 617.294 372.299 617.199 372.527L616.416 374.377L616.226 374.827C615.785 374.814 615.336 374.83 614.887 374.883C614.279 374.956 613.692 375.089 613.133 375.276C612.917 375.345 612.687 375.269 612.554 375.07L611.287 373.245C611.114 372.995 610.798 372.932 610.556 373.099L609.024 374.165L608.583 374.475C608.344 374.643 608.255 374.982 608.381 375.26L609.26 377.228C609.363 377.455 609.326 377.731 609.162 377.905C608.684 378.439 608.258 379.028 607.895 379.654C607.857 379.708 607.831 379.758 607.8 379.812C607.791 379.828 607.777 379.847 607.768 379.866C607.636 380.056 607.414 380.141 607.201 380.081L604.908 379.467C604.883 379.458 604.854 379.455 604.828 379.448C604.586 379.423 604.35 379.584 604.266 379.841L603.463 382.264C603.365 382.558 603.489 382.881 603.748 383.017L606.095 384.209C606.296 384.311 606.417 384.535 606.406 384.776C606.383 385.304 606.4 385.845 606.452 386.392C606.481 386.68 606.521 386.968 606.573 387.25C606.61 387.477 606.53 387.711 606.36 387.851L604.376 389.515C604.157 389.695 604.099 390.037 604.249 390.293L605.507 392.469C605.66 392.732 605.965 392.83 606.224 392.691L607.921 391.777C608.148 391.653 608.419 391.716 608.58 391.928C609.211 392.764 609.957 393.488 610.792 394.073C610.988 394.209 611.086 394.472 611.028 394.725L610.521 396.993C610.452 397.3 610.607 397.61 610.872 397.718L613.073 398.597C613.337 398.705 613.631 398.569 613.746 398.293L613.795 398.186L614.702 396.038C614.8 395.81 615.013 395.674 615.244 395.69H615.247C615.8 395.731 616.361 395.721 616.934 395.652C617.237 395.617 617.533 395.56 617.833 395.5C618.037 395.452 618.247 395.535 618.374 395.718L619.661 397.575C619.834 397.828 620.16 397.892 620.404 397.721L622.377 396.345C622.435 396.307 622.481 396.253 622.518 396.202C622.639 396.025 622.668 395.778 622.576 395.573L621.87 394C621.784 393.807 621.801 393.577 621.905 393.403C621.933 393.358 621.968 393.311 622.008 393.279C622.982 392.384 623.782 391.286 624.367 390.043C624.462 389.831 624.666 389.714 624.879 389.727C624.911 389.727 624.94 389.733 624.972 389.739L626.829 390.239C627.097 390.312 627.373 390.154 627.471 389.863L627.491 389.809L628.272 387.446C628.358 387.151 628.231 386.826 627.975 386.693ZM620.675 387.474C620.448 388.173 619.874 389.031 619.29 389.584C619.152 389.714 619.016 389.828 618.887 389.913C618.276 390.334 617.654 390.612 617.038 390.764C613.522 391.621 610.233 388.376 610.844 384.254C610.907 383.846 611.008 383.422 611.149 382.995C611.425 382.178 612.191 381.119 612.862 380.654C612.931 380.606 613.003 380.556 613.078 380.508C617.47 377.686 622.412 382.134 620.675 387.474Z" fill="#CAE7F9"/>
<path d="M539.406 368.727L536.005 368.069C535.723 368.009 535.492 367.785 535.415 367.484C535.311 367.095 535.19 366.709 535.058 366.329C534.807 365.621 534.522 364.944 534.185 364.308C534.027 364.011 534.05 363.644 534.243 363.375L536.457 360.246C536.693 359.914 536.659 359.433 536.371 359.142L533.949 356.678C533.672 356.399 533.258 356.396 532.976 356.659L530.467 359.053C530.231 359.291 529.874 359.322 529.589 359.129C528.388 358.332 527.075 357.74 525.693 357.389C525.362 357.304 525.12 356.969 525.114 356.595L525.079 354.378C525.071 353.954 524.777 353.599 524.391 353.558L521.128 353.242C521.062 353.236 520.999 353.236 520.932 353.248C520.63 353.305 520.38 353.568 520.325 353.916L519.873 356.703L519.766 357.383C519.17 357.532 518.568 357.734 517.981 357.981C517.192 358.316 516.443 358.727 515.749 359.196C515.484 359.373 515.15 359.36 514.905 359.148L512.61 357.187C512.296 356.921 511.85 356.959 511.582 357.282L509.866 359.313L509.376 359.895C509.108 360.214 509.097 360.705 509.356 361.031L511.176 363.337C511.392 363.599 511.426 363.982 511.265 364.279C510.796 365.184 510.413 366.14 510.128 367.13C510.096 367.212 510.076 367.294 510.053 367.376C510.05 367.408 510.038 367.433 510.027 367.459C509.915 367.769 509.638 367.968 509.336 367.971L506.053 368.041C506.018 368.038 505.981 368.044 505.946 368.05C505.612 368.114 505.35 368.417 505.313 368.797L505.022 372.368C504.987 372.799 505.255 373.188 505.647 373.264L509.192 373.953C509.491 374.007 509.725 374.263 509.788 374.589C509.929 375.311 510.125 376.029 510.375 376.744C510.508 377.123 510.655 377.49 510.81 377.851C510.937 378.142 510.905 378.49 510.724 378.743L508.593 381.751C508.36 382.08 508.394 382.555 508.676 382.846L511.075 385.279C511.363 385.573 511.804 385.586 512.109 385.301L514.093 383.406C514.361 383.153 514.744 383.131 515.032 383.349C516.149 384.232 517.39 384.909 518.698 385.374C519.009 385.478 519.225 385.794 519.228 386.155L519.285 389.404C519.291 389.837 519.599 390.195 519.994 390.236L523.233 390.559C523.622 390.597 523.973 390.299 524.04 389.882L524.069 389.717L524.593 386.478C524.647 386.13 524.889 385.864 525.206 385.798L525.209 385.794C525.963 385.633 526.715 385.402 527.461 385.086C527.858 384.918 528.241 384.731 528.619 384.526C528.878 384.38 529.186 384.415 529.419 384.608L531.749 386.601C532.066 386.876 532.523 386.835 532.794 386.509L535 383.887C535.063 383.811 535.107 383.722 535.141 383.64C535.248 383.355 535.204 383.01 535.014 382.767L533.557 380.932C533.379 380.707 533.327 380.391 533.413 380.116C533.439 380.043 533.471 379.974 533.511 379.907C534.528 378.325 535.251 376.538 535.631 374.64C535.691 374.317 535.927 374.074 536.215 374.01C536.256 374.001 536.302 373.998 536.345 373.994L539.003 373.941C539.389 373.934 539.705 373.609 539.743 373.185L539.749 373.102L540.037 369.619C540.074 369.195 539.803 368.806 539.406 368.727ZM529.854 372.634C529.77 373.659 529.278 375.032 528.676 376.013C528.532 376.237 528.385 376.443 528.241 376.614C527.559 377.417 526.813 378.034 526.033 378.477C521.583 381.008 516.118 377.93 515.599 372.157C515.553 371.578 515.547 370.97 515.602 370.341C515.706 369.139 516.397 367.414 517.149 366.529C517.226 366.431 517.307 366.342 517.388 366.247C522.372 360.73 530.459 364.776 529.854 372.634Z" fill="#98B5F4"/>
<path d="M822.317 404.522C822.202 404.908 822.084 405.294 821.966 405.683C820.946 408.97 819.823 412.308 818.593 415.696C818.424 416.167 818.248 416.642 818.072 417.113C816.578 421.146 814.927 425.253 813.113 429.432C813.113 429.435 813.113 429.435 813.11 429.438L769.059 429.46V404.525H822.317V404.522Z" fill="#CAE7F9"/>
<path d="M774.407 407.053H367.422C351.426 407.053 338.409 392.754 338.409 375.181C338.409 366.671 341.427 358.667 346.907 352.647C352.387 346.627 359.67 343.315 367.42 343.315H774.404C790.401 343.315 803.414 357.611 803.414 375.184C803.414 383.694 800.396 391.701 794.919 397.721C789.442 403.738 782.156 407.053 774.407 407.053ZM367.422 346.048C360.338 346.048 353.68 349.079 348.67 354.58C343.659 360.085 340.9 367.399 340.9 375.181C340.9 391.245 352.796 404.313 367.422 404.313H774.407C781.491 404.313 788.149 401.283 793.16 395.781C798.167 390.277 800.926 382.96 800.926 375.178C800.926 359.113 789.03 346.048 774.41 346.048H367.422Z" fill="#145D8A"/>
<path d="M142.452 218.496H115.495C114.256 218.496 113.246 217.383 113.246 216.025V187.443C113.246 186.083 114.259 184.973 115.495 184.973H142.452C143.69 184.973 144.701 186.086 144.701 187.443V216.025C144.704 217.386 143.69 218.496 142.452 218.496Z" fill="#C0D8FB"/>
<path d="M141.286 217.044H116.664C115.532 217.044 114.608 216.029 114.608 214.785V188.68C114.608 187.437 115.532 186.421 116.664 186.421H141.286C142.417 186.421 143.342 187.437 143.342 188.68V214.785C143.339 216.029 142.414 217.044 141.286 217.044Z" fill="#E4F3FC"/>
<path d="M128.975 190.199C129.334 190.199 129.626 189.879 129.626 189.484C129.626 189.089 129.334 188.769 128.975 188.769C128.615 188.769 128.324 189.089 128.324 189.484C128.324 189.879 128.615 190.199 128.975 190.199Z" fill="#AFDBF6"/>
<path d="M133.579 190.496C133.755 190.151 134.15 190.025 134.466 190.218C134.78 190.411 134.895 190.844 134.72 191.192C134.544 191.537 134.15 191.663 133.833 191.47C133.519 191.277 133.407 190.841 133.579 190.496Z" fill="#AFDBF6"/>
<path d="M138.086 194.428C138.389 194.213 138.792 194.308 138.988 194.64C139.183 194.972 139.097 195.415 138.795 195.63C138.492 195.846 138.089 195.751 137.893 195.418C137.697 195.083 137.784 194.64 138.086 194.428Z" fill="#AFDBF6"/>
<path d="M140.318 200.512C140.678 200.512 140.969 200.831 140.969 201.227C140.969 201.622 140.678 201.942 140.318 201.942C139.958 201.942 139.667 201.622 139.667 201.227C139.664 200.831 139.958 200.512 140.318 200.512Z" fill="#AFDBF6"/>
<path d="M139.178 207.573C139.431 207.851 139.431 208.307 139.178 208.585C138.924 208.863 138.509 208.863 138.256 208.585C138.003 208.307 138.003 207.851 138.256 207.573C138.509 207.294 138.924 207.294 139.178 207.573Z" fill="#AFDBF6"/>
<path d="M135.085 212.081C135.339 212.359 135.339 212.815 135.085 213.093C134.832 213.371 134.417 213.371 134.164 213.093C133.911 212.815 133.911 212.359 134.164 212.081C134.417 211.802 134.832 211.802 135.085 212.081Z" fill="#AFDBF6"/>
<path d="M128.324 214.403C128.324 214.007 128.615 213.688 128.975 213.688C129.335 213.688 129.626 214.007 129.626 214.403C129.626 214.798 129.335 215.118 128.975 215.118C128.615 215.121 128.324 214.798 128.324 214.403Z" fill="#AFDBF6"/>
<path d="M124.347 190.496C124.171 190.151 123.777 190.025 123.46 190.218C123.146 190.411 123.031 190.844 123.207 191.192C123.382 191.537 123.777 191.663 124.094 191.47C124.41 191.277 124.523 190.841 124.347 190.496Z" fill="#AFDBF6"/>
<path d="M119.843 194.428C119.541 194.213 119.138 194.308 118.942 194.64C118.746 194.972 118.832 195.415 119.135 195.63C119.437 195.846 119.84 195.751 120.036 195.418C120.232 195.083 120.145 194.64 119.843 194.428Z" fill="#AFDBF6"/>
<path d="M117.611 201.942C117.971 201.942 118.262 201.622 118.262 201.227C118.262 200.832 117.971 200.512 117.611 200.512C117.252 200.512 116.96 200.832 116.96 201.227C116.96 201.622 117.252 201.942 117.611 201.942Z" fill="#AFDBF6"/>
<path d="M118.752 207.573C118.498 207.851 118.498 208.307 118.752 208.585C119.005 208.863 119.42 208.863 119.673 208.585C119.927 208.307 119.927 207.851 119.673 207.573C119.417 207.294 119.005 207.294 118.752 207.573Z" fill="#AFDBF6"/>
<path d="M122.844 212.081C122.59 212.359 122.59 212.815 122.844 213.093C123.097 213.371 123.512 213.371 123.765 213.093C124.019 212.815 124.019 212.359 123.765 212.081C123.509 211.802 123.097 211.802 122.844 212.081Z" fill="#AFDBF6"/>
<path d="M129.45 201.942C129.809 201.942 130.101 201.622 130.101 201.227C130.101 200.832 129.809 200.512 129.45 200.512C129.09 200.512 128.799 200.832 128.799 201.227C128.799 201.622 129.09 201.942 129.45 201.942Z" fill="#AFDBF6"/>
<path d="M129.539 192.287H129.361V201.23H129.539V192.287Z" fill="#AFDBF6"/>
<path d="M133.522 197.272L129.207 200.993L129.536 201.453L133.851 197.732L133.522 197.272Z" fill="#AFDBF6"/>
<path d="M405.006 295.357H445.25V258.904H405.006V295.357Z" fill="#D8702A"/>
<path d="M425.127 295.357H465.371V258.904H425.127V295.357Z" fill="#FF8800"/>
<path d="M405.029 286.11H411.408L410.846 284.139L411.408 282.731H405.029V286.11Z" fill="#C15E1B"/>
<path d="M425.129 270.181H431.505L430.944 268.21L431.505 266.803H425.129V270.181Z" fill="#FFAC4D"/>
<path d="M425.129 266.803H418.751L419.312 268.774L418.751 270.181H425.129V266.803Z" fill="#C15E1B"/>
<path d="M465.374 286.502H458.995L459.557 288.473L458.995 289.88H465.374V286.502Z" fill="#FFAC4D"/>
<path d="M462.736 261.374H451.157V266.325H462.736V261.374Z" fill="#F9FAFB"/>
<path d="M446.388 293.803C447.364 293.107 449.578 291.576 449.676 291.94C449.748 292.202 449.616 292.639 449.342 293.088C450.667 292.607 452.003 292.313 455.11 293.107C455.732 293.265 456.288 293.683 456.611 294.287C456.91 294.847 457.005 295.534 456.187 296.046C454.552 297.071 455.038 296.435 452.761 297.932C450.483 299.428 447.75 299.716 446.163 298.533L443.998 298.042L443.865 294.091C443.868 294.091 445.118 293.983 446.388 293.803Z" fill="#FFC480"/>
<path d="M402.129 254.582C396.159 258.663 389.979 253.117 389.979 253.117C389.979 253.117 392.347 246.458 390.866 237.676C390.806 237.319 401.28 242.061 401.593 242.137C401.596 242.137 401.599 242.137 401.599 242.137C401.599 242.137 401.602 242.165 401.608 242.216C401.614 242.273 401.619 242.327 401.628 242.384C401.792 243.931 401.907 245.468 401.982 246.904C402.213 251.194 402.129 254.582 402.129 254.582Z" fill="#FFAC4D"/>
<path d="M401.982 246.904C397.228 246.433 393.57 243.504 392.358 241.852C391.989 241.356 401.317 242.112 401.593 242.137C401.596 242.137 401.599 242.137 401.599 242.137C401.599 242.137 401.602 242.165 401.608 242.216C401.614 242.257 401.619 242.314 401.628 242.384C401.792 243.931 401.907 245.468 401.982 246.904Z" fill="#ED975D"/>
<path d="M403.546 241.406C403.546 241.406 393.28 246.392 390.55 239.321C387.822 232.251 384.658 228.129 391.1 224.649C397.539 221.166 399.863 223.267 401.297 225.386C402.731 227.499 406.146 239.926 403.546 241.406Z" fill="#FFAC4D"/>
<path d="M391.261 241.254C391.131 241.387 388.954 242.643 382.941 233.966C381.997 232.602 380.975 229.448 382.086 226.244C383.198 223.039 388.491 219.61 393.041 217.655C395.177 216.737 397.21 216.914 398.768 217.364C400.686 217.914 401.815 220.125 401.271 222.22C400.41 225.529 398.276 227.563 395.575 227.471C393.763 227.411 393.879 231.47 393.913 232.438C393.948 233.406 393.884 234.228 391.606 233.826C389.654 233.482 390.754 236.313 391.411 237.588C391.733 238.217 391.915 238.929 391.874 239.65C391.846 240.21 391.693 240.808 391.261 241.254Z" fill="#145D8A"/>
<path d="M375.549 429.618H368.931C367.543 429.618 366.003 428.093 365.617 425.3C365.231 422.504 362.38 420.982 361.764 418.695C361.148 416.407 364.309 413.19 364.309 413.19L364.839 412.444L365.389 411.665L370.631 413.019C370.631 413.019 370.76 414.389 370.841 416.135C370.895 417.398 370.927 418.853 370.861 420.131C370.705 423.181 371.638 426.464 374.103 427.056C376.569 427.651 375.549 429.618 375.549 429.618Z" fill="#2C3A64"/>
<path d="M421.613 429.618H404.073C403.906 429.583 403.779 429.542 403.701 429.498C402.529 428.853 402.898 423.927 403.039 422.405C403.065 422.124 403.085 421.959 403.085 421.959C403.085 421.959 409.253 416.54 410.1 420.691C410.126 420.821 410.158 420.947 410.189 421.074V421.077C411.261 424.958 416.047 426.724 418.811 427.214C420.925 427.59 421.472 428.941 421.613 429.618Z" fill="#2C3A64"/>
<path d="M418.077 318.504C418.077 318.504 417.141 331.341 416.038 346.773C414.541 367.737 412.744 393.485 412.565 398.363C412.257 406.835 411.022 420.384 411.022 420.384C411.022 420.384 408.093 423.601 402.233 422.247C402.233 422.247 397.012 402.906 395.52 382.441C395.497 382.106 395.474 381.767 395.451 381.429C394.063 360.594 391.906 316.726 391.906 316.726L418.077 318.504Z" fill="#FF8800"/>
<path d="M415.477 316.726C413.003 316.89 386.915 315.805 386.91 314.204C386.887 308.637 385.827 299.627 384.505 288.681C384.263 286.641 384.073 284.616 383.932 282.617C383.566 277.407 383.552 272.393 383.903 267.859C384.56 259.441 386.553 254.035 389.873 250.868C389.873 250.868 392.997 251.15 395.877 251.627C399.137 252.165 400.341 251.941 402.581 251.254L406.564 255.022C408.945 257.461 410.855 260.008 411.624 263.532C411.621 263.532 415.698 316.71 415.477 316.726Z" fill="#145D8A"/>
<path d="M388.226 278.223C388.226 278.223 390.973 287.78 400.136 292.408C409.3 297.036 403.822 283.614 403.822 283.614L388.226 278.223Z" fill="#1B407A"/>
<path d="M411.621 263.532L404.496 265.351L394.691 294.524C393.282 298.713 390.037 301.301 385.971 301.301L385.956 301.997L386.44 315.9L418.04 319.054C418.04 319.054 418.189 301.655 417.622 296.081C416.784 287.83 411.621 263.532 411.621 263.532Z" fill="#FF8800"/>
<path d="M445.792 296.014C446.016 293.734 444.954 293.31 444.954 293.31C444.954 293.31 423.952 288.201 422.175 287.501C420.398 286.802 405.642 268.581 405.642 268.581C405.642 268.581 400.007 261.029 395.126 262.437C390.884 263.661 389.118 267.182 388.439 270.583C387.63 274.632 385.09 275.92 388.229 278.223C395.275 283.392 413.495 296.479 416.862 297.72C424.349 300.481 444.781 299.102 444.781 299.102C444.781 299.102 445.616 297.805 445.792 296.014Z" fill="#145D8A"/>
<path d="M397.11 256.901C395.451 255.209 389.87 250.871 389.87 250.871C389.87 250.871 390.095 250.46 390.423 250.099C390.745 249.745 391.131 249.489 391.131 249.489C391.843 249.324 397.34 253.867 399.172 255.658C401.377 257.815 407.494 264.585 407.494 264.585L404.493 265.351C404.496 265.351 399.065 258.894 397.11 256.901Z" fill="#ED823A"/>
<path d="M403.984 224.709C403.984 224.709 399.891 227.24 398.38 227.664C397.93 227.79 391.241 229.638 391.241 229.638L381.66 233.507C381.66 233.507 378.409 225.82 382.42 219.796V219.793C382.521 219.641 382.627 219.489 382.737 219.344C383.843 217.848 385.424 216.472 387.653 215.367C398.953 209.768 403.857 224.251 403.984 224.709Z" fill="#FF8800"/>
<path d="M398.475 227.411L396.649 228.053C394.84 226.218 388.229 219.923 382.348 219.958C382.374 219.894 382.397 219.844 382.42 219.8V219.796C382.498 219.645 382.567 219.565 382.674 219.341C382.694 219.341 382.714 219.344 382.734 219.347C390.348 219.822 396.931 225.766 398.475 227.411Z" fill="#FF8800"/>
<path d="M391.241 229.638C391.241 229.638 390.227 231.47 390.141 233.058C390.057 234.643 383.782 236.825 383.209 236.12C382.636 235.418 381.66 233.504 381.66 233.504L391.241 229.638Z" fill="#FF8800"/>
<path d="M391.241 229.638C391.241 229.638 403.117 227.544 408.015 223.349C408.39 223.029 408.208 222.371 407.736 222.34C406.886 222.283 405.464 222.311 403.166 222.672C403.166 222.669 399.56 227.37 391.241 229.638Z" fill="#FF8800"/>
<path d="M414.587 317.65C414.587 317.65 415.194 325.659 411.819 340.689C409.346 351.717 395.52 382.441 395.52 382.441C395.497 382.106 395.474 381.767 395.451 381.429C394.063 360.594 391.906 316.726 391.906 316.726L414.587 317.65Z" fill="#ED823A"/>
<path d="M414.587 317.65C414.587 317.65 396.917 366.522 385.815 388.373C374.714 410.223 371.244 416.319 371.244 416.319C371.244 416.319 364.883 413.522 364.307 411.618C364.307 411.618 368.551 369.436 375.987 359.151C380.188 353.34 385.121 335.903 385.355 329.807C385.585 323.708 386.204 309.102 386.204 309.102L414.587 317.65Z" fill="#FF8800"/>
<g opacity="0.5">
<path d="M679.424 29.6704C681.008 30.2525 682.586 30.8599 684.159 31.4957L674.016 31.4483H674.013L671.344 31.4388H671.341L640.182 31.2869L637.507 31.2775H637.504L606.343 31.1256L603.667 31.1161H603.664L572.503 30.9643L569.828 30.9548H569.825L538.663 30.8029L535.988 30.7934H535.985L504.823 30.6416L502.148 30.6321H502.145L470.986 30.4803L468.311 30.4708H468.308L437.144 30.3063L434.463 30.2936H434.46L403.301 30.1449L400.62 30.1323H400.617L369.458 29.9836L366.777 29.9709H366.775L335.622 29.8222L332.941 29.8096H332.938L301.779 29.6609L299.098 29.6483H299.095L267.936 29.4996L265.255 29.4869H265.252L257.693 29.4521C258.364 28.8447 259.038 28.2437 259.726 27.6584H259.729L265.356 27.6837H265.359L299.204 27.8387H299.213L333.044 28.0032H333.053L366.881 28.1677H366.89L400.721 28.3322H400.73L434.561 28.4967H434.569L468.4 28.6612H468.409L502.237 28.8257H502.246L536.077 28.9902H536.086L569.917 29.1548H569.925L603.757 29.3193H603.765L637.596 29.4838H637.605L671.436 29.6483L679.424 29.6704Z" fill="#AFDBF6"/>
<path d="M712.746 47.1772C713.518 47.7751 714.272 48.3824 715.012 48.993L242.546 46.7153C242.963 46.1079 243.389 45.5068 243.824 44.9184L253.595 44.9627L256.276 44.9754L287.438 45.1241L290.113 45.1367L321.275 45.2854H321.278L323.953 45.298L355.114 45.4467H355.117L357.793 45.4594L388.954 45.6081H388.957L391.632 45.6207H391.635L422.794 45.7694H422.797L425.475 45.7821H425.478L456.631 45.9307H456.634L459.309 45.9434H459.312L490.471 46.0921H490.474L493.149 46.1047H493.152L524.31 46.2534H524.313L526.989 46.2661H526.991L558.15 46.4148H558.153L560.828 46.4274H560.831L591.984 46.5761H591.987L594.662 46.5888H594.665L625.827 46.7406H625.83L628.502 46.7501H628.505L659.667 46.9019H659.669L662.342 46.9114H662.345L693.506 47.0633H693.509L696.182 47.0728H696.185L712.746 47.1772Z" fill="#AFDBF6"/>
<path d="M256.282 44.9817L255.504 46.3104L253.595 44.9627L247.24 40.4769C247.565 40.0783 247.89 39.6829 248.219 39.2906L256.273 44.9754L256.282 44.9817Z" fill="#AFDBF6"/>
<path d="M265.361 27.684L264.585 29.0121L289.338 46.4818L290.114 45.1537L265.361 27.684Z" fill="#AFDBF6"/>
<path d="M299.202 27.8491L298.425 29.1771L323.178 46.6468L323.954 45.3188L299.202 27.8491Z" fill="#AFDBF6"/>
<path d="M333.042 28.0142L332.265 29.3423L357.018 46.812L357.795 45.4839L333.042 28.0142Z" fill="#AFDBF6"/>
<path d="M366.88 28.1779L366.103 29.506L390.856 46.9757L391.633 45.6476L366.88 28.1779Z" fill="#AFDBF6"/>
<path d="M400.719 28.3424L399.943 29.6704L424.696 47.1402L425.472 45.8121L400.719 28.3424Z" fill="#AFDBF6"/>
<path d="M434.558 28.5064L433.781 29.8345L458.534 47.3042L459.311 45.9762L434.558 28.5064Z" fill="#AFDBF6"/>
<path d="M468.398 28.6716L467.621 29.9997L492.374 47.4694L493.151 46.1413L468.398 28.6716Z" fill="#AFDBF6"/>
<path d="M502.238 28.8364L501.461 30.1644L526.214 47.6342L526.991 46.3061L502.238 28.8364Z" fill="#AFDBF6"/>
<path d="M536.072 29.001L535.296 30.3291L560.049 47.7988L560.825 46.4708L536.072 29.001Z" fill="#AFDBF6"/>
<path d="M569.913 29.1663L569.136 30.4944L593.889 47.9641L594.666 46.636L569.913 29.1663Z" fill="#AFDBF6"/>
<path d="M603.751 29.3297L602.974 30.6578L627.727 48.1275L628.504 46.7994L603.751 29.3297Z" fill="#AFDBF6"/>
<path d="M637.588 29.4925L636.811 30.8206L661.564 48.2903L662.341 46.9623L637.588 29.4925Z" fill="#AFDBF6"/>
<path d="M671.431 29.6598L670.654 30.9879L695.407 48.4576L696.184 47.1295L671.431 29.6598Z" fill="#AFDBF6"/>
</g>
<path d="M475.761 343.3H530.076V294.102H475.761V343.3Z" fill="#8DB0FF"/>
<path d="M502.916 343.3H557.231V294.102H502.916V343.3Z" fill="#95CFF3"/>
<path d="M475.793 330.822H484.4L483.643 328.162L484.4 326.261H475.793V330.822Z" fill="#145D8A"/>
<path d="M502.92 309.326H511.524L510.767 306.666L511.524 304.765H502.92V309.326Z" fill="#1A7CB8"/>
<path d="M502.92 304.765H494.312L495.07 307.425L494.312 309.326H502.92V304.765Z" fill="#145D8A"/>
<path d="M557.234 331.351H548.627L549.384 334.011L548.627 335.912H557.234V331.351Z" fill="#1A7CB8"/>
<path d="M553.675 297.438H538.047V304.119H553.675V297.438Z" fill="#F9FAFB"/>
<path d="M652.896 262.541C652.896 262.541 650.322 278.631 647.505 295.435C644.447 313.705 641.101 332.822 640.47 333.062C639.258 333.521 639.356 330.614 638.524 328.396C637.855 326.612 635.82 311.338 636.488 301.81C636.649 299.485 637.193 270.82 640.813 267.435C644.43 264.05 652.896 262.541 652.896 262.541Z" fill="#FFAC4D"/>
<path d="M637.732 324.125C637.732 324.125 638.359 326.757 637.449 329.335C636.539 331.914 636.347 332.651 638.031 334.097C639.716 335.542 641.536 337.576 642.8 336.975C644.064 336.374 643.281 324.571 643.281 324.571L637.732 324.125Z" fill="#FFAC4D"/>
<path d="M641.231 429.618C642.794 428.571 641.904 420.754 641.904 420.754C641.904 420.754 634.624 414.354 633.622 419.255C632.62 424.155 626.705 426.353 623.339 426.955C621.015 427.369 620.295 428.783 620.07 429.618H641.231Z" fill="#145D8A"/>
<path d="M673.561 429.618C675.125 428.571 674.235 420.754 674.235 420.754C674.235 420.754 666.955 414.354 665.953 419.255C664.951 424.155 659.036 426.353 655.67 426.955C653.346 427.369 652.626 428.783 652.401 429.618H673.561Z" fill="#145D8A"/>
<path d="M663.445 338.902C660.853 350.93 657.59 364.665 656.315 372.41C656.165 373.308 656.044 374.124 655.955 374.846C655.865 375.57 655.805 376.203 655.779 376.728C655.102 391.232 644.666 424.392 642.8 425.167C639.912 426.363 635.365 423.82 632.983 422.988C631.998 422.64 631.33 421.548 631.552 420.438C636.721 394.339 639.906 356.984 640.597 334.732C640.945 323.524 641.409 315.552 641.409 315.552C641.409 315.552 666.863 308.093 667.016 317.529C667.073 321.186 665.464 329.525 663.445 338.902Z" fill="#FF9843"/>
<path d="M663.445 338.902C660.853 350.93 657.59 364.665 656.315 372.41C656.165 373.308 655.384 380.916 655.295 381.641L650.84 326.023L657.158 326.662L663.445 338.902Z" fill="#FF8800"/>
<path d="M653.423 320.766L662.405 423.839C662.405 423.839 669.052 426.208 675.059 424.383C675.059 424.383 678.549 368.028 678.221 354.254C677.892 340.48 681.049 317.393 677.501 314.847C673.953 312.303 653.423 320.766 653.423 320.766Z" fill="#FF9843"/>
<path d="M677.325 293.208C677.423 294.385 677.832 316.356 677.858 317.181C677.889 318.092 675.626 319.902 667.638 321.205C664.772 321.673 661.394 321.993 657.51 322.044C647.549 322.164 643.742 317.564 643.742 317.564C643.062 317.577 644.499 312.227 644.729 277.498C644.559 277.498 644.372 277.533 644.208 277.464C640.678 275.958 637.392 272.81 637.392 272.81C637.392 272.81 641.392 260.599 645.176 254.38C646.097 252.864 648.582 251.672 651.891 250.894C652.761 250.688 653.688 250.511 654.659 250.365C659.168 249.688 664.62 249.666 669.668 250.47C670.546 250.606 671.413 250.767 672.26 250.96C675.998 251.792 679.364 253.13 681.751 255.038C685.267 257.847 687.888 272.222 687.888 272.222C687.888 272.222 684.573 276.353 677.118 278.365C676.726 286.635 676.885 287.761 677.325 293.208Z" fill="#145D8A"/>
<path d="M641.409 315.552L644.45 273.943C644.626 271.548 646.495 269.735 648.68 269.843L669.394 270.735C671.099 270.808 672.476 272.298 672.565 274.17C672.818 279.637 673.769 290.251 677.328 293.212L679.206 323.334L656.055 346.358C656.055 346.358 653.426 329.484 649.809 324.796C647.785 322.167 641.409 315.552 641.409 315.552Z" fill="#FF9843"/>
<path d="M672.263 250.957L669.763 272.219L667.165 271.766L669.671 250.466C670.549 250.602 671.416 250.767 672.263 250.957Z" fill="#FF9843"/>
<path d="M654.662 250.362L651.454 269.438L651.186 271.039L650.898 270.966L648.614 270.403L651.894 250.89C652.761 250.688 653.691 250.511 654.662 250.362Z" fill="#FF9843"/>
<path d="M687.891 294.895C687.891 294.895 686.336 300.086 666.345 307.267C666.345 307.267 666.117 301.402 667.332 300.617C671.091 298.194 680.044 290.962 680.352 289.691C680.556 288.846 678.517 282.459 675.937 276.037C680.677 275.458 683.73 274.99 687.223 272.934C688.522 283.028 690.313 290.099 687.891 294.895Z" fill="#FFAC4D"/>
<path d="M664.067 300.899C664.067 300.899 662.399 299.497 661.118 299.289C659.837 299.08 657.68 298.185 658.028 299.017C658.379 299.849 660.741 301.161 660.741 301.161L664.067 300.899Z" fill="#FFAC4D"/>
<path d="M660.87 310.152L654.356 311.025C653.636 311.123 652.957 310.636 652.749 309.874L648.292 293.635C648.024 292.661 648.62 291.658 649.539 291.538L656.052 290.665C656.772 290.567 657.452 291.054 657.659 291.816L662.117 308.055C662.385 309.026 661.789 310.029 660.87 310.152Z" fill="#1E293B"/>
<path d="M658.564 310.462L652.05 311.335C651.33 311.43 650.65 310.946 650.443 310.181L645.985 293.942C645.717 292.968 646.313 291.965 647.232 291.845L653.746 290.972C654.466 290.877 655.145 291.361 655.353 292.126L659.811 308.365C660.075 309.336 659.482 310.339 658.564 310.462Z" fill="#192E4F"/>
<path d="M653.956 294.097C653.766 294.123 653.562 293.977 653.498 293.775L649.132 279.529C649.069 279.327 649.176 279.14 649.363 279.115C649.553 279.09 649.757 279.235 649.821 279.438L654.186 293.683C654.25 293.885 654.146 294.072 653.956 294.097Z" fill="#192E4F"/>
<path d="M667.332 300.617C667.332 300.617 666.172 301.405 665.348 301.168C664.666 300.972 664.067 300.899 663.281 300.31C662.451 299.69 660.614 300.51 660.07 300.908C658.549 302.022 653.423 301.978 653.423 303.088C653.423 304.202 655.655 307.327 658.356 308.254C661.057 309.181 666.348 307.264 666.348 307.264L667.332 300.617Z" fill="#FFAC4D"/>
<path d="M667.396 249.957C667.505 253.263 664.839 254.873 660.842 254.244C656.844 253.617 656.764 250.21 656.764 250.21L656.862 246.914L656.977 243.013L657.081 239.527L666.757 240.966C666.725 241.229 666.733 241.846 666.768 242.649V242.653C666.863 244.744 667.134 248.113 667.396 249.957Z" fill="#FFAC4D"/>
<path d="M666.774 242.649C666.774 242.649 666.774 242.649 666.771 242.653C666.679 242.795 664.47 246.107 656.865 246.911L656.98 243.01L666.774 242.649Z" fill="#ED975D"/>
<path d="M655.117 244.851C655.117 244.851 667.021 247.493 668.407 239.325C669.789 231.153 672.26 225.994 664.715 223.96C657.173 221.929 655.163 224.741 654.097 227.344C653.032 229.948 652.053 243.953 655.117 244.851Z" fill="#FFAC4D"/>
<path d="M667.857 241.14C667.857 241.14 671.998 242.165 672.389 233.887C672.539 230.698 673.262 219.508 664.974 219.891C656.686 220.274 652.908 225.598 652.153 226.531C646.495 233.545 660.263 228.325 662.094 229.954C663.926 231.584 662.181 234.266 664.277 235.228C666.371 236.186 668.029 236.186 667.681 238.296C667.33 240.403 667.857 241.14 667.857 241.14Z" fill="#1E293B"/>
<path d="M651.042 226.696C651.042 226.696 655.477 228.392 657.032 228.515C657.495 228.553 664.375 229.072 664.375 229.072L674.425 231.02C674.425 231.02 676.386 222.824 671.471 217.674L671.468 217.67C671.344 217.541 671.217 217.414 671.085 217.288C669.757 216.029 667.978 214.982 665.605 214.327C653.59 211.011 651.094 226.218 651.042 226.696Z" fill="#FF8800"/>
<path d="M656.899 228.284L658.797 228.562C660.283 226.405 665.777 218.926 671.569 217.816C671.534 217.759 671.502 217.712 671.471 217.674L671.468 217.67C671.367 217.538 671.286 217.471 671.142 217.272C671.122 217.278 671.105 217.281 671.082 217.288C663.678 219.236 658.155 226.364 656.899 228.284Z" fill="#FF8800"/>
<path d="M664.378 229.072C664.378 229.072 665.671 230.679 666.011 232.223C666.348 233.77 672.876 234.696 673.325 233.893C673.774 233.089 674.431 231.017 674.431 231.017L664.378 229.072Z" fill="#FF8800"/>
<path d="M664.378 229.072C664.378 229.072 652.352 229.318 646.858 226.139C646.44 225.896 646.509 225.212 646.97 225.089C647.796 224.867 649.202 224.621 651.523 224.526C651.52 224.526 655.822 228.452 664.378 229.072Z" fill="#FF8800"/>
<path d="M173.199 329.547H44.6848V432.234H173.199V329.547Z" fill="#95CFF3"/>
<path d="M189.475 213.216H171.952V429.618H201.665V322.885L189.475 268.052V213.216Z" fill="#95CFF3"/>
<path d="M286.62 213.216H189.475V268.052H286.62V213.216Z" fill="#CAE7F9"/>
<path d="M298.81 322.885H201.665V429.618H298.81V322.885Z" fill="#CAE7F9"/>
<path d="M298.813 322.885H201.665L189.475 268.052H286.62L298.813 322.885Z" fill="#C1D4F7"/>
<path d="M203.269 278.944H200.729L199.759 274.971H202.298L203.269 278.944Z" fill="#95CFF3"/>
<path d="M209.049 278.944H206.509L205.535 274.971H208.075L209.049 278.944Z" fill="#95CFF3"/>
<path d="M214.825 278.944H212.285L211.315 274.971H213.855L214.825 278.944Z" fill="#95CFF3"/>
<path d="M220.605 278.944H218.065L217.092 274.971H219.632L220.605 278.944Z" fill="#95CFF3"/>
<path d="M226.382 278.944H223.842L222.871 274.971H225.411L226.382 278.944Z" fill="#95CFF3"/>
<path d="M232.161 278.944H229.621L228.648 274.971H231.188L232.161 278.944Z" fill="#95CFF3"/>
<path d="M205.083 286.363H202.543L201.573 282.389H204.113L205.083 286.363Z" fill="#95CFF3"/>
<path d="M210.86 286.363H208.32L207.35 282.389H209.889L210.86 286.363Z" fill="#95CFF3"/>
<path d="M216.64 286.363H214.1L213.129 282.389H215.669L216.64 286.363Z" fill="#95CFF3"/>
<path d="M222.416 286.363H219.876L218.906 282.389H221.446L222.416 286.363Z" fill="#95CFF3"/>
<path d="M228.196 286.363H225.656L224.686 282.389H227.225L228.196 286.363Z" fill="#95CFF3"/>
<path d="M233.973 286.363H231.433L230.462 282.389H233.002L233.973 286.363Z" fill="#95CFF3"/>
<path d="M206.961 294.044H204.421L203.45 290.07H205.99L206.961 294.044Z" fill="#95CFF3"/>
<path d="M212.74 294.044H210.2L209.227 290.07H211.767L212.74 294.044Z" fill="#95CFF3"/>
<path d="M218.517 294.044H215.977L215.007 290.07H217.547L218.517 294.044Z" fill="#95CFF3"/>
<path d="M224.297 294.044H221.757L220.784 290.07H223.323L224.297 294.044Z" fill="#95CFF3"/>
<path d="M230.074 294.044H227.534L226.563 290.07H229.103L230.074 294.044Z" fill="#95CFF3"/>
<path d="M235.853 294.044H233.313L232.34 290.07H234.88L235.853 294.044Z" fill="#95CFF3"/>
<path d="M208.775 301.462H206.235L205.265 297.489H207.802L208.775 301.462Z" fill="#95CFF3"/>
<path d="M214.552 301.462H212.012L211.041 297.489H213.581L214.552 301.462Z" fill="#95CFF3"/>
<path d="M220.331 301.462H217.791L216.821 297.489H219.361L220.331 301.462Z" fill="#95CFF3"/>
<path d="M226.108 301.462H223.568L222.598 297.489H225.138L226.108 301.462Z" fill="#95CFF3"/>
<path d="M231.888 301.462H229.348L228.377 297.489H230.917L231.888 301.462Z" fill="#95CFF3"/>
<path d="M237.664 301.462H235.125L234.154 297.489H236.694L237.664 301.462Z" fill="#95CFF3"/>
<path d="M243.482 278.944H240.942L239.971 274.971H242.511L243.482 278.944Z" fill="#95CFF3"/>
<path d="M249.261 278.944H246.721L245.751 274.971H248.291L249.261 278.944Z" fill="#95CFF3"/>
<path d="M255.038 278.944H252.498L251.528 274.971H254.067L255.038 278.944Z" fill="#95CFF3"/>
<path d="M260.818 278.944H258.278L257.307 274.971H259.847L260.818 278.944Z" fill="#95CFF3"/>
<path d="M266.594 278.944H264.054L263.084 274.971H265.624L266.594 278.944Z" fill="#95CFF3"/>
<path d="M272.374 278.944H269.834L268.864 274.971H271.403L272.374 278.944Z" fill="#95CFF3"/>
<path d="M245.296 286.363H242.756L241.785 282.389H244.325L245.296 286.363Z" fill="#95CFF3"/>
<path d="M251.075 286.363H248.536L247.562 282.389H250.102L251.075 286.363Z" fill="#95CFF3"/>
<path d="M256.852 286.363H254.312L253.342 282.389H255.882L256.852 286.363Z" fill="#95CFF3"/>
<path d="M262.632 286.363H260.092L259.119 282.389H261.658L262.632 286.363Z" fill="#95CFF3"/>
<path d="M268.409 286.363H265.869L264.898 282.389H267.438L268.409 286.363Z" fill="#95CFF3"/>
<path d="M274.188 286.363H271.648L270.675 282.389H273.215L274.188 286.363Z" fill="#95CFF3"/>
<path d="M247.173 294.044H244.633L243.663 290.07H246.203L247.173 294.044Z" fill="#95CFF3"/>
<path d="M252.953 294.044H250.413L249.443 290.07H251.983L252.953 294.044Z" fill="#95CFF3"/>
<path d="M258.73 294.044H256.19L255.219 290.07H257.759L258.73 294.044Z" fill="#95CFF3"/>
<path d="M264.509 294.044H261.969L260.999 290.07H263.539L264.509 294.044Z" fill="#95CFF3"/>
<path d="M270.286 294.044H267.746L266.776 290.07H269.316L270.286 294.044Z" fill="#95CFF3"/>
<path d="M276.066 294.044H273.526L272.555 290.07H275.095L276.066 294.044Z" fill="#95CFF3"/>
<path d="M248.988 301.462H246.448L245.477 297.489H248.017L248.988 301.462Z" fill="#95CFF3"/>
<path d="M254.767 301.462H252.227L251.254 297.489H253.794L254.767 301.462Z" fill="#95CFF3"/>
<path d="M260.544 301.462H258.004L257.034 297.489H259.574L260.544 301.462Z" fill="#95CFF3"/>
<path d="M266.324 301.462H263.784L262.81 297.489H265.35L266.324 301.462Z" fill="#95CFF3"/>
<path d="M272.1 301.462H269.56L268.59 297.489H271.13L272.1 301.462Z" fill="#95CFF3"/>
<path d="M277.88 301.462H275.34L274.367 297.489H276.907L277.88 301.462Z" fill="#95CFF3"/>
<path d="M232.999 230.729H196.934V262.652H232.999V230.729Z" fill="#145D8A"/>
<path d="M233.04 230.729H230.462V262.652H233.04V230.729Z" fill="#699DEE"/>
<path d="M295.374 418.72H208.49V379.471H295.374V418.72ZM209.057 418.097H294.804V380.094H209.057V418.097Z" fill="#95CFF3"/>
<path d="M255.15 222.384C255.15 223.574 254.534 224.538 253.774 224.538C253.014 224.538 252.397 223.574 252.397 222.384C252.397 221.195 253.014 220.23 253.774 220.23C254.534 220.23 255.15 221.195 255.15 222.384Z" fill="#F9FAFB"/>
<path d="M261.589 222.384C261.589 223.574 260.973 224.538 260.213 224.538C259.453 224.538 258.836 223.574 258.836 222.384C258.836 221.195 259.453 220.23 260.213 220.23C260.973 220.23 261.589 221.195 261.589 222.384Z" fill="#FF8800"/>
<path d="M268.031 222.384C268.031 223.574 267.415 224.538 266.655 224.538C265.895 224.538 265.278 223.574 265.278 222.384C265.278 221.195 265.895 220.23 266.655 220.23C267.415 220.23 268.031 221.195 268.031 222.384Z" fill="#699DEE"/>
<path d="M274.47 222.384C274.47 223.574 273.854 224.538 273.094 224.538C272.334 224.538 271.717 223.574 271.717 222.384C271.717 221.195 272.334 220.23 273.094 220.23C273.854 220.23 274.47 221.195 274.47 222.384Z" fill="#F9FAFB"/>
<path d="M280.909 222.384C280.909 223.574 280.293 224.538 279.533 224.538C278.773 224.538 278.156 223.574 278.156 222.384C278.156 221.195 278.773 220.23 279.533 220.23C280.293 220.23 280.909 221.195 280.909 222.384Z" fill="#FF8800"/>
<path d="M281.195 256.803H252.668V230.416H281.192V256.803H281.195ZM253.235 256.18H280.624V231.039H253.235V256.18Z" fill="#95CFF3"/>
<path d="M211.22 234.14H206.817V235.035H211.22V234.14Z" fill="#E4F3FC"/>
<path d="M205.207 234.14H198.267V235.035H205.207V234.14Z" fill="#E4F3FC"/>
<path d="M208.766 236.525H198.267V237.42H208.766V236.525Z" fill="#E4F3FC"/>
<path d="M217.146 236.525H210.183V237.42H217.146V236.525Z" fill="#E4F3FC"/>
<path d="M219.776 234.14H212.173V235.035H219.776V234.14Z" fill="#E4F3FC"/>
<path d="M205.207 240.634H198.267V241.53H205.207V240.634Z" fill="#E4F3FC"/>
<path d="M208.766 243.02H198.267V243.915H208.766V243.02Z" fill="#E4F3FC"/>
<path d="M217.146 243.02H210.183V243.915H217.146V243.02Z" fill="#E4F3FC"/>
<path d="M211.22 240.634H206.817V241.53H211.22V240.634Z" fill="#E4F3FC"/>
<path d="M219.776 240.634H212.173V241.53H219.776V240.634Z" fill="#E4F3FC"/>
<path d="M205.207 247.787H198.267V248.682H205.207V247.787Z" fill="#E4F3FC"/>
<path d="M208.766 250.172H198.267V251.067H208.766V250.172Z" fill="#E4F3FC"/>
<path d="M217.146 250.172H210.183V251.067H217.146V250.172Z" fill="#E4F3FC"/>
<path d="M211.22 247.787H206.817V248.682H211.22V247.787Z" fill="#E4F3FC"/>
<path d="M219.776 247.787H212.173V248.682H219.776V247.787Z" fill="#E4F3FC"/>
<path d="M205.207 254.674H198.267V255.569H205.207V254.674Z" fill="#E4F3FC"/>
<path d="M208.766 257.059H198.267V257.954H208.766V257.059Z" fill="#E4F3FC"/>
<path d="M217.146 257.059H210.183V257.954H217.146V257.059Z" fill="#E4F3FC"/>
<path d="M211.22 254.674H206.817V255.569H211.22V254.674Z" fill="#E4F3FC"/>
<path d="M219.776 254.674H212.173V255.569H219.776V254.674Z" fill="#E4F3FC"/>
<path d="M201.668 329.547H41.2839V335.817H201.668V329.547Z" fill="#CAE7F9"/>
<path d="M78.1186 286.47L75.0401 326.688C75.0401 326.688 74.7176 329.127 76.3677 329.13C79.0833 329.136 89.8765 329.13 89.8765 329.13C89.8765 329.13 87.8348 328.624 87.8578 327.482C87.8866 326.137 91.4575 286.091 91.4575 286.091L78.1186 286.47Z" fill="#FF8800"/>
<path d="M90.7548 328.402C90.2221 328.402 79.9098 328.44 77.2662 328.402C76.1143 328.386 75.9127 327.276 75.904 326.558C75.8983 326.213 75.9386 325.96 75.9386 325.96L76.0192 324.916L76.2237 322.252L76.4051 319.899L76.6355 316.874L76.8313 314.322L79.0199 285.743L92.3589 285.363C92.3589 285.363 90.8556 302.123 89.793 314.322C89.6749 315.682 89.5626 316.985 89.4561 318.2C89.4215 318.589 89.3898 318.969 89.3582 319.339C89.2603 320.494 89.1681 321.553 89.0904 322.49C89.05 322.983 89.0097 323.442 88.9752 323.863C88.8398 325.508 88.7592 326.558 88.7592 326.757C88.7592 326.874 88.7678 326.982 88.7851 327.083C89.0011 328.361 90.5533 328.402 90.7548 328.402Z" fill="#EE9849"/>
<path d="M45.7244 264.585L53.2233 297.682L54.2513 302.212L57.7444 317.627H122.642L109.767 264.585H45.7244Z" fill="#FFBA00"/>
<path d="M45.7215 264.585L44.6848 264.965L56.3622 318.779L57.7444 317.627L45.7215 264.585Z" fill="#EE9849"/>
<path d="M56.3622 318.779H120.86L122.642 317.627H57.7444L56.3622 318.779Z" fill="#FF8800"/>
<path d="M79.0135 329.149H92.9774V328.421H79.0135V329.149Z" fill="#FFBA00"/>
<path d="M119.497 307.855L108.966 265.287H45.6179V264.585H109.767L120.263 307.76L119.497 307.855Z" fill="#FFBA00"/>
<path d="M89.4273 318.779L89.3553 319.336L76.2208 322.252L76.4022 319.899L76.4886 318.779H89.4273Z" fill="#FF8800"/>
<path opacity="0.4" d="M90.7548 328.402C90.2221 328.402 79.9098 328.44 77.2662 328.402C76.1143 328.386 75.9127 327.276 75.904 326.558L88.9752 323.856C88.8398 325.501 88.7592 326.552 88.7592 326.751C88.7592 326.868 88.7678 326.976 88.7851 327.077C89.0011 328.361 90.5533 328.402 90.7548 328.402Z" fill="#FF8800"/>
<path opacity="0.4" d="M86.2538 306.89L57.7444 317.627L54.2513 302.212L86.2538 306.89Z" fill="#FF8800"/>
<path d="M45.7215 264.585H109.767L120.157 307.216H55.0548L45.7215 264.585Z" fill="#95CFF3"/>
<path d="M117.136 305.369H57.1743L50.381 275.651L49.8626 273.37L49.4162 271.428L48.3767 266.869H107.475L108.621 271.428L109.107 273.37L109.68 275.651L117.136 305.369Z" fill="#8AA8ED"/>
<path d="M101.706 268.948L99.011 268.989L98.9506 268.732L101.646 268.688L101.706 268.948Z" fill="#FFF1CC"/>
<path d="M101.113 269.656L99.1752 269.688L99.1147 269.428L101.053 269.4L101.113 269.656Z" fill="#FFF1CC"/>
<path d="M103.339 269.621L101.401 269.653L101.341 269.394L103.279 269.365L103.339 269.621Z" fill="#FFF1CC"/>
<path d="M104.952 269.596L103.748 269.615L103.691 269.359L104.891 269.34L104.952 269.596Z" fill="#FFF1CC"/>
<path d="M103.872 268.913L102.208 268.938L102.147 268.682L103.812 268.656L103.872 268.913Z" fill="#FFF1CC"/>
<path d="M106.144 268.878L104.48 268.903L104.419 268.647L106.084 268.622L106.144 268.878Z" fill="#FFF1CC"/>
<path d="M108.9 302.724L106.202 302.765L106.144 302.509L108.84 302.468L108.9 302.724Z" fill="#FFF1CC"/>
<path d="M108.304 303.433L106.366 303.464L106.305 303.205L108.243 303.177L108.304 303.433Z" fill="#FFF1CC"/>
<path d="M110.533 303.398L108.592 303.43L108.534 303.173L110.472 303.142L110.533 303.398Z" fill="#FFF1CC"/>
<path d="M112.143 303.373L110.942 303.392L110.881 303.135L112.082 303.116L112.143 303.373Z" fill="#FFF1CC"/>
<path d="M111.063 302.689L109.398 302.718L109.341 302.458L111.002 302.433L111.063 302.689Z" fill="#FFF1CC"/>
<path d="M113.335 302.655L111.673 302.68L111.613 302.424L113.274 302.398L113.335 302.655Z" fill="#FFF1CC"/>
<path d="M59.5817 270.909L53.2607 270.893L53.134 270.311L59.455 270.327L59.5817 270.909Z" fill="#FFF1CC"/>
<path d="M58.1418 272.484L53.5976 272.475L53.4738 271.89L58.018 271.902L58.1418 272.484Z" fill="#FFF1CC"/>
<path d="M63.3628 272.5L58.8186 272.487L58.6948 271.905L63.239 271.918L63.3628 272.5Z" fill="#FFF1CC"/>
<path d="M67.141 272.51L64.3246 272.503L64.2008 271.918L67.0172 271.928L67.141 272.51Z" fill="#FFF1CC"/>
<path d="M64.6529 270.925L60.7538 270.912L60.6271 270.33L64.5291 270.339L64.6529 270.925Z" fill="#FFF1CC"/>
<path d="M69.9804 270.937L66.0813 270.928L65.9546 270.346L69.8537 270.355L69.9804 270.937Z" fill="#FFF1CC"/>
<path d="M59.6998 276.043L54.3608 276.031L54.2369 275.445L59.576 275.461L59.6998 276.043Z" fill="#FFF1CC"/>
<path d="M63.6508 276.053L60.6702 276.046L60.5435 275.464L63.5269 275.471L63.6508 276.053Z" fill="#FFF1CC"/>
<path d="M69.5773 276.068L65.0043 276.059L64.8804 275.474L69.4506 275.486L69.5773 276.068Z" fill="#FFF1CC"/>
<path d="M61.0101 277.578L54.689 277.562L54.5652 276.98L60.8862 276.995L61.0101 277.578Z" fill="#FFF1CC"/>
<path d="M59.5731 279.153L55.0288 279.143L54.9021 278.558L59.4464 278.571L59.5731 279.153Z" fill="#FFF1CC"/>
<path d="M64.794 279.169L60.2498 279.156L60.1231 278.574L64.6673 278.587L64.794 279.169Z" fill="#FFF1CC"/>
<path d="M68.5694 279.178L65.753 279.172L65.6292 278.587L68.4455 278.596L68.5694 279.178Z" fill="#FFF1CC"/>
<path d="M66.0813 277.593L62.1821 277.581L62.0583 276.999L65.9574 277.008L66.0813 277.593Z" fill="#FFF1CC"/>
<path d="M71.4088 277.606L67.5096 277.596L67.3829 277.014L71.2821 277.024L71.4088 277.606Z" fill="#FFF1CC"/>
<path d="M61.2635 283.345L55.9244 283.329L55.8006 282.747L61.1396 282.763L61.2635 283.345Z" fill="#145D8A"/>
<path d="M65.2145 283.354L62.2339 283.348L62.1072 282.762L65.0906 282.772L65.2145 283.354Z" fill="#145D8A"/>
<path d="M71.141 283.37L66.5679 283.357L66.4441 282.775L71.0143 282.788L71.141 283.37Z" fill="#145D8A"/>
<path d="M62.5738 284.879L56.2527 284.863L56.1289 284.281L62.4499 284.297L62.5738 284.879Z" fill="#145D8A"/>
<path d="M61.1368 286.454L56.5925 286.442L56.4658 285.86L61.0129 285.872L61.1368 286.454Z" fill="#145D8A"/>
<path d="M66.3577 286.47L61.8135 286.457L61.6868 285.875L66.231 285.885L66.3577 286.47Z" fill="#145D8A"/>
<path d="M70.1359 286.48L67.3167 286.473L67.1929 285.888L70.0092 285.898L70.1359 286.48Z" fill="#145D8A"/>
<path d="M67.645 284.891L63.7458 284.882L63.622 284.3L67.5211 284.309L67.645 284.891Z" fill="#145D8A"/>
<path d="M72.9725 284.907L69.0733 284.898L68.9495 284.312L72.8486 284.325L72.9725 284.907Z" fill="#145D8A"/>
<path d="M62.7609 290.33L57.4219 290.314L57.2952 289.732L62.6342 289.744L62.7609 290.33Z" fill="#FFF1CC"/>
<path d="M66.7119 290.339L63.7314 290.33L63.6047 289.747L66.5881 289.757L66.7119 290.339Z" fill="#FFF1CC"/>
<path d="M72.6355 290.355L68.0654 290.342L67.9387 289.76L72.5117 289.773L72.6355 290.355Z" fill="#FFF1CC"/>
<path d="M64.0712 291.864L57.7502 291.848L57.6264 291.263L63.9445 291.282L64.0712 291.864Z" fill="#FFF1CC"/>
<path d="M62.6342 293.439L58.09 293.427L57.9633 292.845L62.5075 292.857L62.6342 293.439Z" fill="#FFF1CC"/>
<path d="M67.8552 293.452L63.3081 293.442L63.1843 292.857L67.7285 292.87L67.8552 293.452Z" fill="#FFF1CC"/>
<path d="M71.6305 293.465L68.8141 293.455L68.6903 292.873L71.5067 292.879L71.6305 293.465Z" fill="#FFF1CC"/>
<path d="M69.1424 291.876L65.2433 291.867L65.1194 291.285L69.0186 291.294L69.1424 291.876Z" fill="#FFF1CC"/>
<path d="M74.4699 291.892L70.5708 291.88L70.4441 291.297L74.3432 291.31L74.4699 291.892Z" fill="#FFF1CC"/>
<path d="M64.2987 297.501L58.9597 297.485L58.833 296.903L64.172 296.919L64.2987 297.501Z" fill="#145D8A"/>
<path d="M68.2497 297.511L65.2663 297.504L65.1425 296.919L68.123 296.929L68.2497 297.511Z" fill="#145D8A"/>
<path d="M74.1733 297.526L69.6032 297.514L69.4765 296.932L74.0495 296.944L74.1733 297.526Z" fill="#145D8A"/>
<path d="M65.6061 299.036L59.288 299.02L59.1613 298.438L65.4823 298.453L65.6061 299.036Z" fill="#145D8A"/>
<path d="M64.1691 300.611L59.6249 300.601L59.5011 300.016L64.0453 300.029L64.1691 300.611Z" fill="#145D8A"/>
<path d="M69.3901 300.627L64.8459 300.614L64.722 300.032L69.2663 300.045L69.3901 300.627Z" fill="#145D8A"/>
<path d="M73.1683 300.636L70.3519 300.63L70.2252 300.045L73.0445 300.054L73.1683 300.636Z" fill="#145D8A"/>
<path d="M70.6802 299.051L66.781 299.039L66.6543 298.457L70.5535 298.466L70.6802 299.051Z" fill="#145D8A"/>
<path d="M76.0048 299.064L72.1057 299.054L71.9819 298.469L75.881 298.482L76.0048 299.064Z" fill="#145D8A"/>
<path d="M87.3078 271.396L80.9868 271.38L80.8629 270.798L87.184 270.814L87.3078 271.396Z" fill="#FFBA00"/>
<path d="M85.8708 272.972L81.3266 272.962L81.1999 272.377L85.7441 272.389L85.8708 272.972Z" fill="#FFBA00"/>
<path d="M91.0918 272.987L86.5476 272.975L86.4208 272.393L90.9651 272.405L91.0918 272.987Z" fill="#FFBA00"/>
<path d="M94.8671 272.997L92.0507 272.991L91.9269 272.405L94.7433 272.415L94.8671 272.997Z" fill="#FFBA00"/>
<path d="M92.379 271.412L88.4798 271.399L88.356 270.817L92.2552 270.827L92.379 271.412Z" fill="#FFBA00"/>
<path d="M97.7065 271.424L93.8074 271.415L93.6806 270.833L97.5798 270.842L97.7065 271.424Z" fill="#FFBA00"/>
<path d="M87.4259 276.53L82.0868 276.518L81.963 275.933L87.302 275.948L87.4259 276.53Z" fill="#FFBA00"/>
<path d="M91.3769 276.54L88.3963 276.534L88.2696 275.951L91.253 275.958L91.3769 276.54Z" fill="#FFBA00"/>
<path d="M97.3034 276.556L92.7303 276.546L92.6065 275.961L97.1767 275.974L97.3034 276.556Z" fill="#FFBA00"/>
<path d="M88.7361 278.065L82.4151 278.049L82.2913 277.467L88.6123 277.483L88.7361 278.065Z" fill="#FFBA00"/>
<path d="M87.2992 279.64L82.7549 279.631L82.6282 279.045L87.1753 279.058L87.2992 279.64Z" fill="#FFBA00"/>
<path d="M92.5201 279.656L87.9759 279.643L87.8492 279.061L92.3934 279.074L92.5201 279.656Z" fill="#FFBA00"/>
<path d="M96.2983 279.665L93.4791 279.659L93.3552 279.074L96.1716 279.083L96.2983 279.665Z" fill="#FFBA00"/>
<path d="M93.8074 278.08L89.9082 278.068L89.7844 277.486L93.6835 277.495L93.8074 278.08Z" fill="#FFBA00"/>
<path d="M99.1349 278.093L95.2357 278.084L95.1119 277.501L99.011 277.511L99.1349 278.093Z" fill="#FFBA00"/>
<path d="M88.9896 283.832L83.6505 283.816L83.5267 283.234L88.8657 283.25L88.9896 283.832Z" fill="#FFF1CC"/>
<path d="M92.9434 283.841L89.96 283.835L89.8362 283.25L92.8167 283.259L92.9434 283.841Z" fill="#FFF1CC"/>
<path d="M98.8671 283.857L94.294 283.844L94.1702 283.262L98.7432 283.275L98.8671 283.857Z" fill="#FFF1CC"/>
<path d="M90.2998 285.366L83.9788 285.35L83.855 284.768L90.176 284.784L90.2998 285.366Z" fill="#FFF1CC"/>
<path d="M88.8629 286.941L84.3186 286.929L84.1948 286.347L88.739 286.359L88.8629 286.941Z" fill="#FFF1CC"/>
<path d="M94.0838 286.957L89.5396 286.945L89.4158 286.363L93.96 286.372L94.0838 286.957Z" fill="#FFF1CC"/>
<path d="M97.862 286.967L95.0456 286.96L94.9189 286.375L97.7353 286.385L97.862 286.967Z" fill="#FFF1CC"/>
<path d="M95.3739 285.379L91.4719 285.369L91.3481 284.787L95.2472 284.797L95.3739 285.379Z" fill="#FFF1CC"/>
<path d="M100.699 285.394L96.7994 285.385L96.6756 284.8L100.575 284.812L100.699 285.394Z" fill="#FFF1CC"/>
<path d="M90.487 290.817L85.148 290.801L85.0242 290.219L90.3632 290.232L90.487 290.817Z" fill="#FFF1CC"/>
<path d="M94.438 290.826L91.4575 290.817L91.3308 290.235L94.3142 290.244L94.438 290.826Z" fill="#FFF1CC"/>
<path d="M100.365 290.842L95.7915 290.829L95.6677 290.247L100.238 290.26L100.365 290.842Z" fill="#FFF1CC"/>
<path d="M91.7973 292.351L85.4763 292.335L85.3525 291.75L91.6735 291.769L91.7973 292.351Z" fill="#FFF1CC"/>
<path d="M90.3603 293.926L85.8161 293.914L85.6894 293.332L90.2336 293.344L90.3603 293.926Z" fill="#FFF1CC"/>
<path d="M95.5813 293.939L91.0371 293.93L90.9103 293.344L95.4546 293.357L95.5813 293.939Z" fill="#FFF1CC"/>
<path d="M99.3566 293.952L96.5402 293.942L96.4164 293.36L99.2328 293.367L99.3566 293.952Z" fill="#FFF1CC"/>
<path d="M96.8685 292.364L92.9694 292.354L92.8455 291.772L96.7447 291.782L96.8685 292.364Z" fill="#FFF1CC"/>
<path d="M102.196 292.379L98.2969 292.367L98.1702 291.785L102.072 291.797L102.196 292.379Z" fill="#FFF1CC"/>
<path d="M92.0248 297.988L86.6858 297.973L86.5591 297.391L91.8981 297.406L92.0248 297.988Z" fill="#FFF1CC"/>
<path d="M95.9758 297.998L92.9924 297.992L92.8686 297.406L95.852 297.416L95.9758 297.998Z" fill="#FFF1CC"/>
<path d="M101.899 298.014L97.3293 298.001L97.2026 297.419L101.776 297.432L101.899 298.014Z" fill="#FFF1CC"/>
<path d="M93.3351 299.523L87.0141 299.507L86.8874 298.925L93.2084 298.941L93.3351 299.523Z" fill="#FFF1CC"/>
<path d="M91.8952 301.098L87.351 301.085L87.2272 300.503L91.7714 300.516L91.8952 301.098Z" fill="#FFF1CC"/>
<path d="M97.1162 301.114L92.572 301.101L92.4481 300.519L96.9923 300.529L97.1162 301.114Z" fill="#FFF1CC"/>
<path d="M100.894 301.123L98.078 301.117L97.9542 300.532L100.771 300.541L100.894 301.123Z" fill="#FFF1CC"/>
<path d="M98.4063 299.538L94.5071 299.526L94.3804 298.944L98.2825 298.953L98.4063 299.538Z" fill="#FFF1CC"/>
<path d="M103.734 299.551L99.8346 299.542L99.7079 298.956L103.607 298.969L103.734 299.551Z" fill="#FFF1CC"/>
<path d="M121.214 420.093C121.214 420.093 120.635 429.985 118.893 430.124C118.659 430.143 110.055 430.121 110.055 430.121L99.0686 430.026C99.0686 430.026 99.1464 427.119 102.357 426.512C105.571 425.904 110.95 423.44 112.903 418.78C114.965 413.877 121.214 420.093 121.214 420.093Z" fill="#0E2C4F"/>
<path d="M152.66 338.725C153.081 339.114 164.269 352.432 163.356 362.66C163.088 365.665 160.732 367.924 157.985 367.924H144.355C144.355 367.924 130.449 370.654 130.118 373.957C129.787 377.259 126.942 395.054 121.3 420.343C121.3 420.343 117.145 421.915 114.625 420.792C111.293 419.308 110.809 417.733 110.809 417.733C110.809 417.733 114.17 361.106 116.825 357.12C119.48 353.134 146.818 341.287 155.67 340.107C164.516 338.924 152.66 338.725 152.66 338.725Z" fill="#145D8A"/>
<path d="M73.6204 324.6C73.6204 324.6 65.7127 322.578 63.6911 324.6C61.6695 326.621 61.0245 329.551 61.0245 329.551H73.6204V324.6Z" fill="#FFAC4D"/>
<path d="M101.96 420.093C101.96 420.093 101.381 429.985 99.6388 430.124C99.4084 430.143 90.8009 430.121 90.8009 430.121L79.8147 430.026C79.8147 430.026 79.8925 427.119 83.1034 426.512C86.3143 425.904 91.6965 423.44 93.649 418.78C95.7109 413.877 101.96 420.093 101.96 420.093Z" fill="#145D8A"/>
<path d="M162.996 338.725C163.313 339.019 165.734 346.178 167.353 354.305C168.744 361.299 163.9 367.921 157.383 367.921H125.677C125.677 367.921 111.771 370.651 111.44 373.953C111.109 377.256 108.264 395.051 102.622 420.34C102.622 420.34 98.4524 421.542 95.1954 420.014C93.4647 419.201 92.0968 417.252 92.0968 417.252C92.0968 417.252 95.4891 361.103 98.1414 357.117C100.796 353.131 128.134 341.284 136.986 340.104C145.841 338.924 162.996 338.725 162.996 338.725Z" fill="#145D8A"/>
<path d="M145.424 288.096L140.52 293.265L132.165 293.268C132.157 292.531 132.183 289.453 132.214 286.663C132.217 286.499 132.22 286.334 132.22 286.173C132.226 285.553 132.235 284.955 132.24 284.411C132.258 282.873 132.272 281.76 132.272 281.76L134.42 280.146L139.192 276.559L141.772 274.62C141.775 274.667 141.985 277.201 142.017 277.571C142.587 284.142 145.424 288.096 145.424 288.096Z" fill="#FFAC4D"/>
<path d="M133.277 287.166C133.435 287.093 142.475 282.639 143.532 283.022C144.589 283.405 145.908 286.951 145.908 286.951L129.991 290.905C129.991 290.902 131.244 288.106 133.277 287.166Z" fill="#145D8A"/>
<path d="M172.372 316.922C170.65 305.255 163.379 296.524 160.269 293.253C158.181 289.801 145.908 286.951 145.908 286.951C145.908 286.951 135.742 289.475 129.991 290.905C129.991 290.905 121.021 291.975 115.961 301.168C112.834 306.853 103.872 319.854 97.9859 320.259C92.1026 320.664 73.6204 324.603 73.6204 324.603V329.598L101.796 330.446C102.141 330.455 102.481 330.427 102.821 330.357C105.246 329.854 115.639 327.586 120.808 324.631C121.634 339.253 122.608 361.578 127.255 365.124C132.171 368.873 166.748 369.376 170.411 363.659C172.286 360.733 169.988 343.413 167.117 326.713C170.685 324.843 173.095 321.813 172.372 316.922Z" fill="#145D8A"/>
<path d="M140.433 279.621L140.007 279.912C140.007 279.912 136.076 283.022 132.24 284.417C132.258 282.88 132.272 281.766 132.272 281.766L134.42 280.153L140.433 279.621Z" fill="#FFC480"/>
<path d="M129.343 281.848C129.343 281.848 142.198 283.519 143.022 274.708C143.846 265.898 146.06 260.182 137.887 258.742C129.715 257.303 127.803 260.485 126.878 263.351C125.951 266.217 126.02 281.184 129.343 281.848Z" fill="#FFAC4D"/>
<path d="M127.218 262.45C127.218 262.45 129.646 272.007 131.402 271.209C133.159 270.412 134.766 269.761 134.996 272.744C135.227 275.727 133.265 279.631 138.99 278.992C144.715 278.353 150.103 260.722 148.041 258.015C142.089 250.207 118.95 253.13 127.218 262.45Z" fill="#145D8A"/>
<path d="M118.115 369.816H181.697C184.113 369.816 186.068 367.664 186.068 365.013V361.891H118.115V369.816Z" fill="#77A4E5"/>
<path d="M110.495 369.816H158.599C160.384 369.816 161.832 368.224 161.832 366.263V365.44C161.832 363.479 160.384 361.888 158.599 361.888H110.495C108.71 361.888 107.261 363.479 107.261 365.44V366.263C107.261 368.224 108.71 369.816 110.495 369.816Z" fill="#F99746"/>
<path d="M150.541 427.148H154.642L155.794 369.816H149.527L150.541 427.148Z" fill="#145D8A"/>
<path d="M132.718 427.148H172.603V423.19L152.275 421.175L132.718 423.19V427.148Z" fill="#145D8A"/>
<path d="M175.344 429.246C176.718 427.949 176.874 425.674 175.693 424.164C174.513 422.655 172.442 422.483 171.068 423.78C169.694 425.077 169.538 427.352 170.718 428.862C171.899 430.371 173.97 430.543 175.344 429.246Z" fill="#145D8A"/>
<path d="M136.592 426.524C136.592 424.534 135.123 422.921 133.312 422.921C131.5 422.921 130.032 424.534 130.032 426.524C130.032 428.514 131.5 430.128 133.312 430.128C135.123 430.131 136.592 428.517 136.592 426.524Z" fill="#145D8A"/>
<path d="M134.147 373.577H171.174C173.066 373.577 174.598 371.894 174.598 369.816H130.723C130.723 371.891 132.255 373.577 134.147 373.577Z" fill="#145D8A"/>
<path d="M179.788 369.816C181.513 369.816 182.909 368.281 182.909 366.386V313.594C182.909 303.702 177.02 295.682 169.757 295.682H140.021C132.759 295.682 126.87 303.702 126.87 313.594V369.816H179.788Z" fill="#F99746"/>
<path d="M180.375 369.816C183.52 369.816 186.068 367.016 186.068 363.561V313.594C186.068 303.702 180.179 295.682 172.917 295.682H143.18C135.918 295.682 130.029 303.702 130.029 313.594V369.816H180.375Z" fill="#CC6A27"/>
<path d="M745.349 429.583H787.318V391.568H745.349V429.583Z" fill="#7F9EF4"/>
<path d="M766.334 429.583H808.303V391.568H766.334V429.583Z" fill="#95CFF3"/>
<path d="M745.373 419.944H752.023L751.438 417.888L752.023 416.417H745.373V419.944Z" fill="#5D86E2"/>
<path d="M766.332 403.333H772.984L772.397 401.277L772.984 399.809H766.332V403.333Z" fill="#7F9EF4"/>
<path d="M766.332 399.809H759.683L760.267 401.862L759.683 403.333H766.332V399.809Z" fill="#5D86E2"/>
<path d="M808.304 420.352H801.652L802.239 422.405L801.652 423.877H808.304V420.352Z" fill="#7F9EF4"/>
<path d="M805.554 394.146H793.476V399.309H805.554V394.146Z" fill="#F9FAFB"/>
<path d="M688.474 429.621H730.53V391.527H688.474V429.621Z" fill="#7F9EF4"/>
<path d="M709.5 429.621H751.556V391.527H709.5V429.621Z" fill="#CBD5E1"/>
<path d="M688.499 419.963H695.162L694.575 417.901L695.162 416.43H688.499V419.963Z" fill="#145D8A"/>
<path d="M709.5 403.317H716.164L715.58 401.258L716.164 399.787H709.5V403.317Z" fill="#1A7CB8"/>
<path d="M709.5 399.787H702.837L703.424 401.846L702.837 403.317H709.5V399.787Z" fill="#145D8A"/>
<path d="M751.556 420.371H744.892L745.48 422.431L744.892 423.902H751.556V420.371Z" fill="#1A7CB8"/>
<path d="M748.8 394.111H736.699V399.284H748.8V394.111Z" fill="#F9FAFB"/>
<path d="M710.267 391.566H749.696V355.851H710.267V391.566Z" fill="#ED823A"/>
<path d="M729.979 391.566H769.409V355.851H729.979V391.566Z" fill="#FF8800"/>
<path d="M710.287 382.508H716.536L715.986 380.578L716.536 379.195H710.287V382.508Z" fill="#DD732C"/>
<path d="M729.981 366.902H736.227L735.677 364.972L736.227 363.59H729.981V366.902Z" fill="#FFAC4D"/>
<path d="M729.981 363.59H723.732L724.282 365.523L723.732 366.902H729.981V363.59Z" fill="#DD732C"/>
<path d="M769.41 382.89H763.164L763.714 384.823L763.164 386.202H769.41V382.89Z" fill="#FFAC4D"/>
<path d="M766.827 358.272H755.481V363.122H766.827V358.272Z" fill="#F9FAFB"/>
<path d="M237.604 240.751H235.853V242.678H237.604V240.751Z" fill="#95CFF3"/>
<path d="M242.154 240.751H240.403V242.678H242.154V240.751Z" fill="#95CFF3"/>
<path d="M246.707 240.751H244.953V242.678H246.707V240.751Z" fill="#95CFF3"/>
<path d="M237.604 245.038H235.853V246.964H237.604V245.038Z" fill="#95CFF3"/>
<path d="M242.154 245.038H240.403V246.964H242.154V245.038Z" fill="#95CFF3"/>
<path d="M246.707 245.038H244.953V246.964H246.707V245.038Z" fill="#95CFF3"/>
<path d="M237.604 249.789H235.853V251.713H237.604V249.789Z" fill="#95CFF3"/>
<path d="M242.154 249.789H240.403V251.713H242.154V249.789Z" fill="#95CFF3"/>
<path d="M246.707 249.789H244.953V251.713H246.707V249.789Z" fill="#95CFF3"/>
<path d="M254.108 293.49L256.944 293.028C257.258 292.977 257.394 292.623 257.261 292.19L254.499 282.949C254.332 282.396 253.817 281.95 253.417 282.013L250.58 282.475C250.266 282.525 250.131 282.88 250.263 283.313L253.028 292.554C253.192 293.107 253.708 293.556 254.108 293.49Z" fill="#1E293B"/>
<path d="M255.113 293.325L257.949 292.864C258.263 292.813 258.399 292.459 258.266 292.025L255.504 282.785C255.337 282.231 254.822 281.785 254.422 281.848L251.582 282.31C251.268 282.361 251.133 282.715 251.266 283.148L254.03 292.389C254.197 292.946 254.713 293.392 255.113 293.325Z" fill="#192E4F"/>
<path d="M252.374 283.999C252.458 283.987 252.498 283.879 252.466 283.762L250.223 275.591C250.191 275.474 250.096 275.392 250.016 275.404C249.932 275.417 249.892 275.524 249.924 275.642L252.167 283.813C252.199 283.927 252.291 284.012 252.374 283.999Z" fill="#192E4F"/>
<path d="M251.625 252.981C251.625 252.981 249.575 249.15 247.951 247.733C246.324 246.313 242.03 245.917 241.863 246.281C241.348 247.404 243.565 249.027 244.026 250.058C244.487 251.09 244.288 252.576 246.474 253.791C248.731 255.047 250.039 255.87 250.039 255.87L251.625 252.981Z" fill="#FFAC4D"/>
<path d="M249.892 252.459C250.946 250.659 251.26 250.564 251.26 250.564C251.26 250.564 268.685 258.198 270.347 258.837C272.008 259.473 296.869 261.08 296.869 261.08L304.371 279.194C304.371 279.194 271.242 270.893 267.058 269.188C260.144 266.369 249.051 255.326 249.051 255.326C249.051 255.326 249.065 253.874 249.892 252.459Z" fill="#1E293B"/>
<path d="M293.18 421.836C293.18 421.836 292.8 428.555 291.665 430.134H274.188C274.298 429.463 274.793 427.809 276.979 427.391C279.74 426.863 284.362 424.731 286.035 420.723C287.795 416.506 293.18 421.836 293.18 421.836Z" fill="#145D8A"/>
<path d="M324.195 420.9C324.195 420.9 325.283 429.628 323.789 429.78C323.59 429.799 317.142 429.795 314.617 429.78C311.475 429.761 306.456 429.802 306.456 429.802C305.808 429.83 305.381 429.058 305.713 428.445C306.075 427.771 306.767 427.049 308.088 426.771C310.841 426.189 315.429 423.968 317.036 419.928C318.726 415.674 324.195 420.9 324.195 420.9Z" fill="#145D8A"/>
<path d="M284.961 332.417C284.961 332.417 289.356 349.31 301.952 378.645C314.548 407.98 315.518 421.349 315.518 421.349L324.195 420.9C324.195 420.9 323.38 385.984 317.43 371.179C311.481 356.374 310.268 315.865 310.268 315.865L284.961 332.417Z" fill="#ED823A"/>
<path d="M277.906 317.88C277.906 317.88 277.557 344.039 281.676 376.155C285.796 408.271 284.4 421.906 284.4 421.906L294.266 422.266C294.266 422.266 300.163 390.138 298.473 374.061C296.783 357.984 306.548 318.899 306.548 318.899L277.906 317.88Z" fill="#FF8800"/>
<path d="M297.376 256.667L292.722 260.454L285.995 258.897C286.087 258.223 286.534 255.43 286.937 252.902C286.96 252.754 286.986 252.605 287.009 252.459C287.354 250.308 287.654 248.458 287.654 248.458L293.935 245.019L296.276 243.738C296.27 243.782 296.094 246.126 296.068 246.468C295.634 252.542 297.376 256.667 297.376 256.667Z" fill="#FFAC4D"/>
<path d="M286.467 254.756C286.614 254.687 295.616 251.77 296.595 252.124C297.574 252.478 298.153 254.557 298.153 254.557L284.256 258.907C284.253 258.907 284.587 255.626 286.467 254.756Z" fill="#145D8A"/>
<path d="M310.706 321.11C309.183 328.757 277.37 304.765 277.794 300.098C277.84 299.586 277.886 299.07 277.935 298.558C278.522 292.06 279.084 285.705 279.124 281.554C279.156 277.954 279.605 274.275 280.21 270.931C280.763 267.844 281.442 265.044 282.033 262.861C282.447 261.324 283.225 259.97 284.256 258.907C284.987 258.151 285.845 257.546 286.793 257.132C287.049 257.012 287.314 256.914 287.582 256.828C291.415 255.607 296.713 254.095 298.153 254.557C302.047 255.816 304.938 263.342 306.985 272.94C310.816 290.905 311.702 316.128 310.706 321.11Z" fill="#145D8A"/>
<path d="M295.602 246.572C294.222 249.473 289.082 251.979 286.937 252.902C286.96 252.754 286.986 252.605 287.009 252.459C287.354 250.308 287.654 248.458 287.654 248.458L293.935 245.019C295.325 244.994 296.172 245.38 295.602 246.572Z" fill="#FFAC4D"/>
<path d="M284.601 248.053C284.601 248.053 295.936 251.937 298.027 244.146C300.12 236.354 302.991 231.609 295.844 228.8C288.696 225.99 286.485 228.505 285.212 230.919C283.939 233.336 281.707 246.841 284.601 248.053Z" fill="#FFAC4D"/>
<path d="M285.658 230.169C285.658 230.169 286.381 239.236 288.089 238.841C289.796 238.448 291.343 238.154 291.092 240.887C290.842 243.621 288.475 246.775 293.736 247.259C298.994 247.743 306.556 232.839 305.111 230.021C300.944 221.884 279.634 220.239 285.658 230.169Z" fill="#145D8A"/>
<path d="M278.755 317.88C281.906 319.13 278.701 314.442 278.755 313.464C279 309.165 277.465 303.73 277.935 298.555L297.177 285.92C297.177 285.92 301.741 317.681 278.755 317.88Z" fill="#1E293B"/>
<path d="M310.706 321.11C302.493 337.836 301.183 344.22 301.183 344.22C294.032 343.324 281.782 327.883 277.897 323.765C277.897 323.765 277.37 304.765 277.794 300.098L283.732 299.912C283.732 299.912 294.464 302.901 297.249 298.846C300.031 294.79 298.827 274.882 298.827 274.882L306.985 272.943C310.816 290.905 312.912 316.621 310.706 321.11Z" fill="#FF8800"/>
<path d="M263.841 289.118C263.841 289.118 261.494 288.615 260.884 288.065C259.98 287.248 259.271 285.885 258.831 285.733C258.088 285.48 256.268 282.965 256.115 282.788C256.054 282.718 255.565 282.981 255.683 283.395C255.804 283.813 256.075 284.711 256.173 285.037C256.605 286.467 256.581 286.907 255.026 286.353C254.825 286.28 251.231 285.028 250.862 285.923C250.494 286.818 251.983 291.13 253.857 292.06C255.732 292.99 260.363 292.149 260.697 292.256C263.53 293.158 263.841 289.118 263.841 289.118Z" fill="#FFAC4D"/>
<path d="M261.932 288.277C261.932 288.277 281.016 291.842 282.706 290.937C285.405 289.494 281.658 268.223 281.658 268.223C281.658 268.223 281.497 263.402 286.623 262.266C291.078 261.279 295.374 264.943 295.374 264.943C295.374 264.943 299.282 268.783 298.784 273.044C297.678 282.49 295.956 301.702 290.205 304.648C282.787 308.447 261.324 294.116 261.324 294.116C261.324 294.116 260.61 293.155 260.711 291.37C260.8 289.792 261.932 288.277 261.932 288.277Z" fill="#145D8A"/>
<path d="M300.408 274.503L298.827 274.879C298.827 274.879 295.484 258.986 284.253 258.907C284.984 258.151 285.842 257.546 286.79 257.132C290.908 258.344 298.053 262.206 300.408 274.503Z" fill="#FF8800"/>
<path d="M245.356 250.912C245.356 250.912 242.263 248.828 242.117 249.723C242.045 250.169 243.421 251.387 243.974 251.909C244.527 252.431 245.938 253.453 245.938 253.453L245.356 250.912Z" fill="#FFAC4D"/>
<path d="M832.885 433H1.11446C0.501074 433 0 432.45 0 431.776V430.843C0 430.169 0.501074 429.618 1.11446 429.618H832.885C833.499 429.618 834 430.169 834 430.843V431.776C834 432.45 833.499 433 832.885 433Z" fill="#2E3552"/>
</g>
<defs>
<clipPath id="clip0_1_865">
<rect width="834" height="433" fill="white"/>
</clipPath>
</defs>
</svg>
