<svg width="40" height="40" viewBox="0 0 40 40" fill="none" xmlns="http://www.w3.org/2000/svg">
<path fill-rule="evenodd" clip-rule="evenodd" d="M20 5C28.9067 5 36.6667 11.0717 36.6667 19.1667C36.6667 23.2617 34.44 26.8 31.335 29.65C28.2234 32.5083 24.07 34.8333 19.785 36.5483C19.355 36.7216 18.8751 36.7248 18.4428 36.5574C18.0104 36.39 17.6579 36.0644 17.4567 35.6467C17.2834 35.2817 17.24 34.8917 17.2284 34.4967L17.2217 33.605C17.2182 33.507 17.2115 33.4092 17.2017 33.3117C17.145 32.73 16.9917 32.3617 16.38 32.2533C9.24671 31.01 3.33337 26.2333 3.33337 19.1667C3.33337 11.0717 11.0934 5 20 5ZM23.3334 15C22.8913 15 22.4674 15.1756 22.1549 15.4882C21.8423 15.8007 21.6667 16.2246 21.6667 16.6667V17.0633L20.4467 15.6C20.2274 15.337 19.9325 15.148 19.6019 15.0586C19.2714 14.9692 18.9214 14.9837 18.5994 15.1003C18.2775 15.2168 17.9992 15.4297 17.8025 15.71C17.6058 15.9902 17.5002 16.3243 17.5 16.6667V21.6667C17.5 22.1087 17.6756 22.5326 17.9882 22.8452C18.3008 23.1577 18.7247 23.3333 19.1667 23.3333C19.6087 23.3333 20.0327 23.1577 20.3452 22.8452C20.6578 22.5326 20.8334 22.1087 20.8334 21.6667V21.27L22.0534 22.7333C22.2727 22.9963 22.5676 23.1853 22.8981 23.2748C23.2287 23.3642 23.5787 23.3496 23.9007 23.2331C24.2226 23.1165 24.5009 22.9036 24.6976 22.6234C24.8943 22.3431 24.9999 22.0091 25 21.6667V16.6667C25 16.2246 24.8244 15.8007 24.5119 15.4882C24.1993 15.1756 23.7754 15 23.3334 15ZM10 15C9.55801 15 9.13409 15.1756 8.82153 15.4882C8.50897 15.8007 8.33337 16.2246 8.33337 16.6667V21.6667C8.33337 22.1087 8.50897 22.5326 8.82153 22.8452C9.13409 23.1577 9.55801 23.3333 10 23.3333H11.6667C12.1087 23.3333 12.5327 23.1577 12.8452 22.8452C13.1578 22.5326 13.3334 22.1087 13.3334 21.6667C13.3334 21.2246 13.1578 20.8007 12.8452 20.4882C12.5327 20.1756 12.1087 20 11.6667 20V16.6667C11.6667 16.2246 11.4911 15.8007 11.1786 15.4882C10.866 15.1756 10.4421 15 10 15ZM15 15C14.5918 15.0001 14.1978 15.1499 13.8928 15.4212C13.5877 15.6925 13.3928 16.0662 13.345 16.4717L13.3334 16.6667V21.6667C13.3338 22.0915 13.4965 22.5001 13.7881 22.8089C14.0797 23.1178 14.4783 23.3037 14.9024 23.3286C15.3264 23.3535 15.744 23.2155 16.0698 22.9429C16.3955 22.6702 16.6049 22.2835 16.655 21.8617L16.6667 21.6667V16.6667C16.6667 16.2246 16.4911 15.8007 16.1786 15.4882C15.866 15.1756 15.4421 15 15 15ZM30 15H27.5C27.0918 15.0001 26.6978 15.1499 26.3928 15.4212C26.0877 15.6925 25.8928 16.0662 25.845 16.4717L25.8334 16.6667V21.6667C25.8334 22.0749 25.9833 22.4689 26.2546 22.774C26.5258 23.079 26.8996 23.2739 27.305 23.3217L27.5 23.3333H30C30.4248 23.3329 30.8334 23.1702 31.1423 22.8786C31.4512 22.587 31.6371 22.1884 31.662 21.7643C31.6869 21.3403 31.5489 20.9227 31.2763 20.5969C31.0036 20.2712 30.6169 20.0618 30.195 20.0117L30 20H29.7767C29.9055 19.7782 29.9811 19.5296 29.9976 19.2737C30.0141 19.0177 29.971 18.7615 29.8717 18.525L29.7767 18.3333H30C30.4248 18.3329 30.8334 18.1702 31.1423 17.8786C31.4512 17.587 31.6371 17.1884 31.662 16.7643C31.6869 16.3403 31.5489 15.9227 31.2763 15.5969C31.0036 15.2712 30.6169 15.0618 30.195 15.0117L30 15Z" fill="#F9FAFB"/>
</svg>
