<svg width="24" height="24" viewBox="0 0 24 24" fill="none" xmlns="http://www.w3.org/2000/svg">
<g clip-path="url(#clip0_177_500)">
<path d="M10.886 2.06107C11.1496 2.0319 11.414 2.10864 11.6211 2.27443C11.8281 2.44021 11.9608 2.68145 11.99 2.94507C12.0192 3.2087 11.9424 3.47311 11.7766 3.68015C11.6109 3.88719 11.3696 4.0199 11.106 4.04907C9.07764 4.28142 7.21483 5.28038 5.899 6.8414C4.58316 8.40243 3.91385 10.4074 4.0281 12.4458C4.14236 14.4843 5.03153 16.4019 6.51357 17.8061C7.99561 19.2103 9.95838 19.9948 12 19.9991V21.9991C6.477 21.9991 2 17.5231 2 11.9991C2 6.89307 5.848 2.62107 10.886 2.06207V2.06107Z" fill="url(#paint0_linear_177_500)"/>
<path d="M16.322 4.04C16.4737 3.82256 16.7056 3.67429 16.9667 3.62779C17.2277 3.58128 17.4965 3.64035 17.714 3.792C19.0379 4.71255 20.1193 5.93995 20.8656 7.36931C21.612 8.79868 22.0012 10.3875 22 12C22 17.523 17.523 22 12 22V20C13.7035 20.0002 15.3626 19.4567 16.7358 18.4485C18.1089 17.4403 19.1244 16.0201 19.6343 14.3947C20.1442 12.7693 20.122 11.0235 19.5708 9.41165C19.0197 7.79976 17.9684 6.40589 16.57 5.433C16.4622 5.35786 16.3703 5.26221 16.2994 5.15152C16.2286 5.04083 16.1803 4.91726 16.1573 4.78789C16.1343 4.65852 16.137 4.52588 16.1652 4.39755C16.1935 4.26923 16.2468 4.14772 16.322 4.04Z" fill="url(#paint1_linear_177_500)"/>
</g>
<defs>
<linearGradient id="paint0_linear_177_500" x1="502" y1="107.18" x2="502" y2="1832.78" gradientUnits="userSpaceOnUse">
<stop stop-color="#1A7CB8"/>
<stop offset="1" stop-color="#1A7CB8" stop-opacity="0.55"/>
</linearGradient>
<linearGradient id="paint1_linear_177_500" x1="512" y1="166.84" x2="512" y2="1666.14" gradientUnits="userSpaceOnUse">
<stop stop-color="#1A7CB8" stop-opacity="0"/>
<stop offset="1" stop-color="#1A7CB8" stop-opacity="0.55"/>
</linearGradient>
<clipPath id="clip0_177_500">
<rect width="24" height="24" fill="white"/>
</clipPath>
</defs>
</svg>
