<svg width="30" height="30" viewBox="0 0 30 30" fill="none" xmlns="http://www.w3.org/2000/svg">
<g clip-path="url(#clip0_30_36)">
<path d="M15 8C14.2044 8 13.4413 8.31607 12.8787 8.87868C12.3161 9.44129 12 10.2044 12 11V12H18V11C18 10.2044 17.6839 9.44129 17.1213 8.87868C16.5587 8.31607 15.7956 8 15 8Z" fill="#145D8A"/>
<path fill-rule="evenodd" clip-rule="evenodd" d="M15 0C18.9782 0 22.7936 1.58035 25.6066 4.3934C28.4196 7.20644 30 11.0218 30 15C30 18.9782 28.4196 22.7936 25.6066 25.6066C22.7936 28.4196 18.9782 30 15 30C11.0218 30 7.20644 28.4196 4.3934 25.6066C1.58035 22.7936 0 18.9782 0 15C0 11.0218 1.58035 7.20644 4.3934 4.3934C7.20644 1.58035 11.0218 0 15 0ZM10 11V12.17C9.41484 12.3769 8.90826 12.7602 8.55006 13.267C8.19186 13.7739 7.99967 14.3793 8 15V21C8 21.7956 8.31607 22.5587 8.87868 23.1213C9.44129 23.6839 10.2044 24 11 24H19C19.7956 24 20.5587 23.6839 21.1213 23.1213C21.6839 22.5587 22 21.7956 22 21V15C22.0003 14.3793 21.8081 13.7739 21.4499 13.267C21.0917 12.7602 20.5852 12.3769 20 12.17V11C20 9.67392 19.4732 8.40215 18.5355 7.46447C17.5979 6.52678 16.3261 6 15 6C13.6739 6 12.4021 6.52678 11.4645 7.46447C10.5268 8.40215 10 9.67392 10 11Z" fill="#145D8A"/>
</g>
<defs>
<clipPath id="clip0_30_36">
<rect width="30" height="30" fill="white"/>
</clipPath>
</defs>
</svg>
