<svg width="700" height="521" viewBox="0 0 700 521" fill="none" xmlns="http://www.w3.org/2000/svg">
<g clip-path="url(#clip0_1_1515)">
<path d="M629.86 480.956H583.492V481.306H629.86V480.956Z" fill="#F9FAFB"/>
<path d="M463.708 484.764H451.542V485.114H463.708V484.764Z" fill="#F9FAFB"/>
<path d="M582.092 467.964H555.226V468.314H582.092V467.964Z" fill="#F9FAFB"/>
<path d="M133.91 470.316H73.444V470.666H133.91V470.316Z" fill="#F9FAFB"/>
<path d="M155.246 470.316H146.384V470.666H155.246V470.316Z" fill="#F9FAFB"/>
<path d="M315.21 476.224H184.058V476.574H315.21V476.224Z" fill="#F9FAFB"/>
<path d="M333.76 395.99H63.42C59.01 395.99 55.426 392.406 55.426 387.996V7.994C55.426 3.584 59.01 0 63.42 0H333.76C338.17 0 341.754 3.584 341.754 7.994V387.996C341.754 392.406 338.17 395.99 333.76 395.99ZM63.42 0.35C59.206 0.35 55.776 3.78 55.776 7.994V387.996C55.776 392.21 59.206 395.64 63.42 395.64H333.76C337.974 395.64 341.404 392.21 341.404 387.996V7.994C341.404 3.78 337.974 0.35 333.76 0.35H63.42Z" fill="#F9FAFB"/>
<path d="M636.58 395.99H366.24C361.83 395.99 358.246 392.406 358.246 387.996V7.994C358.246 3.584 361.83 0 366.24 0H636.58C640.99 0 644.574 3.584 644.574 7.994V387.996C644.574 392.406 640.99 395.99 636.58 395.99ZM366.24 0.35C362.026 0.35 358.596 3.78 358.596 7.994V387.996C358.596 392.21 362.026 395.64 366.24 395.64H636.58C640.794 395.64 644.224 392.21 644.224 387.996V7.994C644.224 3.78 640.794 0.35 636.58 0.35H366.24Z" fill="#F9FAFB"/>
<path d="M700 458.43H0V458.78H700V458.43Z" fill="#F9FAFB"/>
<path d="M167.062 363.72C165.886 350.196 152.082 345.142 135.716 346.57C119.364 347.998 106.652 355.39 107.828 368.9L167.062 363.72Z" fill="#FFDD80"/>
<path d="M135.184 340.382C142.772 339.724 145.194 333.312 144.536 325.71C143.878 318.122 140.378 312.228 132.776 312.886C125.188 313.544 122.766 319.956 123.424 327.558C124.096 335.16 127.596 341.054 135.184 340.382Z" fill="#FFDD80"/>
<path d="M476.14 75.6281C476.504 79.8141 473.41 83.5101 469.224 83.8741C465.038 84.2381 461.342 81.1441 460.978 76.9581C460.614 72.7721 463.708 69.0761 467.894 68.7121C472.08 68.3481 475.776 71.4421 476.14 75.6281Z" fill="#FF8800"/>
<path d="M518.238 71.9461C518.602 76.1321 515.508 79.8281 511.322 80.1921C507.136 80.5561 503.44 77.4621 503.076 73.2761C502.712 69.0901 505.806 65.3941 509.992 65.0301C514.192 64.6661 517.874 67.7601 518.238 71.9461Z" fill="#FF8800"/>
<path d="M560.35 68.264C560.714 72.45 557.62 76.146 553.434 76.51C549.248 76.874 545.552 73.78 545.188 69.594C544.824 65.408 547.918 61.712 552.104 61.348C556.29 60.97 559.972 64.078 560.35 68.264Z" fill="#FF8800"/>
<path d="M479.892 118.538C480.256 122.724 477.162 126.42 472.976 126.784C468.79 127.148 465.094 124.054 464.73 119.868C464.366 115.682 467.46 111.986 471.646 111.622C475.832 111.258 479.528 114.352 479.892 118.538Z" fill="#FF8800"/>
<path d="M521.99 114.856C522.354 119.042 519.26 122.738 515.074 123.102C510.888 123.466 507.192 120.372 506.828 116.186C506.464 112 509.558 108.304 513.744 107.94C517.944 107.576 521.626 110.67 521.99 114.856Z" fill="#FF8800"/>
<path d="M564.102 111.174C564.466 115.36 561.372 119.056 557.186 119.42C553 119.784 549.304 116.69 548.94 112.504C548.576 108.318 551.67 104.622 555.856 104.258C560.042 103.894 563.738 106.988 564.102 111.174Z" fill="#FF8800"/>
<path d="M483.644 161.448C484.008 165.634 480.914 169.33 476.728 169.694C472.542 170.058 468.846 166.964 468.482 162.778C468.118 158.592 471.212 154.896 475.398 154.532C479.598 154.168 483.28 157.262 483.644 161.448Z" fill="#FF8800"/>
<path d="M525.756 157.766C526.12 161.952 523.026 165.648 518.84 166.012C514.654 166.376 510.958 163.282 510.594 159.096C510.23 154.91 513.324 151.214 517.51 150.85C521.696 150.486 525.378 153.58 525.756 157.766Z" fill="#FF8800"/>
<path d="M567.854 154.084C568.218 158.27 565.124 161.966 560.938 162.33C556.752 162.694 553.056 159.6 552.692 155.414C552.328 151.228 555.422 147.532 559.608 147.168C563.794 146.804 567.49 149.898 567.854 154.084Z" fill="#FF8800"/>
<path d="M558.754 156.562L472.248 164.136L548.94 70.938L470.358 77.812C469.434 77.896 468.636 77.21 468.552 76.3C468.468 75.376 469.154 74.578 470.064 74.494L556.57 66.92L479.878 160.118L558.46 153.244C559.384 153.16 560.182 153.846 560.266 154.756C560.35 155.666 559.678 156.478 558.754 156.562Z" fill="#FF8800"/>
<path d="M560.084 322.91C559.804 322.084 559.062 321.468 558.194 321.412C554.232 321.146 550.872 319.662 548.226 317.002C544.768 313.53 542.738 308.238 542.402 301.966C542.346 300.79 541.366 299.88 540.19 299.88C538.888 299.866 537.866 300.972 537.936 302.26C538.342 309.624 540.82 315.91 545.062 320.166C548.366 323.484 552.636 325.43 557.494 325.85C557.578 325.864 557.69 325.864 557.816 325.878C559.398 326.018 560.616 324.436 560.084 322.91Z" fill="#FF8800"/>
<path d="M555.604 349.79C537.054 348.166 523.67 335.524 519.428 315.784C519.162 314.524 519.96 313.292 521.234 313.068C522.41 312.858 523.544 313.614 523.796 314.776C527.59 332.528 539.504 343.896 555.996 345.338C574.084 346.92 593.502 335.02 596.974 305.032C597.114 303.814 598.178 302.918 599.396 303.03C600.642 303.142 601.58 304.248 601.426 305.494C598.108 333.746 579.516 351.876 555.604 349.79Z" fill="#FF8800"/>
<path d="M520.604 296.114C519.358 296.002 518.42 294.896 518.574 293.65C521.906 265.37 540.498 247.24 564.41 249.34C585.354 251.174 599.466 266.854 601.678 290.472C601.79 291.718 600.824 292.81 599.578 292.88C598.36 292.95 597.324 292.026 597.212 290.822C595.196 269.542 582.624 255.444 564.032 253.806C545.944 252.224 526.526 264.124 523.054 294.112C522.886 295.316 521.822 296.226 520.604 296.114Z" fill="#FF8800"/>
<path d="M556.514 337.792C553.07 337.484 549.836 336.686 546.854 335.384C545.65 334.852 545.146 333.396 545.776 332.248C546.322 331.24 547.554 330.806 548.604 331.268C551.39 332.5 554.484 333.214 557.802 333.396C571.522 334.18 585.998 324.464 587.412 301C588.28 286.538 583.338 274.862 574.084 269.276C573.09 268.674 572.726 267.428 573.23 266.378C573.804 265.202 575.288 264.768 576.408 265.44C587.104 271.894 592.858 285.082 591.878 301.252C590.506 323.89 576.394 338.94 557.536 337.862C557.214 337.848 556.864 337.82 556.514 337.792Z" fill="#FF8800"/>
<path d="M536.578 323.82C535.5 324.562 534.016 324.212 533.358 323.078C529.382 316.218 527.534 307.356 528.108 297.85C529.41 276.192 542.402 261.478 560.028 261.198C561.33 261.17 562.394 262.276 562.324 263.578C562.254 264.74 561.316 265.664 560.14 265.678C547.064 265.93 533.932 275.814 532.588 298.116C532.07 306.768 533.722 314.762 537.264 320.88C537.838 321.888 537.53 323.176 536.578 323.82Z" fill="#FF8800"/>
<path d="M567.182 322C566.72 320.964 567.126 319.76 568.092 319.172C573.972 315.63 577.598 308.182 577.654 299.222C577.696 292.04 575.624 285.964 571.788 282.114C568.834 279.146 565.012 277.648 560.42 277.662C553.518 277.676 547.932 281.456 544.838 288.12C544.348 289.17 543.144 289.66 542.052 289.268C540.82 288.82 540.232 287.392 540.792 286.202C544.628 278.026 551.81 273.21 560.42 273.182C566.16 273.168 571.186 275.17 574.966 278.964C579.656 283.668 582.204 290.878 582.148 299.264C582.078 309.848 577.626 318.724 570.36 323.064C569.212 323.736 567.714 323.218 567.182 322Z" fill="#FF8800"/>
<path d="M551.054 305.536C549.78 306.054 548.352 305.312 548.03 303.982C547.876 303.38 547.764 302.75 547.666 302.106C546.392 293.734 550.9 286.44 558.138 285.138C561.876 284.466 565.208 285.348 567.756 287.616C568.792 288.54 568.708 290.192 567.588 290.99L567.448 291.088C566.594 291.69 565.488 291.564 564.69 290.878C563.178 289.576 561.246 289.128 558.936 289.534C553.42 290.514 551.32 296.254 552.104 301.42C552.174 301.924 552.272 302.414 552.384 302.876C552.65 303.982 552.104 305.116 551.054 305.536Z" fill="#FF8800"/>
<path d="M558.46 314.16H558.446C556.906 314.02 556.052 312.298 556.878 310.982L557.074 310.674C557.494 310.016 558.222 309.652 559.006 309.708C559.664 309.75 560.378 309.708 561.106 309.582C565.922 308.714 568.134 304.234 568.092 299.67C568.078 298.536 568.876 297.556 569.996 297.374C571.312 297.178 572.558 298.158 572.572 299.488C572.712 306.796 568.4 312.83 561.89 313.992C560.7 314.202 559.552 314.258 558.46 314.16Z" fill="#FF8800"/>
<path d="M559.454 305.886C557.074 305.676 555.296 304.066 554.638 301.77C554.26 300.44 555.38 299.152 556.752 299.278L557.27 299.32C558.068 299.39 558.726 299.936 558.992 300.692C559.118 301.056 559.37 301.378 559.832 301.42C560.91 301.518 561.092 299.964 561.12 299.656C561.134 299.432 561.19 298.578 560.812 298.074C560.448 297.584 560.21 297.01 560.266 296.394C560.434 294.406 562.954 293.594 564.228 295.148C565.236 296.38 565.754 298.102 565.586 300.048C565.278 303.716 562.688 306.166 559.454 305.886Z" fill="#FF8800"/>
<path d="M517.342 255.78C516.11 255.668 515.2 254.59 515.312 253.358L517.006 233.94L536.424 235.634C537.656 235.746 538.566 236.824 538.454 238.056C538.342 239.288 537.264 240.198 536.032 240.1L521.08 238.798L519.778 253.75C519.666 254.982 518.574 255.892 517.342 255.78Z" fill="#FF8800"/>
<path d="M609.644 263.858C608.412 263.746 607.502 262.668 607.614 261.436L608.916 246.484L593.964 245.182C592.732 245.07 591.822 243.992 591.934 242.76C592.046 241.528 593.124 240.618 594.356 240.73L613.774 242.424L612.08 261.842C611.968 263.046 610.876 263.97 609.644 263.858Z" fill="#FF8800"/>
<path d="M602.77 368.228L583.352 366.534C582.12 366.422 581.21 365.344 581.322 364.112C581.434 362.88 582.512 361.97 583.744 362.082L598.696 363.384L599.998 348.432C600.11 347.2 601.188 346.29 602.42 346.388C603.652 346.5 604.562 347.578 604.464 348.81L602.77 368.228Z" fill="#FF8800"/>
<path d="M525.42 361.452L506.002 359.758L507.696 340.34C507.808 339.108 508.886 338.198 510.118 338.296C511.35 338.408 512.26 339.486 512.148 340.718L510.846 355.67L525.798 356.972C527.03 357.084 527.94 358.162 527.842 359.394C527.73 360.654 526.652 361.564 525.42 361.452Z" fill="#FF8800"/>
<path d="M104.622 319.438C103.866 319.508 103.194 318.948 103.124 318.192L102.074 306.25L114.016 305.2C114.772 305.13 115.444 305.69 115.514 306.446C115.584 307.202 115.024 307.874 114.268 307.944L105.084 308.742L105.882 317.926C105.938 318.71 105.378 319.382 104.622 319.438Z" fill="#FF8800"/>
<path d="M161.378 314.482C160.622 314.552 159.95 313.992 159.88 313.236L159.082 304.052L149.898 304.85C149.142 304.92 148.47 304.36 148.4 303.604C148.33 302.848 148.89 302.176 149.646 302.106L161.588 301.056L162.638 312.998C162.694 313.74 162.134 314.412 161.378 314.482Z" fill="#FF8800"/>
<path d="M167.258 365.876L155.316 366.926C154.56 366.996 153.888 366.436 153.818 365.68C153.748 364.924 154.308 364.252 155.064 364.182L164.248 363.384L163.45 354.2C163.38 353.444 163.94 352.772 164.696 352.702C165.452 352.632 166.124 353.192 166.194 353.948L167.258 365.876Z" fill="#FF8800"/>
<path d="M119.686 370.034L107.744 371.084L106.694 359.142C106.624 358.386 107.184 357.714 107.94 357.644C108.696 357.574 109.368 358.134 109.438 358.89L110.236 368.074L119.42 367.276C120.176 367.206 120.848 367.766 120.918 368.522C121.016 369.292 120.456 369.964 119.686 370.034Z" fill="#FF8800"/>
<path d="M160.412 120.4L114.73 124.39L113.792 113.694C112.826 102.606 121.058 92.792 132.146 91.826C143.234 90.86 153.048 99.092 154.014 110.18L154.56 116.396L161.154 115.822L160.608 109.606C159.32 94.878 146.3 83.944 131.572 85.232C116.844 86.52 105.924 99.554 107.212 114.282L108.15 125.034C102.83 126.07 99.05 130.97 99.526 136.486L102.788 173.782C103.306 179.676 108.5 184.044 114.408 183.526L165.55 179.046C171.444 178.528 175.812 173.334 175.294 167.426L172.032 130.13C171.514 124.236 166.32 119.882 160.412 120.4ZM141.008 149.142L142.128 161.98C142.31 164.094 140.756 165.942 138.642 166.138C136.528 166.32 134.68 164.766 134.484 162.652L133.364 149.814C131.684 148.778 130.494 147.014 130.298 144.9C129.99 141.344 132.608 138.222 136.164 137.914C139.706 137.606 142.842 140.224 143.15 143.78C143.36 145.88 142.478 147.826 141.008 149.142Z" fill="#FF8800"/>
<path d="M238.616 142.016L233.996 134.484C231.49 134.834 229.446 134.834 226.94 134.484L222.32 142.016L221.438 141.778C218.456 140.98 215.586 139.79 212.898 138.236L212.1 137.774L214.06 129.598C214.214 128.94 214.886 128.534 215.544 128.688C216.202 128.842 216.608 129.514 216.454 130.172L214.928 136.542C216.93 137.634 219.016 138.502 221.186 139.146L225.694 131.796L226.506 131.936C229.124 132.37 231.784 132.37 234.402 131.936L235.214 131.796L239.722 139.146C241.878 138.502 243.978 137.634 245.98 136.542L243.978 128.17L244.65 127.694C246.484 126.378 248.108 124.824 249.508 123.06C249.928 122.542 250.67 122.416 251.202 122.808C251.762 123.214 251.902 124.012 251.468 124.558C250.096 126.294 248.514 127.848 246.75 129.206L248.808 137.788L248.01 138.25C245.322 139.804 242.452 140.994 239.47 141.792L238.616 142.016ZM210.308 125.58C209.916 125.132 209.538 124.684 209.188 124.208L200.606 126.266L200.144 125.468C198.59 122.78 197.4 119.91 196.602 116.928L196.364 116.046L203.896 111.426C203.728 110.166 203.644 109.018 203.644 107.898C203.644 106.792 203.728 105.63 203.896 104.37L196.364 99.75L196.602 98.868C197.4 95.886 198.59 93.016 200.144 90.328L200.606 89.53L209.188 91.588C210.63 89.712 212.296 88.046 214.172 86.604L212.618 80.108C212.464 79.45 212.87 78.778 213.528 78.624C214.186 78.47 214.858 78.876 215.012 79.534L216.944 87.626L216.272 88.116C214.116 89.67 212.24 91.546 210.686 93.702L210.21 94.374L201.824 92.372C200.746 94.374 199.864 96.46 199.234 98.63L206.584 103.138L206.458 103.95C206.22 105.392 206.108 106.68 206.108 107.898C206.108 109.116 206.22 110.404 206.458 111.846L206.598 112.658L199.248 117.166C199.892 119.322 200.76 121.422 201.838 123.424L210.224 121.422L210.7 122.094C211.162 122.724 211.638 123.34 212.156 123.928C212.59 124.418 212.576 125.146 212.1 125.608L212.058 125.65C211.568 126.14 210.77 126.098 210.308 125.58ZM260.344 126.266L257.18 125.51C256.522 125.356 256.116 124.684 256.27 124.026C256.424 123.368 257.096 122.962 257.754 123.116L259.126 123.438C260.204 121.436 261.086 119.35 261.716 117.18L254.366 112.672L254.506 111.86C254.744 110.418 254.856 109.13 254.856 107.912C254.856 106.694 254.744 105.406 254.506 103.964L254.366 103.152L261.716 98.644C261.072 96.488 260.204 94.388 259.126 92.386L250.74 94.388L250.25 93.716C248.696 91.56 246.82 89.684 244.664 88.13L243.992 87.64L245.994 79.254C243.992 78.176 241.906 77.294 239.736 76.65L235.228 84L234.416 83.874C231.798 83.454 229.138 83.454 226.52 83.874L225.708 84L221.2 76.664C220.92 76.748 220.64 76.832 220.36 76.93C219.73 77.14 219.058 76.804 218.834 76.188C218.596 75.544 218.932 74.816 219.59 74.592C220.206 74.396 220.822 74.214 221.438 74.046L222.32 73.808L226.94 81.34C229.446 80.99 231.476 80.99 233.996 81.34L238.616 73.808L239.498 74.046C242.48 74.844 245.35 76.034 248.038 77.588L248.836 78.05L246.778 86.632C248.654 88.074 250.32 89.74 251.762 91.616L260.344 89.558L260.806 90.356C262.36 93.044 263.55 95.914 264.348 98.896L264.586 99.778L257.054 104.398C257.222 105.658 257.306 106.82 257.306 107.926C257.306 109.032 257.222 110.194 257.054 111.454L264.586 116.074L264.348 116.956C263.55 119.938 262.36 122.808 260.806 125.496L260.344 126.266ZM230.132 119.91C223.874 119.728 218.666 114.52 218.484 108.262C218.302 101.962 223.02 96.698 229.096 95.984C229.824 95.9 230.482 96.474 230.482 97.216C230.482 97.832 230.02 98.364 229.404 98.434C224.042 99.036 220.01 104.118 221.13 109.83C221.858 113.54 224.854 116.536 228.564 117.264C234.654 118.454 240.016 113.806 240.016 107.912C240.016 105.938 239.414 104.034 238.294 102.438C237.944 101.934 238.042 101.248 238.504 100.842C239.064 100.352 239.918 100.45 240.338 101.066C241.738 103.068 242.48 105.462 242.48 107.926C242.48 114.646 236.908 120.092 230.132 119.91Z" fill="#FF8800"/>
<path d="M151.634 244.496L148.652 239.638C147.042 239.862 145.712 239.862 144.102 239.638L141.12 244.496L140.546 244.342C138.628 243.824 136.766 243.054 135.03 242.06L134.512 241.766L135.772 236.488C135.87 236.054 136.304 235.802 136.738 235.9C137.172 235.998 137.424 236.432 137.326 236.866L136.332 240.982C137.62 241.682 138.978 242.242 140.378 242.662L143.29 237.916L143.822 238C145.516 238.28 147.238 238.28 148.918 238L149.45 237.916L152.362 242.662C153.762 242.242 155.106 241.682 156.408 240.982L155.106 235.564L155.54 235.256C156.73 234.402 157.78 233.408 158.676 232.26C158.942 231.924 159.418 231.84 159.768 232.092C160.132 232.358 160.216 232.876 159.936 233.226C159.04 234.346 158.018 235.354 156.884 236.222L158.214 241.766L157.696 242.06C155.96 243.068 154.112 243.838 152.18 244.342L151.634 244.496ZM133.35 233.87C133.098 233.59 132.86 233.282 132.622 232.988L127.078 234.318L126.784 233.8C125.776 232.064 125.006 230.216 124.502 228.284L124.348 227.71L129.206 224.728C129.094 223.916 129.038 223.174 129.038 222.446C129.038 221.732 129.094 220.976 129.206 220.164L124.348 217.182L124.502 216.608C125.02 214.69 125.79 212.828 126.784 211.092L127.078 210.574L132.622 211.904C133.546 210.686 134.638 209.608 135.842 208.684L134.834 204.484C134.736 204.064 134.988 203.63 135.422 203.532C135.842 203.434 136.276 203.686 136.374 204.12L137.62 209.342L137.2 209.678C135.814 210.672 134.596 211.89 133.588 213.29L133.28 213.724L127.862 212.422C127.162 213.71 126.602 215.068 126.182 216.468L130.928 219.38L130.844 219.912C130.69 220.85 130.62 221.676 130.62 222.46C130.62 223.244 130.69 224.084 130.844 225.008L130.928 225.54L126.182 228.452C126.602 229.852 127.162 231.21 127.862 232.498L133.28 231.196L133.588 231.63C133.882 232.036 134.204 232.442 134.526 232.82C134.806 233.142 134.792 233.604 134.498 233.898L134.47 233.926C134.162 234.234 133.644 234.206 133.35 233.87ZM165.676 234.318L163.632 233.828C163.198 233.73 162.946 233.296 163.044 232.862C163.142 232.428 163.576 232.176 164.01 232.274L164.892 232.484C165.592 231.196 166.152 229.838 166.572 228.438L161.826 225.526L161.91 224.994C162.064 224.056 162.134 223.23 162.134 222.446C162.134 221.662 162.064 220.822 161.91 219.898L161.826 219.366L166.572 216.454C166.152 215.054 165.592 213.696 164.892 212.408L159.474 213.71L159.166 213.276C158.172 211.89 156.954 210.672 155.554 209.664L155.12 209.342L156.422 203.924C155.134 203.224 153.776 202.664 152.376 202.244L149.464 206.99L148.932 206.906C147.238 206.626 145.516 206.626 143.822 206.906L143.29 206.99L140.378 202.244C140.196 202.3 140.014 202.356 139.832 202.412C139.426 202.538 138.992 202.328 138.852 201.922C138.698 201.502 138.922 201.026 139.342 200.886C139.734 200.76 140.14 200.634 140.532 200.536L141.106 200.382L144.088 205.24C145.712 205.016 147.014 205.016 148.638 205.24L151.62 200.382L152.194 200.536C154.112 201.054 155.974 201.824 157.71 202.818L158.228 203.112L156.898 208.656C158.116 209.58 159.194 210.672 160.118 211.876L165.662 210.546L165.956 211.064C166.964 212.8 167.734 214.648 168.238 216.58L168.392 217.154L163.534 220.136C163.646 220.948 163.702 221.69 163.702 222.418C163.702 223.132 163.646 223.888 163.534 224.7L168.392 227.682L168.238 228.256C167.72 230.174 166.95 232.036 165.956 233.772L165.676 234.318ZM146.16 230.216C142.114 230.104 138.754 226.73 138.628 222.698C138.516 218.624 141.554 215.222 145.488 214.774C145.964 214.718 146.384 215.096 146.384 215.572C146.384 215.978 146.09 216.314 145.684 216.356C142.226 216.748 139.622 220.024 140.336 223.72C140.812 226.114 142.744 228.046 145.138 228.522C149.072 229.292 152.53 226.282 152.53 222.488C152.53 221.214 152.138 219.982 151.41 218.946C151.186 218.624 151.242 218.176 151.536 217.91C151.9 217.588 152.446 217.658 152.726 218.05C153.622 219.338 154.112 220.892 154.112 222.474C154.126 226.814 150.528 230.328 146.16 230.216Z" fill="#FF8800"/>
<path d="M350 520.884C499.915 520.884 621.446 513.789 621.446 505.036C621.446 496.283 499.915 489.188 350 489.188C200.085 489.188 78.554 496.283 78.554 505.036C78.554 513.789 200.085 520.884 350 520.884Z" fill="#1E293B"/>
<path d="M508.83 127.218H463.246L431.004 495.768H476.588C489.552 495.768 501.018 485.226 502.152 472.262L530.278 150.738C531.412 137.774 521.794 127.218 508.83 127.218Z" fill="#145D8A"/>
<path d="M499.534 127.218H345.254C332.29 127.218 320.824 137.76 319.69 150.724L291.564 472.248C290.43 485.212 300.048 495.754 313.012 495.754H467.292C480.256 495.754 491.722 485.212 492.856 472.248L520.982 150.724C522.116 137.774 512.498 127.218 499.534 127.218Z" fill="#219BE6"/>
<path d="M498.876 134.75H458.206C455.812 134.75 453.558 136.318 452.662 138.628C449.372 147.126 441.042 152.95 432.18 152.95H408.128C399.252 152.95 391.944 147.126 390.152 138.628C389.662 136.332 387.688 134.75 385.294 134.75H344.624C335.804 134.75 328.02 141.904 327.25 150.724L299.124 472.248C298.354 481.068 304.878 488.222 313.698 488.222H467.978C476.798 488.222 484.582 481.068 485.352 472.248L513.478 150.724C514.22 141.904 507.696 134.75 498.876 134.75Z" fill="#CAE7F9"/>
<path d="M460.432 309.414H352.464C349.258 309.414 346.892 306.824 347.172 303.618L347.718 297.444C347.998 294.238 350.826 291.648 354.018 291.648H461.986C465.192 291.648 467.558 294.238 467.278 297.444L466.732 303.618C466.466 306.81 463.638 309.414 460.432 309.414Z" fill="#F9FAFB"/>
<path d="M458.108 336.07H350.14C346.934 336.07 344.568 333.48 344.848 330.274L345.394 324.1C345.674 320.894 348.502 318.304 351.694 318.304H459.662C462.868 318.304 465.234 320.894 464.954 324.1L464.408 330.274C464.128 333.466 461.3 336.07 458.108 336.07Z" fill="#F9FAFB"/>
<path opacity="0.1" d="M427.63 140.784C427.322 144.34 424.186 147.21 420.644 147.21C417.088 147.21 414.47 144.326 414.778 140.784C415.086 137.228 418.222 134.358 421.764 134.358C425.32 134.358 427.938 137.228 427.63 140.784Z" fill="#0F172A"/>
<path opacity="0.1" d="M424.718 140.784C424.55 142.73 422.842 144.298 420.896 144.298C418.95 144.298 417.522 142.73 417.69 140.784C417.858 138.838 419.566 137.27 421.512 137.27C423.444 137.27 424.886 138.838 424.718 140.784Z" fill="#0F172A"/>
<g opacity="0.8">
<path d="M479.878 151.494C478.842 151.494 478.072 150.654 478.156 149.604L478.464 146.16C478.562 145.124 479.472 144.27 480.508 144.27C481.544 144.27 482.314 145.11 482.23 146.16L481.922 149.604C481.838 150.654 480.914 151.494 479.878 151.494Z" fill="#219BE6"/>
<path d="M494.942 151.494C493.906 151.494 493.136 150.654 493.22 149.604L493.92 141.526C494.018 140.49 494.928 139.636 495.964 139.636C497 139.636 497.77 140.476 497.686 141.526L496.986 149.604C496.902 150.654 495.978 151.494 494.942 151.494Z" fill="#219BE6"/>
<path d="M487.41 151.494C486.374 151.494 485.604 150.654 485.688 149.604L486.192 143.85C486.29 142.814 487.2 141.96 488.236 141.96C489.272 141.96 490.042 142.8 489.958 143.85L489.454 149.604C489.37 150.654 488.446 151.494 487.41 151.494Z" fill="#219BE6"/>
</g>
<g opacity="0.8">
<path d="M350.896 151.494H341.432C340.844 151.494 340.41 151.018 340.466 150.43L340.914 145.348C340.97 144.76 341.488 144.284 342.076 144.284H351.54C352.128 144.284 352.562 144.76 352.506 145.348L352.058 150.43C352.002 151.018 351.484 151.494 350.896 151.494Z" fill="#219BE6"/>
<path d="M355.278 150.122C354.69 150.122 354.256 149.646 354.312 149.058L354.522 146.734C354.578 146.146 355.096 145.67 355.684 145.67C356.272 145.67 356.706 146.146 356.65 146.734L356.44 149.058C356.384 149.646 355.866 150.122 355.278 150.122Z" fill="#219BE6"/>
</g>
<path d="M442.655 268.795C461.495 250.761 463.375 222.15 446.854 204.89C430.332 187.631 401.666 188.259 382.826 206.293C363.986 224.328 362.106 252.939 378.627 270.198C395.149 287.458 423.815 286.83 442.655 268.795Z" fill="#F9FAFB"/>
<path d="M412.888 235.802C401.002 235.802 390.978 240.324 390.124 250.138L389.172 261.03H432.194L433.146 250.138C434 240.31 424.774 235.802 412.888 235.802Z" fill="#145D8A"/>
<path d="M413.28 231.308C418.796 231.308 421.33 226.842 421.82 221.326C422.296 215.81 420.546 211.344 415.03 211.344C409.514 211.344 406.98 215.81 406.49 221.326C406.014 226.842 407.764 231.308 413.28 231.308Z" fill="#145D8A"/>
<path d="M455.504 300.202C452.564 300.202 450.1 301.322 449.876 303.744L449.638 306.432H460.264L460.502 303.744C460.726 301.322 458.444 300.202 455.504 300.202Z" fill="#219BE6"/>
<path d="M455.602 299.096C456.96 299.096 457.59 297.99 457.716 296.632C457.842 295.274 457.394 294.168 456.036 294.168C454.678 294.168 454.048 295.274 453.922 296.632C453.81 297.99 454.244 299.096 455.602 299.096Z" fill="#219BE6"/>
<path d="M422.786 362.726H380.772C375.858 362.726 372.232 358.75 372.666 353.836C373.1 348.922 377.426 344.946 382.326 344.946H424.34C429.254 344.946 432.88 348.922 432.446 353.836C432.026 358.736 427.7 362.726 422.786 362.726Z" fill="#145D8A"/>
<path d="M417.718 461.804H372.75C367.57 461.804 363.734 457.604 364.182 452.41L367.052 419.608C367.5 414.428 372.078 410.214 377.258 410.214H422.226C427.406 410.214 431.242 414.414 430.794 419.608L427.924 452.41C427.476 457.604 422.912 461.804 417.718 461.804Z" fill="#145D8A"/>
<path d="M403.858 427.91C404.138 424.788 401.828 422.254 398.706 422.254C395.584 422.254 392.84 424.788 392.56 427.91C392.392 429.772 393.162 431.396 394.464 432.432L393.47 443.73C393.302 445.578 394.674 447.09 396.536 447.09C398.384 447.09 400.022 445.592 400.19 443.73L401.184 432.432C402.64 431.41 403.69 429.772 403.858 427.91Z" fill="#AFDBF6"/>
<path d="M422.632 417.06H416.836L418.25 400.834C419.104 391.09 411.866 383.152 402.108 383.152C392.35 383.152 383.726 391.09 382.872 400.834L381.458 417.06H375.662L377.076 400.834C378.21 387.884 389.662 377.356 402.612 377.356C415.562 377.356 425.166 387.884 424.032 400.834L422.632 417.06Z" fill="#145D8A"/>
<path d="M456.218 325.052L456.358 323.498C456.498 321.902 455.322 320.614 453.726 320.614C452.13 320.614 450.73 321.902 450.59 323.498L450.45 325.052C449.82 325.052 449.26 325.57 449.204 326.2L448.84 330.344C448.784 330.974 449.26 331.492 449.89 331.492H455.658C456.288 331.492 456.848 330.974 456.904 330.344L457.268 326.2C457.324 325.57 456.862 325.052 456.218 325.052ZM453.656 321.328C454.86 321.328 455.742 322.308 455.644 323.498L455.504 325.052H451.164L451.304 323.498C451.402 322.294 452.466 321.328 453.656 321.328Z" fill="#219BE6"/>
<path d="M369.39 326.718L367.374 326.298C367.136 326.242 367.01 326.004 367.108 325.766L367.948 323.778C368.13 323.358 367.612 323.036 367.29 323.372L365.764 324.94C365.582 325.122 365.288 325.122 365.148 324.94L363.902 323.372C363.636 323.036 363.062 323.344 363.174 323.778L363.664 325.766C363.72 326.004 363.552 326.256 363.314 326.298L361.228 326.718C360.78 326.802 360.724 327.432 361.158 327.53L363.174 327.95C363.412 328.006 363.538 328.244 363.44 328.482L362.6 330.47C362.418 330.89 362.936 331.212 363.258 330.876L364.784 329.308C364.966 329.126 365.26 329.126 365.4 329.308L366.646 330.876C366.912 331.212 367.486 330.904 367.374 330.47L366.884 328.482C366.828 328.244 366.996 327.992 367.234 327.95L369.32 327.53C369.768 327.432 369.824 326.802 369.39 326.718Z" fill="#1E293B"/>
<path d="M382.634 326.718L380.618 326.298C380.38 326.242 380.254 326.004 380.352 325.766L381.192 323.778C381.374 323.358 380.856 323.036 380.534 323.372L379.008 324.94C378.826 325.122 378.532 325.122 378.392 324.94L377.146 323.372C376.88 323.036 376.306 323.344 376.418 323.778L376.908 325.766C376.964 326.004 376.796 326.256 376.558 326.298L374.472 326.718C374.024 326.802 373.968 327.432 374.402 327.53L376.418 327.95C376.656 328.006 376.782 328.244 376.684 328.482L375.844 330.47C375.662 330.89 376.18 331.212 376.502 330.876L378.028 329.308C378.21 329.126 378.504 329.126 378.644 329.308L379.89 330.876C380.156 331.212 380.73 330.904 380.618 330.47L380.128 328.482C380.072 328.244 380.24 327.992 380.478 327.95L382.564 327.53C383.012 327.432 383.068 326.802 382.634 326.718Z" fill="#1E293B"/>
<path d="M395.878 326.718L393.862 326.298C393.624 326.242 393.498 326.004 393.596 325.766L394.436 323.778C394.618 323.358 394.1 323.036 393.778 323.372L392.252 324.94C392.07 325.122 391.776 325.122 391.636 324.94L390.39 323.372C390.124 323.036 389.55 323.344 389.662 323.778L390.152 325.766C390.208 326.004 390.04 326.256 389.802 326.298L387.716 326.718C387.268 326.802 387.212 327.432 387.646 327.53L389.662 327.95C389.9 328.006 390.026 328.244 389.928 328.482L389.088 330.47C388.906 330.89 389.424 331.212 389.746 330.876L391.272 329.308C391.454 329.126 391.748 329.126 391.888 329.308L393.134 330.876C393.4 331.212 393.974 330.904 393.862 330.47L393.372 328.482C393.316 328.244 393.484 327.992 393.722 327.95L395.808 327.53C396.256 327.432 396.312 326.802 395.878 326.718Z" fill="#1E293B"/>
<path d="M409.136 326.718L407.12 326.298C406.882 326.242 406.756 326.004 406.854 325.766L407.694 323.778C407.876 323.358 407.358 323.036 407.036 323.372L405.51 324.94C405.328 325.122 405.034 325.122 404.894 324.94L403.648 323.372C403.382 323.036 402.808 323.344 402.92 323.778L403.41 325.766C403.466 326.004 403.298 326.256 403.06 326.298L400.974 326.718C400.526 326.802 400.47 327.432 400.904 327.53L402.92 327.95C403.158 328.006 403.284 328.244 403.186 328.482L402.346 330.47C402.164 330.89 402.682 331.212 403.004 330.876L404.53 329.308C404.712 329.126 405.006 329.126 405.146 329.308L406.392 330.876C406.658 331.212 407.232 330.904 407.12 330.47L406.63 328.482C406.574 328.244 406.742 327.992 406.98 327.95L409.066 327.53C409.514 327.432 409.57 326.802 409.136 326.718Z" fill="#1E293B"/>
<path d="M422.38 326.718L420.364 326.298C420.126 326.242 420 326.004 420.098 325.766L420.938 323.778C421.12 323.358 420.602 323.036 420.28 323.372L418.754 324.94C418.572 325.122 418.278 325.122 418.138 324.94L416.892 323.372C416.626 323.036 416.052 323.344 416.164 323.778L416.654 325.766C416.71 326.004 416.542 326.256 416.304 326.298L414.218 326.718C413.77 326.802 413.714 327.432 414.148 327.53L416.164 327.95C416.402 328.006 416.528 328.244 416.43 328.482L415.59 330.47C415.408 330.89 415.926 331.212 416.248 330.876L417.774 329.308C417.956 329.126 418.25 329.126 418.39 329.308L419.636 330.876C419.902 331.212 420.476 330.904 420.364 330.47L419.874 328.482C419.818 328.244 419.986 327.992 420.224 327.95L422.31 327.53C422.758 327.432 422.814 326.802 422.38 326.718Z" fill="#1E293B"/>
<path d="M435.624 326.718L433.608 326.298C433.37 326.242 433.244 326.004 433.342 325.766L434.182 323.778C434.364 323.358 433.846 323.036 433.524 323.372L431.998 324.94C431.816 325.122 431.522 325.122 431.382 324.94L430.136 323.372C429.87 323.036 429.296 323.344 429.408 323.778L429.898 325.766C429.954 326.004 429.786 326.256 429.548 326.298L427.462 326.718C427.014 326.802 426.958 327.432 427.392 327.53L429.408 327.95C429.646 328.006 429.772 328.244 429.674 328.482L428.834 330.47C428.652 330.89 429.17 331.212 429.492 330.876L431.018 329.308C431.2 329.126 431.494 329.126 431.634 329.308L432.88 330.876C433.146 331.212 433.72 330.904 433.608 330.47L433.118 328.482C433.062 328.244 433.23 327.992 433.468 327.95L435.554 327.53C436.002 327.432 436.058 326.802 435.624 326.718Z" fill="#1E293B"/>
<path d="M403.69 297.724H378.812C377.272 297.724 375.9 298.984 375.774 300.524C375.634 302.064 376.782 303.324 378.322 303.324H403.2C404.74 303.324 406.112 302.064 406.238 300.524C406.378 298.97 405.244 297.724 403.69 297.724Z" fill="#1E293B"/>
<path d="M428.946 297.724H414.512C412.972 297.724 411.6 298.984 411.474 300.524C411.334 302.064 412.482 303.324 414.022 303.324H428.456C429.996 303.324 431.368 302.064 431.494 300.524C431.634 298.97 430.486 297.724 428.946 297.724Z" fill="#1E293B"/>
<path d="M448 424.634C438.62 428.386 430.402 433.846 424.774 440.048C421.47 437.234 416.78 435.288 411.166 434.392L410.508 434.294L410.214 437.598L410.578 437.738C416.122 439.838 420.644 443.562 423.64 448.504L424.116 449.274L424.634 448.448C430.402 439.208 438.816 431.48 448.322 426.664L448.644 426.496L448.84 424.298L448 424.634Z" fill="#1E293B"/>
<path opacity="0.2" d="M322.896 148.988C321.146 152.068 319.998 155.498 319.676 159.138L298.83 397.446H363.342L376.306 347.76L372.036 298.074L385 248.388L380.73 198.702L393.694 149.016H322.896V148.988Z" fill="#0F172A"/>
<path d="M375.13 184.674L388.094 134.988H224.952L212.002 184.674L216.258 234.374L203.308 284.06L207.564 333.746L194.614 383.446H357.742L370.706 333.746L366.436 284.06L379.4 234.374L375.13 184.674Z" fill="#219BE6"/>
<path d="M375.13 184.674L388.094 134.988H224.952L212.002 184.674L216.258 234.374L203.308 284.06L207.564 333.746L194.614 383.446H357.742L370.706 333.746L366.436 284.06L379.4 234.374L375.13 184.674Z" fill="#F9FAFB"/>
<path d="M375.13 184.674H212.002L224.952 134.988H388.094L375.13 184.674Z" fill="#E4F3FC"/>
<path d="M366.436 284.06H203.308L216.258 234.374H379.4L366.436 284.06Z" fill="#E4F3FC"/>
<path d="M357.742 383.446H194.614L207.564 333.746H370.706L357.742 383.446Z" fill="#E4F3FC"/>
<path opacity="0.2" d="M353.304 205.45C351.904 205.884 350.112 206.15 348.152 206.15C345.268 206.15 342.748 205.576 341.306 204.722C340.914 204.484 340.48 204.372 340.046 204.372C339.64 204.372 339.248 204.484 338.87 204.694C338.842 204.708 338.814 204.708 338.786 204.736C338.772 204.75 338.758 204.75 338.73 204.764C338.198 205.072 337.526 205.352 336.742 205.562C335.398 205.94 333.732 206.164 331.94 206.164C331.45 206.164 330.974 206.15 330.512 206.122C329.112 206.024 327.838 205.8 326.788 205.464C326.606 205.408 326.424 205.366 326.242 205.366C324.968 205.282 323.834 206.262 323.834 207.606V209.118H260.4C255.486 209.118 251.51 213.094 251.51 218.008V226.968C251.51 231.882 255.486 235.858 260.4 235.858H332.542C332.696 235.858 332.85 235.844 333.018 235.83C333.802 236.474 334.6 237.118 335.468 237.762C336.49 238.546 337.582 239.33 338.716 240.156C339.5 240.73 340.592 240.73 341.376 240.156C350.448 233.576 356.272 229.04 356.272 216.566V207.606C356.258 206.038 354.774 204.988 353.304 205.45Z" fill="#0F172A"/>
<path d="M331.17 230.888H259.028C254.114 230.888 250.138 226.912 250.138 221.998V213.038C250.138 208.124 254.114 204.148 259.028 204.148H331.17C336.084 204.148 340.06 208.124 340.06 213.038V221.998C340.046 226.912 336.07 230.888 331.17 230.888Z" fill="#FF8800"/>
<path d="M346.766 201.208C343.882 201.208 341.362 200.634 339.92 199.78C339.122 199.304 338.184 199.304 337.4 199.78C335.958 200.634 333.424 201.208 330.554 201.208C328.594 201.208 326.802 200.942 325.402 200.508C323.932 200.046 322.448 201.11 322.448 202.636V211.596C322.448 224.07 328.272 228.606 337.344 235.186C338.128 235.76 339.22 235.76 340.004 235.186C349.076 228.606 354.9 224.07 354.9 211.596V202.636C354.9 201.096 353.402 200.046 351.946 200.508C350.518 200.956 348.726 201.208 346.766 201.208Z" fill="#FFDD80"/>
<path opacity="0.3" d="M346.766 201.208C343.882 201.208 341.362 200.634 339.92 199.78C339.122 199.304 338.184 199.304 337.4 199.78C335.958 200.634 333.424 201.208 330.554 201.208C328.594 201.208 326.802 200.942 325.402 200.508C323.932 200.046 322.448 201.11 322.448 202.636V211.596C322.448 224.07 328.272 228.606 337.344 235.186C338.128 235.76 339.22 235.76 340.004 235.186C349.076 228.606 354.9 224.07 354.9 211.596V202.636C354.9 201.096 353.402 200.046 351.946 200.508C350.518 200.956 348.726 201.208 346.766 201.208Z" fill="#F9FAFB"/>
<path opacity="0.2" d="M337.4 199.78C335.958 200.634 333.424 201.208 330.554 201.208C328.594 201.208 326.802 200.942 325.402 200.508C323.932 200.046 322.448 201.11 322.448 202.636V211.596C322.448 224.07 328.272 228.606 337.344 235.186C337.736 235.466 338.212 235.62 338.674 235.62V199.43C338.226 199.43 337.792 199.556 337.4 199.78Z" fill="#F9FAFB"/>
<path d="M351.666 209.16C345.8 211.582 340.788 215.124 337.498 219.142C335.202 217.322 332.052 216.062 328.356 215.488L327.922 215.418V217.56L328.174 217.644C331.884 219.002 335.02 221.41 337.246 224.616L337.596 225.12L337.89 224.574C341.096 218.596 346.108 213.584 351.988 210.462L352.184 210.35V208.922L351.666 209.16Z" fill="#1E293B"/>
<path d="M385.21 148.96H379.022C375.592 148.96 373.044 146.174 373.352 142.744L373.898 136.556C374.192 133.126 377.23 130.34 380.66 130.34H386.848C390.278 130.34 392.826 133.126 392.518 136.556L391.972 142.744C391.664 146.188 388.64 148.96 385.21 148.96Z" fill="#FF8800"/>
<path d="M387.786 136.542L386.442 135.072L383.054 138.18L380.226 135.072L378.616 136.542L381.458 139.65L378.084 142.758L379.428 144.242L382.802 141.134L385.644 144.242L387.24 142.758L384.398 139.65L387.786 136.542Z" fill="#F9FAFB"/>
<path d="M246.918 202.356C250.502 206.262 253.932 210.294 257.32 214.382C260.708 218.456 264.012 222.6 267.274 226.786C267.414 226.968 267.358 226.898 267.4 226.954C267.414 226.982 267.414 227.024 267.442 227.038C267.484 227.08 267.498 227.15 267.54 227.178C267.61 227.276 267.694 227.36 267.792 227.458C267.988 227.64 268.268 227.766 268.562 227.822C268.716 227.85 268.87 227.864 269.038 227.85C269.122 227.864 269.206 227.836 269.29 227.836C269.332 227.836 269.374 227.808 269.416 227.808C269.486 227.78 269.444 227.836 269.64 227.724L273.14 225.82C277.844 223.328 282.59 220.892 287.49 218.708L291.592 223.79C287.644 227.43 283.528 231.966 279.37 235.298L276.234 237.762C276.15 237.832 275.814 238.056 275.604 238.196C275.366 238.35 275.128 238.518 274.876 238.658C274.372 238.938 273.854 239.218 273.308 239.428C272.23 239.89 271.082 240.184 269.92 240.366C267.582 240.716 265.16 240.478 262.892 239.666C261.758 239.26 260.666 238.714 259.672 238.028C259.168 237.692 258.692 237.314 258.23 236.922C257.992 236.726 257.782 236.516 257.572 236.306L257.012 235.746C253.302 231.952 249.648 228.116 246.064 224.196C242.48 220.29 238.938 216.342 235.55 212.268L246.918 202.356Z" fill="#FFC480"/>
<path d="M285.586 221.802L288.848 211.316L297.444 215.6C297.444 215.6 296.198 223.244 289.94 224.574L285.586 221.802Z" fill="#FFC480"/>
<path d="M292.292 208.418L300.048 210.546L297.444 215.6L288.848 211.316L292.292 208.418Z" fill="#FFC480"/>
<path d="M201.726 205.212C200.788 209.664 199.654 214.074 198.45 218.456C197.26 222.852 195.958 227.22 194.6 231.56L194.096 233.198L193.844 234.01C193.788 234.192 193.76 234.234 193.704 234.346C193.55 234.752 193.452 235.214 193.438 235.676C193.41 236.614 193.634 237.65 194.25 238.546C194.306 238.686 194.782 239.204 195.16 239.61L196.322 240.87L198.618 243.432C200.13 245.168 201.628 246.904 203.056 248.724L198.184 254.366C196.168 253.218 194.236 251.986 192.304 250.74L189.434 248.85L188.02 247.884C187.544 247.548 187.152 247.324 186.382 246.68C183.722 244.426 181.734 241.22 181.006 237.65C180.628 235.872 180.544 234.024 180.754 232.19C180.81 231.756 180.894 231.238 180.964 230.86L181.118 230.02L181.412 228.34C182.196 223.846 183.036 219.366 183.974 214.928C184.912 210.476 185.906 206.038 187.11 201.642L201.726 205.212Z" fill="#FFC480"/>
<path d="M198.282 248.346L204.064 245.392L206.612 255.206C206.612 255.206 201.978 256.984 198.394 254.702L198.282 248.346Z" fill="#FFC480"/>
<path d="M212.03 242.256L212.296 251.258L205.842 255.486L203.602 245.588L212.03 242.256Z" fill="#FFC480"/>
<path d="M230.916 158.928C231.056 159.628 231.532 160.104 231.994 160.02C232.442 159.922 232.694 159.292 232.554 158.592C232.414 157.892 231.924 157.416 231.476 157.5C231.028 157.598 230.776 158.228 230.916 158.928Z" fill="#1E293B"/>
<path d="M231.476 160.118C231.476 160.118 233.87 163.8 235.998 165.382C235.004 166.782 232.806 166.684 232.806 166.684L231.476 160.118Z" fill="#990000"/>
<path d="M227.598 155.582C227.5 155.582 227.402 155.54 227.318 155.47C227.15 155.316 227.136 155.05 227.29 154.882C228.858 153.188 230.748 153.496 230.832 153.51C231.056 153.552 231.21 153.762 231.168 153.986C231.126 154.21 230.916 154.364 230.692 154.322C230.636 154.308 229.152 154.098 227.906 155.442C227.822 155.54 227.71 155.582 227.598 155.582Z" fill="#1E293B"/>
<path d="M210.728 168.686C212.268 175.112 213.808 186.872 208.306 191.156C208.306 191.156 210.462 197.666 225.106 197.666C241.206 197.666 232.806 193.466 232.806 193.466C224.014 191.758 224.252 184.128 225.778 179.13L210.728 168.686Z" fill="#FFC480"/>
<path d="M206.584 192.346C205.618 190.568 204.568 188.524 206.752 187.88C209.16 187.18 224.602 185.878 229.138 187.194C227.738 189.672 230.104 192.724 230.104 192.724L206.584 192.346Z" fill="#1E293B"/>
<path d="M219.38 492.758H229.474L230.482 472.43H220.374L219.38 492.758Z" fill="#FFC480"/>
<path d="M155.274 489.958L165.508 490.49L171.724 470.47L161.49 469.924L155.274 489.958Z" fill="#FFC480"/>
<path d="M165.2 489.678L155.568 487.592C155.218 487.522 154.854 487.69 154.714 488.026L151.368 495.278C151.018 496.034 151.48 496.916 152.292 497.07C155.666 497.742 157.346 497.896 161.588 498.82C164.192 499.38 170.086 500.822 173.684 501.592C177.212 502.348 178.528 498.918 177.128 498.274C170.828 495.39 168.196 492.87 166.502 490.504C166.166 490.084 165.704 489.79 165.2 489.678Z" fill="#FF8800"/>
<path d="M228.942 491.736H219.352C218.988 491.736 218.68 491.988 218.61 492.338L216.874 500.136C216.692 500.948 217.308 501.718 218.134 501.704C221.592 501.648 226.59 501.438 230.93 501.438C236.012 501.438 240.408 501.718 246.358 501.718C249.956 501.718 250.964 498.078 249.452 497.742C242.578 496.244 236.978 496.076 231.042 492.422C230.412 492.016 229.698 491.736 228.942 491.736Z" fill="#FF8800"/>
<path d="M190.008 194.124C182.378 197.75 180.32 219.716 180.32 219.716L199.178 228.424C199.178 228.424 203.854 221.522 204.218 210.686C204.596 199.346 197.806 190.414 190.008 194.124Z" fill="#1E293B"/>
<path opacity="0.4" d="M200.242 207.676C196.84 212.954 197.162 221.144 198.338 228.046L199.178 228.438C199.178 228.438 203.868 221.536 204.218 210.7C204.232 210.028 204.232 209.356 204.218 208.698L200.242 207.676Z" fill="#0F172A"/>
<path d="M242.634 193.592C242.634 193.592 251.972 204.148 243.152 269.458C229.012 269.458 203.084 269.458 196.196 269.458C195.874 262.248 200.396 227.094 193.452 193.13C193.452 193.13 201.502 191.52 209.174 191.142C215.18 190.848 223.86 190.666 229.138 191.142C236.082 191.786 242.634 193.592 242.634 193.592Z" fill="#219BE6"/>
<path d="M242.634 193.592C242.634 193.592 251.972 204.148 243.152 269.458C229.012 269.458 203.084 269.458 196.196 269.458C195.874 262.248 200.396 227.094 193.452 193.13C193.452 193.13 201.502 191.52 209.174 191.142C215.18 190.848 223.86 190.666 229.138 191.142C236.082 191.786 242.634 193.592 242.634 193.592Z" fill="#FFDD80"/>
<path opacity="0.2" d="M246.736 213.556L246.554 213.402L237.216 208.418C236.264 222.796 242.69 231.812 246.512 235.746C247.058 226.534 247.044 219.268 246.736 213.556Z" fill="#0F172A"/>
<path opacity="0.2" d="M230.482 472.43L229.964 482.902H219.856L220.374 472.43H230.482Z" fill="#0F172A"/>
<path opacity="0.2" d="M161.49 469.924L171.724 470.47L168.518 480.788L158.284 480.256L161.49 469.924Z" fill="#0F172A"/>
<path d="M207.48 162.162C209.734 170.576 210.63 175.616 215.824 179.116C223.636 184.38 233.366 178.332 233.66 169.414C233.94 161.392 230.202 148.974 221.172 147.28C212.268 145.6 205.226 153.734 207.48 162.162Z" fill="#FFC480"/>
<path d="M226.506 269.472C226.506 269.472 216.538 336.56 211.078 361.69C205.086 389.214 172.97 480.27 172.97 480.27L157.262 476.868C157.262 476.868 177.394 402.668 182.42 364.182C184.38 349.174 186.746 324.968 189.742 304.78C192.64 285.236 196.21 269.472 196.21 269.472H226.506Z" fill="#1E293B"/>
<path d="M176.736 475.006C176.806 475.02 173.81 480.69 173.81 480.69L156.128 476.868L157.612 471.548L176.736 475.006Z" fill="#219BE6"/>
<path opacity="0.6" d="M176.736 475.006C176.806 475.02 173.81 480.69 173.81 480.69L156.128 476.868L157.612 471.548L176.736 475.006Z" fill="#F9FAFB"/>
<path opacity="0.6" d="M220.206 293.37C208.684 295.624 209.902 338.59 211.288 360.682C214.606 345.058 219.478 315.014 222.796 293.678C222.04 293.3 221.172 293.174 220.206 293.37Z" fill="#0F172A"/>
<path d="M243.152 269.472C243.152 269.472 247.842 335.104 246.876 361.872C245.882 389.718 232.68 480.886 232.68 480.886H217.812C217.812 480.886 217.266 391.342 216.608 364C215.88 334.194 212.282 269.472 212.282 269.472H243.152Z" fill="#1E293B"/>
<path d="M235.55 474.95C235.62 474.95 234.71 481.124 234.71 481.124H216.622L216.132 475.608L235.55 474.95Z" fill="#219BE6"/>
<path opacity="0.6" d="M235.55 474.95C235.62 474.95 234.71 481.124 234.71 481.124H216.622L216.132 475.608L235.55 474.95Z" fill="#F9FAFB"/>
<path d="M237.16 205.884C237.16 223.496 246.54 230.748 246.54 230.748L261.772 215.852C261.772 215.852 256.592 206.934 249.466 198.73C240.66 188.622 237.16 194.558 237.16 205.884Z" fill="#1E293B"/>
<path opacity="0.2" d="M233.128 172.606C232.736 173.684 231.728 175.518 229.18 176.246C225.456 177.31 225.414 180.46 225.414 180.46L225.456 180.516C228.998 179.34 231.952 176.414 233.128 172.606Z" fill="#0F172A"/>
<path d="M229.18 145.432C232.316 141.47 227.486 141.288 227.486 141.288C228.746 136.57 223.09 139.104 223.09 139.104C219.702 134.428 217.784 140.112 217.784 140.112C214.27 136.15 213.626 142.618 213.626 142.618C210.098 137.592 208.306 144.844 208.306 144.844C205.058 139.622 203.07 146.426 203.07 146.426C196.364 144.032 199.556 150.99 199.556 150.99C193.83 151.144 198.422 155.582 198.422 155.582C191.562 155.596 197.61 159.53 197.61 159.53C192.164 163.1 198.996 164.066 198.996 164.066C194.558 171.01 202.188 168.434 202.188 168.434C199.094 175.308 205.954 172.284 205.954 172.284C205.506 178.92 209.342 177.114 211.19 175.882C211.54 177.212 212.212 178.64 213.444 178.794C215.838 179.102 216.3 174.594 216.3 174.594C216.3 174.594 218.526 176.316 220.374 175.378C222.236 174.44 221.536 172.074 221.536 172.074C221.536 172.074 222.964 173.138 224.266 172.116C225.064 171.5 225.064 167.034 224.056 165.466L227.696 164.038C227.696 164.038 230.398 163.66 229.194 160.09C227.99 156.52 229.012 153.706 229.012 153.706C233.128 151.774 229.754 149.464 229.754 149.464C234.486 146.412 229.18 145.432 229.18 145.432Z" fill="#1E293B"/>
<path d="M221.802 162.512C222.376 164.724 223.832 166.614 225.344 167.748C227.626 169.442 229.334 167.776 229.166 165.186C229.026 162.862 227.654 159.166 225.134 158.48C222.656 157.808 221.144 159.978 221.802 162.512Z" fill="#FFC480"/>
</g>
<defs>
<clipPath id="clip0_1_1515">
<rect width="700" height="520.884" fill="white"/>
</clipPath>
</defs>
</svg>
