<svg width="1043" height="1003" viewBox="0 0 1043 1003" fill="none" xmlns="http://www.w3.org/2000/svg">
<g filter="url(#filter0_d_1_1513)">
<path fill-rule="evenodd" clip-rule="evenodd" d="M462.041 35.7762C641.174 31.3048 821.317 103.624 929.587 209.763C1030.61 308.793 995.119 435.997 993.267 556.544C991.319 683.384 1045.55 832.091 918.728 916.742C791.003 1002 587.177 957.184 409.808 945.991C234.697 934.94 44.2645 942.928 -84.1363 853.454C-219.247 759.306 -284.082 614.903 -251.593 485.108C-221.829 366.196 -53.1709 309.754 71.6228 231.179C195.532 153.161 294.673 39.954 462.041 35.7762Z" fill="url(#paint0_linear_1_1513)"/>
</g>
<g clip-path="url(#clip0_1_1513)">
<path d="M748.86 761.956H702.492V762.306H748.86V761.956Z" fill="#F9FAFB"/>
<path d="M582.708 765.764H570.542V766.114H582.708V765.764Z" fill="#F9FAFB"/>
<path d="M701.092 748.964H674.226V749.314H701.092V748.964Z" fill="#F9FAFB"/>
<path d="M252.91 751.316H192.444V751.666H252.91V751.316Z" fill="#F9FAFB"/>
<path d="M274.246 751.316H265.384V751.666H274.246V751.316Z" fill="#F9FAFB"/>
<path d="M434.21 757.224H303.058V757.574H434.21V757.224Z" fill="#F9FAFB"/>
<path d="M452.76 676.99H182.42C178.01 676.99 174.426 673.406 174.426 668.996V288.994C174.426 284.584 178.01 281 182.42 281H452.76C457.17 281 460.754 284.584 460.754 288.994V668.996C460.754 673.406 457.17 676.99 452.76 676.99ZM182.42 281.35C178.206 281.35 174.776 284.78 174.776 288.994V668.996C174.776 673.21 178.206 676.64 182.42 676.64H452.76C456.974 676.64 460.404 673.21 460.404 668.996V288.994C460.404 284.78 456.974 281.35 452.76 281.35H182.42Z" fill="#F9FAFB"/>
<path d="M755.58 676.99H485.24C480.83 676.99 477.246 673.406 477.246 668.996V288.994C477.246 284.584 480.83 281 485.24 281H755.58C759.99 281 763.574 284.584 763.574 288.994V668.996C763.574 673.406 759.99 676.99 755.58 676.99ZM485.24 281.35C481.026 281.35 477.596 284.78 477.596 288.994V668.996C477.596 673.21 481.026 676.64 485.24 676.64H755.58C759.794 676.64 763.224 673.21 763.224 668.996V288.994C763.224 284.78 759.794 281.35 755.58 281.35H485.24Z" fill="#F9FAFB"/>
<path d="M819 739.43H119V739.78H819V739.43Z" fill="#F9FAFB"/>
<path d="M286.062 644.72C284.886 631.196 271.082 626.142 254.716 627.57C238.364 628.998 225.652 636.39 226.828 649.9L286.062 644.72Z" fill="#FFDD80"/>
<path d="M254.184 621.382C261.772 620.724 264.194 614.312 263.536 606.71C262.878 599.122 259.378 593.228 251.776 593.886C244.188 594.544 241.766 600.956 242.424 608.558C243.096 616.16 246.596 622.054 254.184 621.382Z" fill="#FFDD80"/>
<path d="M595.14 356.628C595.504 360.814 592.41 364.51 588.224 364.874C584.038 365.238 580.342 362.144 579.978 357.958C579.614 353.772 582.708 350.076 586.894 349.712C591.08 349.348 594.776 352.442 595.14 356.628Z" fill="#FF8800"/>
<path d="M637.238 352.946C637.602 357.132 634.508 360.828 630.322 361.192C626.136 361.556 622.44 358.462 622.076 354.276C621.712 350.09 624.806 346.394 628.992 346.03C633.192 345.666 636.874 348.76 637.238 352.946Z" fill="#FF8800"/>
<path d="M679.35 349.264C679.714 353.45 676.62 357.146 672.434 357.51C668.248 357.874 664.552 354.78 664.188 350.594C663.824 346.408 666.918 342.712 671.104 342.348C675.29 341.97 678.972 345.078 679.35 349.264Z" fill="#FF8800"/>
<path d="M598.892 399.538C599.256 403.724 596.162 407.42 591.976 407.784C587.79 408.148 584.094 405.054 583.73 400.868C583.366 396.682 586.46 392.986 590.646 392.622C594.832 392.258 598.528 395.352 598.892 399.538Z" fill="#FF8800"/>
<path d="M640.99 395.856C641.354 400.042 638.26 403.738 634.074 404.102C629.888 404.466 626.192 401.372 625.828 397.186C625.464 393 628.558 389.304 632.744 388.94C636.944 388.576 640.626 391.67 640.99 395.856Z" fill="#FF8800"/>
<path d="M683.102 392.174C683.466 396.36 680.372 400.056 676.186 400.42C672 400.784 668.304 397.69 667.94 393.504C667.576 389.318 670.67 385.622 674.856 385.258C679.042 384.894 682.738 387.988 683.102 392.174Z" fill="#FF8800"/>
<path d="M602.644 442.448C603.008 446.634 599.914 450.33 595.728 450.694C591.542 451.058 587.846 447.964 587.482 443.778C587.118 439.592 590.212 435.896 594.398 435.532C598.598 435.168 602.28 438.262 602.644 442.448Z" fill="#FF8800"/>
<path d="M644.756 438.766C645.12 442.952 642.026 446.648 637.84 447.012C633.654 447.376 629.958 444.282 629.594 440.096C629.23 435.91 632.324 432.214 636.51 431.85C640.696 431.486 644.378 434.58 644.756 438.766Z" fill="#FF8800"/>
<path d="M686.854 435.084C687.218 439.27 684.124 442.966 679.938 443.33C675.752 443.694 672.056 440.6 671.692 436.414C671.328 432.228 674.422 428.532 678.608 428.168C682.794 427.804 686.49 430.898 686.854 435.084Z" fill="#FF8800"/>
<path d="M677.754 437.562L591.248 445.136L667.94 351.938L589.358 358.812C588.434 358.896 587.636 358.21 587.552 357.3C587.468 356.376 588.154 355.578 589.064 355.494L675.57 347.92L598.878 441.118L677.46 434.244C678.384 434.16 679.182 434.846 679.266 435.756C679.35 436.666 678.678 437.478 677.754 437.562Z" fill="#FF8800"/>
<path d="M679.084 603.91C678.804 603.084 678.062 602.468 677.194 602.412C673.232 602.146 669.872 600.662 667.226 598.002C663.768 594.53 661.738 589.238 661.402 582.966C661.346 581.79 660.366 580.88 659.19 580.88C657.888 580.866 656.866 581.972 656.936 583.26C657.342 590.624 659.82 596.91 664.062 601.166C667.366 604.484 671.636 606.43 676.494 606.85C676.578 606.864 676.69 606.864 676.816 606.878C678.398 607.018 679.616 605.436 679.084 603.91Z" fill="#FF8800"/>
<path d="M674.604 630.79C656.054 629.166 642.67 616.524 638.428 596.784C638.162 595.524 638.96 594.292 640.234 594.068C641.41 593.858 642.544 594.614 642.796 595.776C646.59 613.528 658.504 624.896 674.996 626.338C693.084 627.92 712.502 616.02 715.974 586.032C716.114 584.814 717.178 583.918 718.396 584.03C719.642 584.142 720.58 585.248 720.426 586.494C717.108 614.746 698.516 632.876 674.604 630.79Z" fill="#FF8800"/>
<path d="M639.604 577.114C638.358 577.002 637.42 575.896 637.574 574.65C640.906 546.37 659.498 528.24 683.41 530.34C704.354 532.174 718.466 547.854 720.678 571.472C720.79 572.718 719.824 573.81 718.578 573.88C717.36 573.95 716.324 573.026 716.212 571.822C714.196 550.542 701.624 536.444 683.032 534.806C664.944 533.224 645.526 545.124 642.054 575.112C641.886 576.316 640.822 577.226 639.604 577.114Z" fill="#FF8800"/>
<path d="M675.514 618.792C672.07 618.484 668.836 617.686 665.854 616.384C664.65 615.852 664.146 614.396 664.776 613.248C665.322 612.24 666.554 611.806 667.604 612.268C670.39 613.5 673.484 614.214 676.802 614.396C690.522 615.18 704.998 605.464 706.412 582C707.28 567.538 702.338 555.862 693.084 550.276C692.09 549.674 691.726 548.428 692.23 547.378C692.804 546.202 694.288 545.768 695.408 546.44C706.104 552.894 711.858 566.082 710.878 582.252C709.506 604.89 695.394 619.94 676.536 618.862C676.214 618.848 675.864 618.82 675.514 618.792Z" fill="#FF8800"/>
<path d="M655.578 604.82C654.5 605.562 653.016 605.212 652.358 604.078C648.382 597.218 646.534 588.356 647.108 578.85C648.41 557.192 661.402 542.478 679.028 542.198C680.33 542.17 681.394 543.276 681.324 544.578C681.254 545.74 680.316 546.664 679.14 546.678C666.064 546.93 652.932 556.814 651.588 579.116C651.07 587.768 652.722 595.762 656.264 601.88C656.838 602.888 656.53 604.176 655.578 604.82Z" fill="#FF8800"/>
<path d="M686.182 603C685.72 601.964 686.126 600.76 687.092 600.172C692.972 596.63 696.598 589.182 696.654 580.222C696.696 573.04 694.624 566.964 690.788 563.114C687.834 560.146 684.012 558.648 679.42 558.662C672.518 558.676 666.932 562.456 663.838 569.12C663.348 570.17 662.144 570.66 661.052 570.268C659.82 569.82 659.232 568.392 659.792 567.202C663.628 559.026 670.81 554.21 679.42 554.182C685.16 554.168 690.186 556.17 693.966 559.964C698.656 564.668 701.204 571.878 701.148 580.264C701.078 590.848 696.626 599.724 689.36 604.064C688.212 604.736 686.714 604.218 686.182 603Z" fill="#FF8800"/>
<path d="M670.054 586.536C668.78 587.054 667.352 586.312 667.03 584.982C666.876 584.38 666.764 583.75 666.666 583.106C665.392 574.734 669.9 567.44 677.138 566.138C680.876 565.466 684.208 566.348 686.756 568.616C687.792 569.54 687.708 571.192 686.588 571.99L686.448 572.088C685.594 572.69 684.488 572.564 683.69 571.878C682.178 570.576 680.246 570.128 677.936 570.534C672.42 571.514 670.32 577.254 671.104 582.42C671.174 582.924 671.272 583.414 671.384 583.876C671.65 584.982 671.104 586.116 670.054 586.536Z" fill="#FF8800"/>
<path d="M677.46 595.16H677.446C675.906 595.02 675.052 593.298 675.878 591.982L676.074 591.674C676.494 591.016 677.222 590.652 678.006 590.708C678.664 590.75 679.378 590.708 680.106 590.582C684.922 589.714 687.134 585.234 687.092 580.67C687.078 579.536 687.876 578.556 688.996 578.374C690.312 578.178 691.558 579.158 691.572 580.488C691.712 587.796 687.4 593.83 680.89 594.992C679.7 595.202 678.552 595.258 677.46 595.16Z" fill="#FF8800"/>
<path d="M678.454 586.886C676.074 586.676 674.296 585.066 673.638 582.77C673.26 581.44 674.38 580.152 675.752 580.278L676.27 580.32C677.068 580.39 677.726 580.936 677.992 581.692C678.118 582.056 678.37 582.378 678.832 582.42C679.91 582.518 680.092 580.964 680.12 580.656C680.134 580.432 680.19 579.578 679.812 579.074C679.448 578.584 679.21 578.01 679.266 577.394C679.434 575.406 681.954 574.594 683.228 576.148C684.236 577.38 684.754 579.102 684.586 581.048C684.278 584.716 681.688 587.166 678.454 586.886Z" fill="#FF8800"/>
<path d="M636.342 536.78C635.11 536.668 634.2 535.59 634.312 534.358L636.006 514.94L655.424 516.634C656.656 516.746 657.566 517.824 657.454 519.056C657.342 520.288 656.264 521.198 655.032 521.1L640.08 519.798L638.778 534.75C638.666 535.982 637.574 536.892 636.342 536.78Z" fill="#FF8800"/>
<path d="M728.644 544.858C727.412 544.746 726.502 543.668 726.614 542.436L727.916 527.484L712.964 526.182C711.732 526.07 710.822 524.992 710.934 523.76C711.046 522.528 712.124 521.618 713.356 521.73L732.774 523.424L731.08 542.842C730.968 544.046 729.876 544.97 728.644 544.858Z" fill="#FF8800"/>
<path d="M721.77 649.228L702.352 647.534C701.12 647.422 700.21 646.344 700.322 645.112C700.434 643.88 701.512 642.97 702.744 643.082L717.696 644.384L718.998 629.432C719.11 628.2 720.188 627.29 721.42 627.388C722.652 627.5 723.562 628.578 723.464 629.81L721.77 649.228Z" fill="#FF8800"/>
<path d="M644.42 642.452L625.002 640.758L626.696 621.34C626.808 620.108 627.886 619.198 629.118 619.296C630.35 619.408 631.26 620.486 631.148 621.718L629.846 636.67L644.798 637.972C646.03 638.084 646.94 639.162 646.842 640.394C646.73 641.654 645.652 642.564 644.42 642.452Z" fill="#FF8800"/>
<path d="M223.622 600.438C222.866 600.508 222.194 599.948 222.124 599.192L221.074 587.25L233.016 586.2C233.772 586.13 234.444 586.69 234.514 587.446C234.584 588.202 234.024 588.874 233.268 588.944L224.084 589.742L224.882 598.926C224.938 599.71 224.378 600.382 223.622 600.438Z" fill="#FF8800"/>
<path d="M280.378 595.482C279.622 595.552 278.95 594.992 278.88 594.236L278.082 585.052L268.898 585.85C268.142 585.92 267.47 585.36 267.4 584.604C267.33 583.848 267.89 583.176 268.646 583.106L280.588 582.056L281.638 593.998C281.694 594.74 281.134 595.412 280.378 595.482Z" fill="#FF8800"/>
<path d="M286.258 646.876L274.316 647.926C273.56 647.996 272.888 647.436 272.818 646.68C272.748 645.924 273.308 645.252 274.064 645.182L283.248 644.384L282.45 635.2C282.38 634.444 282.94 633.772 283.696 633.702C284.452 633.632 285.124 634.192 285.194 634.948L286.258 646.876Z" fill="#FF8800"/>
<path d="M238.686 651.034L226.744 652.084L225.694 640.142C225.624 639.386 226.184 638.714 226.94 638.644C227.696 638.574 228.368 639.134 228.438 639.89L229.236 649.074L238.42 648.276C239.176 648.206 239.848 648.766 239.918 649.522C240.016 650.292 239.456 650.964 238.686 651.034Z" fill="#FF8800"/>
<path d="M279.412 401.4L233.73 405.39L232.792 394.694C231.826 383.606 240.058 373.792 251.146 372.826C262.234 371.86 272.048 380.092 273.014 391.18L273.56 397.396L280.154 396.822L279.608 390.606C278.32 375.878 265.3 364.944 250.572 366.232C235.844 367.52 224.924 380.554 226.212 395.282L227.15 406.034C221.83 407.07 218.05 411.97 218.526 417.486L221.788 454.782C222.306 460.676 227.5 465.044 233.408 464.526L284.55 460.046C290.444 459.528 294.812 454.334 294.294 448.426L291.032 411.13C290.514 405.236 285.32 400.882 279.412 401.4ZM260.008 430.142L261.128 442.98C261.31 445.094 259.756 446.942 257.642 447.138C255.528 447.32 253.68 445.766 253.484 443.652L252.364 430.814C250.684 429.778 249.494 428.014 249.298 425.9C248.99 422.344 251.608 419.222 255.164 418.914C258.706 418.606 261.842 421.224 262.15 424.78C262.36 426.88 261.478 428.826 260.008 430.142Z" fill="#FF8800"/>
<path d="M357.616 423.016L352.996 415.484C350.49 415.834 348.446 415.834 345.94 415.484L341.32 423.016L340.438 422.778C337.456 421.98 334.586 420.79 331.898 419.236L331.1 418.774L333.06 410.598C333.214 409.94 333.886 409.534 334.544 409.688C335.202 409.842 335.608 410.514 335.454 411.172L333.928 417.542C335.93 418.634 338.016 419.502 340.186 420.146L344.694 412.796L345.506 412.936C348.124 413.37 350.784 413.37 353.402 412.936L354.214 412.796L358.722 420.146C360.878 419.502 362.978 418.634 364.98 417.542L362.978 409.17L363.65 408.694C365.484 407.378 367.108 405.824 368.508 404.06C368.928 403.542 369.67 403.416 370.202 403.808C370.762 404.214 370.902 405.012 370.468 405.558C369.096 407.294 367.514 408.848 365.75 410.206L367.808 418.788L367.01 419.25C364.322 420.804 361.452 421.994 358.47 422.792L357.616 423.016ZM329.308 406.58C328.916 406.132 328.538 405.684 328.188 405.208L319.606 407.266L319.144 406.468C317.59 403.78 316.4 400.91 315.602 397.928L315.364 397.046L322.896 392.426C322.728 391.166 322.644 390.018 322.644 388.898C322.644 387.792 322.728 386.63 322.896 385.37L315.364 380.75L315.602 379.868C316.4 376.886 317.59 374.016 319.144 371.328L319.606 370.53L328.188 372.588C329.63 370.712 331.296 369.046 333.172 367.604L331.618 361.108C331.464 360.45 331.87 359.778 332.528 359.624C333.186 359.47 333.858 359.876 334.012 360.534L335.944 368.626L335.272 369.116C333.116 370.67 331.24 372.546 329.686 374.702L329.21 375.374L320.824 373.372C319.746 375.374 318.864 377.46 318.234 379.63L325.584 384.138L325.458 384.95C325.22 386.392 325.108 387.68 325.108 388.898C325.108 390.116 325.22 391.404 325.458 392.846L325.598 393.658L318.248 398.166C318.892 400.322 319.76 402.422 320.838 404.424L329.224 402.422L329.7 403.094C330.162 403.724 330.638 404.34 331.156 404.928C331.59 405.418 331.576 406.146 331.1 406.608L331.058 406.65C330.568 407.14 329.77 407.098 329.308 406.58ZM379.344 407.266L376.18 406.51C375.522 406.356 375.116 405.684 375.27 405.026C375.424 404.368 376.096 403.962 376.754 404.116L378.126 404.438C379.204 402.436 380.086 400.35 380.716 398.18L373.366 393.672L373.506 392.86C373.744 391.418 373.856 390.13 373.856 388.912C373.856 387.694 373.744 386.406 373.506 384.964L373.366 384.152L380.716 379.644C380.072 377.488 379.204 375.388 378.126 373.386L369.74 375.388L369.25 374.716C367.696 372.56 365.82 370.684 363.664 369.13L362.992 368.64L364.994 360.254C362.992 359.176 360.906 358.294 358.736 357.65L354.228 365L353.416 364.874C350.798 364.454 348.138 364.454 345.52 364.874L344.708 365L340.2 357.664C339.92 357.748 339.64 357.832 339.36 357.93C338.73 358.14 338.058 357.804 337.834 357.188C337.596 356.544 337.932 355.816 338.59 355.592C339.206 355.396 339.822 355.214 340.438 355.046L341.32 354.808L345.94 362.34C348.446 361.99 350.476 361.99 352.996 362.34L357.616 354.808L358.498 355.046C361.48 355.844 364.35 357.034 367.038 358.588L367.836 359.05L365.778 367.632C367.654 369.074 369.32 370.74 370.762 372.616L379.344 370.558L379.806 371.356C381.36 374.044 382.55 376.914 383.348 379.896L383.586 380.778L376.054 385.398C376.222 386.658 376.306 387.82 376.306 388.926C376.306 390.032 376.222 391.194 376.054 392.454L383.586 397.074L383.348 397.956C382.55 400.938 381.36 403.808 379.806 406.496L379.344 407.266ZM349.132 400.91C342.874 400.728 337.666 395.52 337.484 389.262C337.302 382.962 342.02 377.698 348.096 376.984C348.824 376.9 349.482 377.474 349.482 378.216C349.482 378.832 349.02 379.364 348.404 379.434C343.042 380.036 339.01 385.118 340.13 390.83C340.858 394.54 343.854 397.536 347.564 398.264C353.654 399.454 359.016 394.806 359.016 388.912C359.016 386.938 358.414 385.034 357.294 383.438C356.944 382.934 357.042 382.248 357.504 381.842C358.064 381.352 358.918 381.45 359.338 382.066C360.738 384.068 361.48 386.462 361.48 388.926C361.48 395.646 355.908 401.092 349.132 400.91Z" fill="#FF8800"/>
<path d="M270.634 525.496L267.652 520.638C266.042 520.862 264.712 520.862 263.102 520.638L260.12 525.496L259.546 525.342C257.628 524.824 255.766 524.054 254.03 523.06L253.512 522.766L254.772 517.488C254.87 517.054 255.304 516.802 255.738 516.9C256.172 516.998 256.424 517.432 256.326 517.866L255.332 521.982C256.62 522.682 257.978 523.242 259.378 523.662L262.29 518.916L262.822 519C264.516 519.28 266.238 519.28 267.918 519L268.45 518.916L271.362 523.662C272.762 523.242 274.106 522.682 275.408 521.982L274.106 516.564L274.54 516.256C275.73 515.402 276.78 514.408 277.676 513.26C277.942 512.924 278.418 512.84 278.768 513.092C279.132 513.358 279.216 513.876 278.936 514.226C278.04 515.346 277.018 516.354 275.884 517.222L277.214 522.766L276.696 523.06C274.96 524.068 273.112 524.838 271.18 525.342L270.634 525.496ZM252.35 514.87C252.098 514.59 251.86 514.282 251.622 513.988L246.078 515.318L245.784 514.8C244.776 513.064 244.006 511.216 243.502 509.284L243.348 508.71L248.206 505.728C248.094 504.916 248.038 504.174 248.038 503.446C248.038 502.732 248.094 501.976 248.206 501.164L243.348 498.182L243.502 497.608C244.02 495.69 244.79 493.828 245.784 492.092L246.078 491.574L251.622 492.904C252.546 491.686 253.638 490.608 254.842 489.684L253.834 485.484C253.736 485.064 253.988 484.63 254.422 484.532C254.842 484.434 255.276 484.686 255.374 485.12L256.62 490.342L256.2 490.678C254.814 491.672 253.596 492.89 252.588 494.29L252.28 494.724L246.862 493.422C246.162 494.71 245.602 496.068 245.182 497.468L249.928 500.38L249.844 500.912C249.69 501.85 249.62 502.676 249.62 503.46C249.62 504.244 249.69 505.084 249.844 506.008L249.928 506.54L245.182 509.452C245.602 510.852 246.162 512.21 246.862 513.498L252.28 512.196L252.588 512.63C252.882 513.036 253.204 513.442 253.526 513.82C253.806 514.142 253.792 514.604 253.498 514.898L253.47 514.926C253.162 515.234 252.644 515.206 252.35 514.87ZM284.676 515.318L282.632 514.828C282.198 514.73 281.946 514.296 282.044 513.862C282.142 513.428 282.576 513.176 283.01 513.274L283.892 513.484C284.592 512.196 285.152 510.838 285.572 509.438L280.826 506.526L280.91 505.994C281.064 505.056 281.134 504.23 281.134 503.446C281.134 502.662 281.064 501.822 280.91 500.898L280.826 500.366L285.572 497.454C285.152 496.054 284.592 494.696 283.892 493.408L278.474 494.71L278.166 494.276C277.172 492.89 275.954 491.672 274.554 490.664L274.12 490.342L275.422 484.924C274.134 484.224 272.776 483.664 271.376 483.244L268.464 487.99L267.932 487.906C266.238 487.626 264.516 487.626 262.822 487.906L262.29 487.99L259.378 483.244C259.196 483.3 259.014 483.356 258.832 483.412C258.426 483.538 257.992 483.328 257.852 482.922C257.698 482.502 257.922 482.026 258.342 481.886C258.734 481.76 259.14 481.634 259.532 481.536L260.106 481.382L263.088 486.24C264.712 486.016 266.014 486.016 267.638 486.24L270.62 481.382L271.194 481.536C273.112 482.054 274.974 482.824 276.71 483.818L277.228 484.112L275.898 489.656C277.116 490.58 278.194 491.672 279.118 492.876L284.662 491.546L284.956 492.064C285.964 493.8 286.734 495.648 287.238 497.58L287.392 498.154L282.534 501.136C282.646 501.948 282.702 502.69 282.702 503.418C282.702 504.132 282.646 504.888 282.534 505.7L287.392 508.682L287.238 509.256C286.72 511.174 285.95 513.036 284.956 514.772L284.676 515.318ZM265.16 511.216C261.114 511.104 257.754 507.73 257.628 503.698C257.516 499.624 260.554 496.222 264.488 495.774C264.964 495.718 265.384 496.096 265.384 496.572C265.384 496.978 265.09 497.314 264.684 497.356C261.226 497.748 258.622 501.024 259.336 504.72C259.812 507.114 261.744 509.046 264.138 509.522C268.072 510.292 271.53 507.282 271.53 503.488C271.53 502.214 271.138 500.982 270.41 499.946C270.186 499.624 270.242 499.176 270.536 498.91C270.9 498.588 271.446 498.658 271.726 499.05C272.622 500.338 273.112 501.892 273.112 503.474C273.126 507.814 269.528 511.328 265.16 511.216Z" fill="#FF8800"/>
<path d="M469 801.884C618.915 801.884 740.446 794.789 740.446 786.036C740.446 777.283 618.915 770.188 469 770.188C319.085 770.188 197.554 777.283 197.554 786.036C197.554 794.789 319.085 801.884 469 801.884Z" fill="#1E293B"/>
<path d="M627.83 408.218H582.246L550.004 776.768H595.588C608.552 776.768 620.018 766.226 621.152 753.262L649.278 431.738C650.412 418.774 640.794 408.218 627.83 408.218Z" fill="#145D8A"/>
<path d="M618.534 408.218H464.254C451.29 408.218 439.824 418.76 438.69 431.724L410.564 753.248C409.43 766.212 419.048 776.754 432.012 776.754H586.292C599.256 776.754 610.722 766.212 611.856 753.248L639.982 431.724C641.116 418.774 631.498 408.218 618.534 408.218Z" fill="#219BE6"/>
<path d="M617.876 415.75H577.206C574.812 415.75 572.558 417.318 571.662 419.628C568.372 428.126 560.042 433.95 551.18 433.95H527.128C518.252 433.95 510.944 428.126 509.152 419.628C508.662 417.332 506.688 415.75 504.294 415.75H463.624C454.804 415.75 447.02 422.904 446.25 431.724L418.124 753.248C417.354 762.068 423.878 769.222 432.698 769.222H586.978C595.798 769.222 603.582 762.068 604.352 753.248L632.478 431.724C633.22 422.904 626.696 415.75 617.876 415.75Z" fill="#CAE7F9"/>
<path d="M579.432 590.414H471.464C468.258 590.414 465.892 587.824 466.172 584.618L466.718 578.444C466.998 575.238 469.826 572.648 473.018 572.648H580.986C584.192 572.648 586.558 575.238 586.278 578.444L585.732 584.618C585.466 587.81 582.638 590.414 579.432 590.414Z" fill="#F9FAFB"/>
<path d="M577.108 617.07H469.14C465.934 617.07 463.568 614.48 463.848 611.274L464.394 605.1C464.674 601.894 467.502 599.304 470.694 599.304H578.662C581.868 599.304 584.234 601.894 583.954 605.1L583.408 611.274C583.128 614.466 580.3 617.07 577.108 617.07Z" fill="#F9FAFB"/>
<path opacity="0.1" d="M546.63 421.784C546.322 425.34 543.186 428.21 539.644 428.21C536.088 428.21 533.47 425.326 533.778 421.784C534.086 418.228 537.222 415.358 540.764 415.358C544.32 415.358 546.938 418.228 546.63 421.784Z" fill="#0F172A"/>
<path opacity="0.1" d="M543.718 421.784C543.55 423.73 541.842 425.298 539.896 425.298C537.95 425.298 536.522 423.73 536.69 421.784C536.858 419.838 538.566 418.27 540.512 418.27C542.444 418.27 543.886 419.838 543.718 421.784Z" fill="#0F172A"/>
<g opacity="0.8">
<path d="M598.878 432.494C597.842 432.494 597.072 431.654 597.156 430.604L597.464 427.16C597.562 426.124 598.472 425.27 599.508 425.27C600.544 425.27 601.314 426.11 601.23 427.16L600.922 430.604C600.838 431.654 599.914 432.494 598.878 432.494Z" fill="#219BE6"/>
<path d="M613.942 432.494C612.906 432.494 612.136 431.654 612.22 430.604L612.92 422.526C613.018 421.49 613.928 420.636 614.964 420.636C616 420.636 616.77 421.476 616.686 422.526L615.986 430.604C615.902 431.654 614.978 432.494 613.942 432.494Z" fill="#219BE6"/>
<path d="M606.41 432.494C605.374 432.494 604.604 431.654 604.688 430.604L605.192 424.85C605.29 423.814 606.2 422.96 607.236 422.96C608.272 422.96 609.042 423.8 608.958 424.85L608.454 430.604C608.37 431.654 607.446 432.494 606.41 432.494Z" fill="#219BE6"/>
</g>
<g opacity="0.8">
<path d="M469.896 432.494H460.432C459.844 432.494 459.41 432.018 459.466 431.43L459.914 426.348C459.97 425.76 460.488 425.284 461.076 425.284H470.54C471.128 425.284 471.562 425.76 471.506 426.348L471.058 431.43C471.002 432.018 470.484 432.494 469.896 432.494Z" fill="#219BE6"/>
<path d="M474.278 431.122C473.69 431.122 473.256 430.646 473.312 430.058L473.522 427.734C473.578 427.146 474.096 426.67 474.684 426.67C475.272 426.67 475.706 427.146 475.65 427.734L475.44 430.058C475.384 430.646 474.866 431.122 474.278 431.122Z" fill="#219BE6"/>
</g>
<path d="M561.655 549.795C580.495 531.761 582.375 503.15 565.854 485.89C549.332 468.631 520.666 469.259 501.826 487.293C482.986 505.328 481.106 533.939 497.627 551.198C514.149 568.458 542.815 567.83 561.655 549.795Z" fill="#F9FAFB"/>
<path d="M531.888 516.802C520.002 516.802 509.978 521.324 509.124 531.138L508.172 542.03H551.194L552.146 531.138C553 521.31 543.774 516.802 531.888 516.802Z" fill="#145D8A"/>
<path d="M532.28 512.308C537.796 512.308 540.33 507.842 540.82 502.326C541.296 496.81 539.546 492.344 534.03 492.344C528.514 492.344 525.98 496.81 525.49 502.326C525.014 507.842 526.764 512.308 532.28 512.308Z" fill="#145D8A"/>
<path d="M574.504 581.202C571.564 581.202 569.1 582.322 568.876 584.744L568.638 587.432H579.264L579.502 584.744C579.726 582.322 577.444 581.202 574.504 581.202Z" fill="#219BE6"/>
<path d="M574.602 580.096C575.96 580.096 576.59 578.99 576.716 577.632C576.842 576.274 576.394 575.168 575.036 575.168C573.678 575.168 573.048 576.274 572.922 577.632C572.81 578.99 573.244 580.096 574.602 580.096Z" fill="#219BE6"/>
<path d="M541.786 643.726H499.772C494.858 643.726 491.232 639.75 491.666 634.836C492.1 629.922 496.426 625.946 501.326 625.946H543.34C548.254 625.946 551.88 629.922 551.446 634.836C551.026 639.736 546.7 643.726 541.786 643.726Z" fill="#145D8A"/>
<path d="M536.718 742.804H491.75C486.57 742.804 482.734 738.604 483.182 733.41L486.052 700.608C486.5 695.428 491.078 691.214 496.258 691.214H541.226C546.406 691.214 550.242 695.414 549.794 700.608L546.924 733.41C546.476 738.604 541.912 742.804 536.718 742.804Z" fill="#145D8A"/>
<path d="M522.858 708.91C523.138 705.788 520.828 703.254 517.706 703.254C514.584 703.254 511.84 705.788 511.56 708.91C511.392 710.772 512.162 712.396 513.464 713.432L512.47 724.73C512.302 726.578 513.674 728.09 515.536 728.09C517.384 728.09 519.022 726.592 519.19 724.73L520.184 713.432C521.64 712.41 522.69 710.772 522.858 708.91Z" fill="#AFDBF6"/>
<path d="M541.632 698.06H535.836L537.25 681.834C538.104 672.09 530.866 664.152 521.108 664.152C511.35 664.152 502.726 672.09 501.872 681.834L500.458 698.06H494.662L496.076 681.834C497.21 668.884 508.662 658.356 521.612 658.356C534.562 658.356 544.166 668.884 543.032 681.834L541.632 698.06Z" fill="#145D8A"/>
<path d="M575.218 606.052L575.358 604.498C575.498 602.902 574.322 601.614 572.726 601.614C571.13 601.614 569.73 602.902 569.59 604.498L569.45 606.052C568.82 606.052 568.26 606.57 568.204 607.2L567.84 611.344C567.784 611.974 568.26 612.492 568.89 612.492H574.658C575.288 612.492 575.848 611.974 575.904 611.344L576.268 607.2C576.324 606.57 575.862 606.052 575.218 606.052ZM572.656 602.328C573.86 602.328 574.742 603.308 574.644 604.498L574.504 606.052H570.164L570.304 604.498C570.402 603.294 571.466 602.328 572.656 602.328Z" fill="#219BE6"/>
<path d="M488.39 607.718L486.374 607.298C486.136 607.242 486.01 607.004 486.108 606.766L486.948 604.778C487.13 604.358 486.612 604.036 486.29 604.372L484.764 605.94C484.582 606.122 484.288 606.122 484.148 605.94L482.902 604.372C482.636 604.036 482.062 604.344 482.174 604.778L482.664 606.766C482.72 607.004 482.552 607.256 482.314 607.298L480.228 607.718C479.78 607.802 479.724 608.432 480.158 608.53L482.174 608.95C482.412 609.006 482.538 609.244 482.44 609.482L481.6 611.47C481.418 611.89 481.936 612.212 482.258 611.876L483.784 610.308C483.966 610.126 484.26 610.126 484.4 610.308L485.646 611.876C485.912 612.212 486.486 611.904 486.374 611.47L485.884 609.482C485.828 609.244 485.996 608.992 486.234 608.95L488.32 608.53C488.768 608.432 488.824 607.802 488.39 607.718Z" fill="#1E293B"/>
<path d="M501.634 607.718L499.618 607.298C499.38 607.242 499.254 607.004 499.352 606.766L500.192 604.778C500.374 604.358 499.856 604.036 499.534 604.372L498.008 605.94C497.826 606.122 497.532 606.122 497.392 605.94L496.146 604.372C495.88 604.036 495.306 604.344 495.418 604.778L495.908 606.766C495.964 607.004 495.796 607.256 495.558 607.298L493.472 607.718C493.024 607.802 492.968 608.432 493.402 608.53L495.418 608.95C495.656 609.006 495.782 609.244 495.684 609.482L494.844 611.47C494.662 611.89 495.18 612.212 495.502 611.876L497.028 610.308C497.21 610.126 497.504 610.126 497.644 610.308L498.89 611.876C499.156 612.212 499.73 611.904 499.618 611.47L499.128 609.482C499.072 609.244 499.24 608.992 499.478 608.95L501.564 608.53C502.012 608.432 502.068 607.802 501.634 607.718Z" fill="#1E293B"/>
<path d="M514.878 607.718L512.862 607.298C512.624 607.242 512.498 607.004 512.596 606.766L513.436 604.778C513.618 604.358 513.1 604.036 512.778 604.372L511.252 605.94C511.07 606.122 510.776 606.122 510.636 605.94L509.39 604.372C509.124 604.036 508.55 604.344 508.662 604.778L509.152 606.766C509.208 607.004 509.04 607.256 508.802 607.298L506.716 607.718C506.268 607.802 506.212 608.432 506.646 608.53L508.662 608.95C508.9 609.006 509.026 609.244 508.928 609.482L508.088 611.47C507.906 611.89 508.424 612.212 508.746 611.876L510.272 610.308C510.454 610.126 510.748 610.126 510.888 610.308L512.134 611.876C512.4 612.212 512.974 611.904 512.862 611.47L512.372 609.482C512.316 609.244 512.484 608.992 512.722 608.95L514.808 608.53C515.256 608.432 515.312 607.802 514.878 607.718Z" fill="#1E293B"/>
<path d="M528.136 607.718L526.12 607.298C525.882 607.242 525.756 607.004 525.854 606.766L526.694 604.778C526.876 604.358 526.358 604.036 526.036 604.372L524.51 605.94C524.328 606.122 524.034 606.122 523.894 605.94L522.648 604.372C522.382 604.036 521.808 604.344 521.92 604.778L522.41 606.766C522.466 607.004 522.298 607.256 522.06 607.298L519.974 607.718C519.526 607.802 519.47 608.432 519.904 608.53L521.92 608.95C522.158 609.006 522.284 609.244 522.186 609.482L521.346 611.47C521.164 611.89 521.682 612.212 522.004 611.876L523.53 610.308C523.712 610.126 524.006 610.126 524.146 610.308L525.392 611.876C525.658 612.212 526.232 611.904 526.12 611.47L525.63 609.482C525.574 609.244 525.742 608.992 525.98 608.95L528.066 608.53C528.514 608.432 528.57 607.802 528.136 607.718Z" fill="#1E293B"/>
<path d="M541.38 607.718L539.364 607.298C539.126 607.242 539 607.004 539.098 606.766L539.938 604.778C540.12 604.358 539.602 604.036 539.28 604.372L537.754 605.94C537.572 606.122 537.278 606.122 537.138 605.94L535.892 604.372C535.626 604.036 535.052 604.344 535.164 604.778L535.654 606.766C535.71 607.004 535.542 607.256 535.304 607.298L533.218 607.718C532.77 607.802 532.714 608.432 533.148 608.53L535.164 608.95C535.402 609.006 535.528 609.244 535.43 609.482L534.59 611.47C534.408 611.89 534.926 612.212 535.248 611.876L536.774 610.308C536.956 610.126 537.25 610.126 537.39 610.308L538.636 611.876C538.902 612.212 539.476 611.904 539.364 611.47L538.874 609.482C538.818 609.244 538.986 608.992 539.224 608.95L541.31 608.53C541.758 608.432 541.814 607.802 541.38 607.718Z" fill="#1E293B"/>
<path d="M554.624 607.718L552.608 607.298C552.37 607.242 552.244 607.004 552.342 606.766L553.182 604.778C553.364 604.358 552.846 604.036 552.524 604.372L550.998 605.94C550.816 606.122 550.522 606.122 550.382 605.94L549.136 604.372C548.87 604.036 548.296 604.344 548.408 604.778L548.898 606.766C548.954 607.004 548.786 607.256 548.548 607.298L546.462 607.718C546.014 607.802 545.958 608.432 546.392 608.53L548.408 608.95C548.646 609.006 548.772 609.244 548.674 609.482L547.834 611.47C547.652 611.89 548.17 612.212 548.492 611.876L550.018 610.308C550.2 610.126 550.494 610.126 550.634 610.308L551.88 611.876C552.146 612.212 552.72 611.904 552.608 611.47L552.118 609.482C552.062 609.244 552.23 608.992 552.468 608.95L554.554 608.53C555.002 608.432 555.058 607.802 554.624 607.718Z" fill="#1E293B"/>
<path d="M522.69 578.724H497.812C496.272 578.724 494.9 579.984 494.774 581.524C494.634 583.064 495.782 584.324 497.322 584.324H522.2C523.74 584.324 525.112 583.064 525.238 581.524C525.378 579.97 524.244 578.724 522.69 578.724Z" fill="#1E293B"/>
<path d="M547.946 578.724H533.512C531.972 578.724 530.6 579.984 530.474 581.524C530.334 583.064 531.482 584.324 533.022 584.324H547.456C548.996 584.324 550.368 583.064 550.494 581.524C550.634 579.97 549.486 578.724 547.946 578.724Z" fill="#1E293B"/>
<path d="M567 705.634C557.62 709.386 549.402 714.846 543.774 721.048C540.47 718.234 535.78 716.288 530.166 715.392L529.508 715.294L529.214 718.598L529.578 718.738C535.122 720.838 539.644 724.562 542.64 729.504L543.116 730.274L543.634 729.448C549.402 720.208 557.816 712.48 567.322 707.664L567.644 707.496L567.84 705.298L567 705.634Z" fill="#1E293B"/>
<path opacity="0.2" d="M441.896 429.988C440.146 433.068 438.998 436.498 438.676 440.138L417.83 678.446H482.342L495.306 628.76L491.036 579.074L504 529.388L499.73 479.702L512.694 430.016H441.896V429.988Z" fill="#0F172A"/>
<path d="M494.13 465.674L507.094 415.988H343.952L331.002 465.674L335.258 515.374L322.308 565.06L326.564 614.746L313.614 664.446H476.742L489.706 614.746L485.436 565.06L498.4 515.374L494.13 465.674Z" fill="#219BE6"/>
<path d="M494.13 465.674L507.094 415.988H343.952L331.002 465.674L335.258 515.374L322.308 565.06L326.564 614.746L313.614 664.446H476.742L489.706 614.746L485.436 565.06L498.4 515.374L494.13 465.674Z" fill="#F9FAFB"/>
<path d="M494.13 465.674H331.002L343.952 415.988H507.094L494.13 465.674Z" fill="#E4F3FC"/>
<path d="M485.436 565.06H322.308L335.258 515.374H498.4L485.436 565.06Z" fill="#E4F3FC"/>
<path d="M476.742 664.446H313.614L326.564 614.746H489.706L476.742 664.446Z" fill="#E4F3FC"/>
<path opacity="0.2" d="M472.304 486.45C470.904 486.884 469.112 487.15 467.152 487.15C464.268 487.15 461.748 486.576 460.306 485.722C459.914 485.484 459.48 485.372 459.046 485.372C458.64 485.372 458.248 485.484 457.87 485.694C457.842 485.708 457.814 485.708 457.786 485.736C457.772 485.75 457.758 485.75 457.73 485.764C457.198 486.072 456.526 486.352 455.742 486.562C454.398 486.94 452.732 487.164 450.94 487.164C450.45 487.164 449.974 487.15 449.512 487.122C448.112 487.024 446.838 486.8 445.788 486.464C445.606 486.408 445.424 486.366 445.242 486.366C443.968 486.282 442.834 487.262 442.834 488.606V490.118H379.4C374.486 490.118 370.51 494.094 370.51 499.008V507.968C370.51 512.882 374.486 516.858 379.4 516.858H451.542C451.696 516.858 451.85 516.844 452.018 516.83C452.802 517.474 453.6 518.118 454.468 518.762C455.49 519.546 456.582 520.33 457.716 521.156C458.5 521.73 459.592 521.73 460.376 521.156C469.448 514.576 475.272 510.04 475.272 497.566V488.606C475.258 487.038 473.774 485.988 472.304 486.45Z" fill="#0F172A"/>
<path d="M450.17 511.888H378.028C373.114 511.888 369.138 507.912 369.138 502.998V494.038C369.138 489.124 373.114 485.148 378.028 485.148H450.17C455.084 485.148 459.06 489.124 459.06 494.038V502.998C459.046 507.912 455.07 511.888 450.17 511.888Z" fill="#FF8800"/>
<path d="M465.766 482.208C462.882 482.208 460.362 481.634 458.92 480.78C458.122 480.304 457.184 480.304 456.4 480.78C454.958 481.634 452.424 482.208 449.554 482.208C447.594 482.208 445.802 481.942 444.402 481.508C442.932 481.046 441.448 482.11 441.448 483.636V492.596C441.448 505.07 447.272 509.606 456.344 516.186C457.128 516.76 458.22 516.76 459.004 516.186C468.076 509.606 473.9 505.07 473.9 492.596V483.636C473.9 482.096 472.402 481.046 470.946 481.508C469.518 481.956 467.726 482.208 465.766 482.208Z" fill="#FFDD80"/>
<path opacity="0.3" d="M465.766 482.208C462.882 482.208 460.362 481.634 458.92 480.78C458.122 480.304 457.184 480.304 456.4 480.78C454.958 481.634 452.424 482.208 449.554 482.208C447.594 482.208 445.802 481.942 444.402 481.508C442.932 481.046 441.448 482.11 441.448 483.636V492.596C441.448 505.07 447.272 509.606 456.344 516.186C457.128 516.76 458.22 516.76 459.004 516.186C468.076 509.606 473.9 505.07 473.9 492.596V483.636C473.9 482.096 472.402 481.046 470.946 481.508C469.518 481.956 467.726 482.208 465.766 482.208Z" fill="#F9FAFB"/>
<path opacity="0.2" d="M456.4 480.78C454.958 481.634 452.424 482.208 449.554 482.208C447.594 482.208 445.802 481.942 444.402 481.508C442.932 481.046 441.448 482.11 441.448 483.636V492.596C441.448 505.07 447.272 509.606 456.344 516.186C456.736 516.466 457.212 516.62 457.674 516.62V480.43C457.226 480.43 456.792 480.556 456.4 480.78Z" fill="#F9FAFB"/>
<path d="M470.666 490.16C464.8 492.582 459.788 496.124 456.498 500.142C454.202 498.322 451.052 497.062 447.356 496.488L446.922 496.418V498.56L447.174 498.644C450.884 500.002 454.02 502.41 456.246 505.616L456.596 506.12L456.89 505.574C460.096 499.596 465.108 494.584 470.988 491.462L471.184 491.35V489.922L470.666 490.16Z" fill="#1E293B"/>
<path d="M504.21 429.96H498.022C494.592 429.96 492.044 427.174 492.352 423.744L492.898 417.556C493.192 414.126 496.23 411.34 499.66 411.34H505.848C509.278 411.34 511.826 414.126 511.518 417.556L510.972 423.744C510.664 427.188 507.64 429.96 504.21 429.96Z" fill="#FF8800"/>
<path d="M506.786 417.542L505.442 416.072L502.054 419.18L499.226 416.072L497.616 417.542L500.458 420.65L497.084 423.758L498.428 425.242L501.802 422.134L504.644 425.242L506.24 423.758L503.398 420.65L506.786 417.542Z" fill="#F9FAFB"/>
<path d="M365.918 483.356C369.502 487.262 372.932 491.294 376.32 495.382C379.708 499.456 383.012 503.6 386.274 507.786C386.414 507.968 386.358 507.898 386.4 507.954C386.414 507.982 386.414 508.024 386.442 508.038C386.484 508.08 386.498 508.15 386.54 508.178C386.61 508.276 386.694 508.36 386.792 508.458C386.988 508.64 387.268 508.766 387.562 508.822C387.716 508.85 387.87 508.864 388.038 508.85C388.122 508.864 388.206 508.836 388.29 508.836C388.332 508.836 388.374 508.808 388.416 508.808C388.486 508.78 388.444 508.836 388.64 508.724L392.14 506.82C396.844 504.328 401.59 501.892 406.49 499.708L410.592 504.79C406.644 508.43 402.528 512.966 398.37 516.298L395.234 518.762C395.15 518.832 394.814 519.056 394.604 519.196C394.366 519.35 394.128 519.518 393.876 519.658C393.372 519.938 392.854 520.218 392.308 520.428C391.23 520.89 390.082 521.184 388.92 521.366C386.582 521.716 384.16 521.478 381.892 520.666C380.758 520.26 379.666 519.714 378.672 519.028C378.168 518.692 377.692 518.314 377.23 517.922C376.992 517.726 376.782 517.516 376.572 517.306L376.012 516.746C372.302 512.952 368.648 509.116 365.064 505.196C361.48 501.29 357.938 497.342 354.55 493.268L365.918 483.356Z" fill="#FFC480"/>
<path d="M404.586 502.802L407.848 492.316L416.444 496.6C416.444 496.6 415.198 504.244 408.94 505.574L404.586 502.802Z" fill="#FFC480"/>
<path d="M411.292 489.418L419.048 491.546L416.444 496.6L407.848 492.316L411.292 489.418Z" fill="#FFC480"/>
<path d="M320.726 486.212C319.788 490.664 318.654 495.074 317.45 499.456C316.26 503.852 314.958 508.22 313.6 512.56L313.096 514.198L312.844 515.01C312.788 515.192 312.76 515.234 312.704 515.346C312.55 515.752 312.452 516.214 312.438 516.676C312.41 517.614 312.634 518.65 313.25 519.546C313.306 519.686 313.782 520.204 314.16 520.61L315.322 521.87L317.618 524.432C319.13 526.168 320.628 527.904 322.056 529.724L317.184 535.366C315.168 534.218 313.236 532.986 311.304 531.74L308.434 529.85L307.02 528.884C306.544 528.548 306.152 528.324 305.382 527.68C302.722 525.426 300.734 522.22 300.006 518.65C299.628 516.872 299.544 515.024 299.754 513.19C299.81 512.756 299.894 512.238 299.964 511.86L300.118 511.02L300.412 509.34C301.196 504.846 302.036 500.366 302.974 495.928C303.912 491.476 304.906 487.038 306.11 482.642L320.726 486.212Z" fill="#FFC480"/>
<path d="M317.282 529.346L323.064 526.392L325.612 536.206C325.612 536.206 320.978 537.984 317.394 535.702L317.282 529.346Z" fill="#FFC480"/>
<path d="M331.03 523.256L331.296 532.258L324.842 536.486L322.602 526.588L331.03 523.256Z" fill="#FFC480"/>
<path d="M349.916 439.928C350.056 440.628 350.532 441.104 350.994 441.02C351.442 440.922 351.694 440.292 351.554 439.592C351.414 438.892 350.924 438.416 350.476 438.5C350.028 438.598 349.776 439.228 349.916 439.928Z" fill="#1E293B"/>
<path d="M350.476 441.118C350.476 441.118 352.87 444.8 354.998 446.382C354.004 447.782 351.806 447.684 351.806 447.684L350.476 441.118Z" fill="#990000"/>
<path d="M346.598 436.582C346.5 436.582 346.402 436.54 346.318 436.47C346.15 436.316 346.136 436.05 346.29 435.882C347.858 434.188 349.748 434.496 349.832 434.51C350.056 434.552 350.21 434.762 350.168 434.986C350.126 435.21 349.916 435.364 349.692 435.322C349.636 435.308 348.152 435.098 346.906 436.442C346.822 436.54 346.71 436.582 346.598 436.582Z" fill="#1E293B"/>
<path d="M329.728 449.686C331.268 456.112 332.808 467.872 327.306 472.156C327.306 472.156 329.462 478.666 344.106 478.666C360.206 478.666 351.806 474.466 351.806 474.466C343.014 472.758 343.252 465.128 344.778 460.13L329.728 449.686Z" fill="#FFC480"/>
<path d="M325.584 473.346C324.618 471.568 323.568 469.524 325.752 468.88C328.16 468.18 343.602 466.878 348.138 468.194C346.738 470.672 349.104 473.724 349.104 473.724L325.584 473.346Z" fill="#1E293B"/>
<path d="M338.38 773.758H348.474L349.482 753.43H339.374L338.38 773.758Z" fill="#FFC480"/>
<path d="M274.274 770.958L284.508 771.49L290.724 751.47L280.49 750.924L274.274 770.958Z" fill="#FFC480"/>
<path d="M284.2 770.678L274.568 768.592C274.218 768.522 273.854 768.69 273.714 769.026L270.368 776.278C270.018 777.034 270.48 777.916 271.292 778.07C274.666 778.742 276.346 778.896 280.588 779.82C283.192 780.38 289.086 781.822 292.684 782.592C296.212 783.348 297.528 779.918 296.128 779.274C289.828 776.39 287.196 773.87 285.502 771.504C285.166 771.084 284.704 770.79 284.2 770.678Z" fill="#FF8800"/>
<path d="M347.942 772.736H338.352C337.988 772.736 337.68 772.988 337.61 773.338L335.874 781.136C335.692 781.948 336.308 782.718 337.134 782.704C340.592 782.648 345.59 782.438 349.93 782.438C355.012 782.438 359.408 782.718 365.358 782.718C368.956 782.718 369.964 779.078 368.452 778.742C361.578 777.244 355.978 777.076 350.042 773.422C349.412 773.016 348.698 772.736 347.942 772.736Z" fill="#FF8800"/>
<path d="M309.008 475.124C301.378 478.75 299.32 500.716 299.32 500.716L318.178 509.424C318.178 509.424 322.854 502.522 323.218 491.686C323.596 480.346 316.806 471.414 309.008 475.124Z" fill="#1E293B"/>
<path opacity="0.4" d="M319.242 488.676C315.84 493.954 316.162 502.144 317.338 509.046L318.178 509.438C318.178 509.438 322.868 502.536 323.218 491.7C323.232 491.028 323.232 490.356 323.218 489.698L319.242 488.676Z" fill="#0F172A"/>
<path d="M361.634 474.592C361.634 474.592 370.972 485.148 362.152 550.458C348.012 550.458 322.084 550.458 315.196 550.458C314.874 543.248 319.396 508.094 312.452 474.13C312.452 474.13 320.502 472.52 328.174 472.142C334.18 471.848 342.86 471.666 348.138 472.142C355.082 472.786 361.634 474.592 361.634 474.592Z" fill="#219BE6"/>
<path d="M361.634 474.592C361.634 474.592 370.972 485.148 362.152 550.458C348.012 550.458 322.084 550.458 315.196 550.458C314.874 543.248 319.396 508.094 312.452 474.13C312.452 474.13 320.502 472.52 328.174 472.142C334.18 471.848 342.86 471.666 348.138 472.142C355.082 472.786 361.634 474.592 361.634 474.592Z" fill="#FFDD80"/>
<path opacity="0.2" d="M365.736 494.556L365.554 494.402L356.216 489.418C355.264 503.796 361.69 512.812 365.512 516.746C366.058 507.534 366.044 500.268 365.736 494.556Z" fill="#0F172A"/>
<path opacity="0.2" d="M349.482 753.43L348.964 763.902H338.856L339.374 753.43H349.482Z" fill="#0F172A"/>
<path opacity="0.2" d="M280.49 750.924L290.724 751.47L287.518 761.788L277.284 761.256L280.49 750.924Z" fill="#0F172A"/>
<path d="M326.48 443.162C328.734 451.576 329.63 456.616 334.824 460.116C342.636 465.38 352.366 459.332 352.66 450.414C352.94 442.392 349.202 429.974 340.172 428.28C331.268 426.6 324.226 434.734 326.48 443.162Z" fill="#FFC480"/>
<path d="M345.506 550.472C345.506 550.472 335.538 617.56 330.078 642.69C324.086 670.214 291.97 761.27 291.97 761.27L276.262 757.868C276.262 757.868 296.394 683.668 301.42 645.182C303.38 630.174 305.746 605.968 308.742 585.78C311.64 566.236 315.21 550.472 315.21 550.472H345.506Z" fill="#1E293B"/>
<path d="M295.736 756.006C295.806 756.02 292.81 761.69 292.81 761.69L275.128 757.868L276.612 752.548L295.736 756.006Z" fill="#219BE6"/>
<path opacity="0.6" d="M295.736 756.006C295.806 756.02 292.81 761.69 292.81 761.69L275.128 757.868L276.612 752.548L295.736 756.006Z" fill="#F9FAFB"/>
<path opacity="0.6" d="M339.206 574.37C327.684 576.624 328.902 619.59 330.288 641.682C333.606 626.058 338.478 596.014 341.796 574.678C341.04 574.3 340.172 574.174 339.206 574.37Z" fill="#0F172A"/>
<path d="M362.152 550.472C362.152 550.472 366.842 616.104 365.876 642.872C364.882 670.718 351.68 761.886 351.68 761.886H336.812C336.812 761.886 336.266 672.342 335.608 645C334.88 615.194 331.282 550.472 331.282 550.472H362.152Z" fill="#1E293B"/>
<path d="M354.55 755.95C354.62 755.95 353.71 762.124 353.71 762.124H335.622L335.132 756.608L354.55 755.95Z" fill="#219BE6"/>
<path opacity="0.6" d="M354.55 755.95C354.62 755.95 353.71 762.124 353.71 762.124H335.622L335.132 756.608L354.55 755.95Z" fill="#F9FAFB"/>
<path d="M356.16 486.884C356.16 504.496 365.54 511.748 365.54 511.748L380.772 496.852C380.772 496.852 375.592 487.934 368.466 479.73C359.66 469.622 356.16 475.558 356.16 486.884Z" fill="#1E293B"/>
<path opacity="0.2" d="M352.128 453.606C351.736 454.684 350.728 456.518 348.18 457.246C344.456 458.31 344.414 461.46 344.414 461.46L344.456 461.516C347.998 460.34 350.952 457.414 352.128 453.606Z" fill="#0F172A"/>
<path d="M348.18 426.432C351.316 422.47 346.486 422.288 346.486 422.288C347.746 417.57 342.09 420.104 342.09 420.104C338.702 415.428 336.784 421.112 336.784 421.112C333.27 417.15 332.626 423.618 332.626 423.618C329.098 418.592 327.306 425.844 327.306 425.844C324.058 420.622 322.07 427.426 322.07 427.426C315.364 425.032 318.556 431.99 318.556 431.99C312.83 432.144 317.422 436.582 317.422 436.582C310.562 436.596 316.61 440.53 316.61 440.53C311.164 444.1 317.996 445.066 317.996 445.066C313.558 452.01 321.188 449.434 321.188 449.434C318.094 456.308 324.954 453.284 324.954 453.284C324.506 459.92 328.342 458.114 330.19 456.882C330.54 458.212 331.212 459.64 332.444 459.794C334.838 460.102 335.3 455.594 335.3 455.594C335.3 455.594 337.526 457.316 339.374 456.378C341.236 455.44 340.536 453.074 340.536 453.074C340.536 453.074 341.964 454.138 343.266 453.116C344.064 452.5 344.064 448.034 343.056 446.466L346.696 445.038C346.696 445.038 349.398 444.66 348.194 441.09C346.99 437.52 348.012 434.706 348.012 434.706C352.128 432.774 348.754 430.464 348.754 430.464C353.486 427.412 348.18 426.432 348.18 426.432Z" fill="#1E293B"/>
<path d="M340.802 443.512C341.376 445.724 342.832 447.614 344.344 448.748C346.626 450.442 348.334 448.776 348.166 446.186C348.026 443.862 346.654 440.166 344.134 439.48C341.656 438.808 340.144 440.978 340.802 443.512Z" fill="#FFC480"/>
</g>
<defs>
<filter id="filter0_d_1_1513" x="-284.857" y="20.5798" width="1313.01" height="982.18" filterUnits="userSpaceOnUse" color-interpolation-filters="sRGB">
<feFlood flood-opacity="0" result="BackgroundImageFix"/>
<feColorMatrix in="SourceAlpha" type="matrix" values="0 0 0 0 0 0 0 0 0 0 0 0 0 0 0 0 0 0 127 0" result="hardAlpha"/>
<feOffset dy="10"/>
<feGaussianBlur stdDeviation="12.5"/>
<feComposite in2="hardAlpha" operator="out"/>
<feColorMatrix type="matrix" values="0 0 0 0 0 0 0 0 0 0 0 0 0 0 0 0 0 0 0.25 0"/>
<feBlend mode="normal" in2="BackgroundImageFix" result="effect1_dropShadow_1_1513"/>
<feBlend mode="normal" in="SourceGraphic" in2="effect1_dropShadow_1_1513" result="shape"/>
</filter>
<linearGradient id="paint0_linear_1_1513" x1="926.5" y1="941" x2="480.475" y2="111.905" gradientUnits="userSpaceOnUse">
<stop stop-color="#C1D4F7"/>
<stop offset="1" stop-color="#FFF5EC"/>
</linearGradient>
<clipPath id="clip0_1_1513">
<rect width="700" height="520.884" fill="white" transform="translate(119 281)"/>
</clipPath>
</defs>
</svg>
