<svg width="100" height="165" viewBox="0 0 100 165" fill="none" xmlns="http://www.w3.org/2000/svg">
<path d="M87.7545 33.1742L68.6826 48.6517L62.5184 41.904L54.5162 49.2135C55.4563 50.2554 61.0646 56.3585 61.8315 57.2564C64.9311 60.8856 70.9804 60.8973 74.0989 57.2869L91.4638 38.0113L87.7545 33.1742Z" fill="#F4D2C6"/>
<mask id="mask0_8_3010" style="mask-type:luminance" maskUnits="userSpaceOnUse" x="54" y="33" width="38" height="27">
<path d="M87.7545 33.1742L68.6826 48.6517L62.5184 41.904L54.5162 49.2135C55.4563 50.2554 61.0646 56.3585 61.8315 57.2564C64.9311 60.8856 70.9804 60.8973 74.0989 57.2869L91.4638 38.0113L87.7545 33.1742Z" fill="white"/>
</mask>
<g mask="url(#mask0_8_3010)">
<path d="M68.6826 48.6517L63.457 60.0096L57.6871 54.9222L66.8142 46.0789L68.6826 48.6517Z" fill="#EDA19D"/>
</g>
<path d="M98.2771 65.9439H80.6182C79.6665 65.9439 78.8953 65.1727 78.8953 64.221V38.1554C78.8953 37.2037 79.6665 36.4324 80.6182 36.4324H98.2771C99.2288 36.4324 100 37.2037 100 38.1554V64.2224C100 65.1727 99.2288 65.9439 98.2771 65.9439Z" fill="#324D90"/>
<path d="M97.9351 38.7025H80.9617V63.6913H97.9351V38.7025Z" fill="#F3F5FB"/>
<path d="M92.3806 39.401H86.5162C86.1349 39.401 85.8264 39.0925 85.8264 38.7113V36.4717C85.8264 36.0905 86.1349 35.782 86.5162 35.782H92.3806C92.7619 35.782 93.0704 36.0905 93.0704 36.4717V38.7113C93.069 39.0925 92.7605 39.401 92.3806 39.401Z" fill="#152E60"/>
<path d="M96.496 42.8717H82.3994V44.5714H96.496V42.8717Z" fill="#E3EAF4"/>
<path d="M96.496 46.6057H82.3994V48.3054H96.496V46.6057Z" fill="#E3EAF4"/>
<path d="M96.496 50.3383H82.3994V52.038H96.496V50.3383Z" fill="#E3EAF4"/>
<path d="M96.496 54.0724H82.3994V55.7721H96.496V54.0724Z" fill="#E3EAF4"/>
<path d="M92.2831 57.8064H82.3994V59.5061H92.2831V57.8064Z" fill="#E3EAF4"/>
<path d="M86.6878 35.0849C86.4215 37.3201 88.2507 38.4784 89.9911 39.3545C92.5305 40.9115 96.0521 38.3606 95.2881 35.456C95.0145 33.4027 93.7005 32.4015 91.781 31.9286C89.6259 31.233 86.8668 32.7275 86.6878 35.0849Z" fill="#F4D2C6"/>
<path d="M21.7364 50.0333L42.4514 39.1682L35.84 26.5632L15.125 37.4283L21.7364 50.0333Z" fill="#1A7CB8"/>
<path d="M14.2682 52.4411L20.9927 47.9402L16.2939 39.6615C12.3154 42.0059 5.77278 44.4375 5.86446 50.0269C6.22389 52.3116 3.21745 77.6961 5.6811 78.7904C8.58423 82.0952 11.7755 79.39 14.4371 77.4313L10.7176 77.3935L14.2682 52.4411Z" fill="#F4D2C6"/>
<mask id="mask1_8_3010" style="mask-type:luminance" maskUnits="userSpaceOnUse" x="4" y="39" width="17" height="42">
<path d="M14.2682 52.4411L20.9927 47.9402L16.2939 39.6615C12.3154 42.0059 5.77278 44.4375 5.86446 50.0269C6.22389 52.3116 3.21745 77.6961 5.6811 78.7904C8.58423 82.0952 11.7755 79.39 14.4371 77.4313L10.7176 77.3935L14.2682 52.4411Z" fill="white"/>
</mask>
<g mask="url(#mask1_8_3010)">
<path d="M13.334 39.8187L15.7671 49.5554L21.3449 45.9247L17.525 37.5922L13.334 39.8187Z" fill="#EDA19D"/>
</g>
<path d="M69.0496 46.1543L52.5099 29.6146L42.4455 39.679L58.9852 56.2187L69.0496 46.1543Z" fill="#1A7CB8"/>
<path d="M59.3344 55.871L56.5579 40.6642L61.2509 53.9545L59.3344 55.871Z" fill="#145D8A"/>
<path d="M24.5653 63.7262L26.3334 156.375H32.5631L45.6206 63.5181L24.5653 63.7262Z" fill="#324D90"/>
<mask id="mask2_8_3010" style="mask-type:luminance" maskUnits="userSpaceOnUse" x="24" y="63" width="22" height="94">
<path d="M24.5653 63.7262L26.3334 156.375H32.5631L45.6206 63.5181L24.5653 63.7262Z" fill="white"/>
</mask>
<g mask="url(#mask2_8_3010)">
<path d="M42.1208 88.4035C33.068 100.429 30.341 140.324 29.6265 157.633H35.0922L41.8531 115.188L42.1208 88.4035Z" fill="#2A437D"/>
</g>
<path d="M59.7565 63.7262L57.9899 156.375H51.4633L38.7012 63.5181L59.7565 63.7262Z" fill="#324D90"/>
<mask id="mask3_8_3010" style="mask-type:luminance" maskUnits="userSpaceOnUse" x="38" y="63" width="22" height="94">
<path d="M59.7565 63.7262L57.9899 156.375H51.4633L38.7012 63.5181L59.7565 63.7262Z" fill="white"/>
</mask>
<g mask="url(#mask3_8_3010)">
<path d="M42.1208 88.4035C49.8189 98.1825 54.0622 143.057 54.25 157.09H49.2295L42.1208 88.4035Z" fill="#2A437D"/>
</g>
<path d="M36.0803 12.5118C36.5591 15.3917 34.0823 15.8122 33.5832 12.9353C33.1044 10.0569 35.5812 9.63489 36.0803 12.5118Z" fill="#EDA19D"/>
<path d="M48.0071 12.5118C47.5284 15.3917 50.0051 15.8122 50.5043 12.9353C50.983 10.0569 48.5048 9.63489 48.0071 12.5118Z" fill="#EDA19D"/>
<path d="M49.1321 12.8683C48.956 24.2131 35.1301 24.2116 34.9555 12.8683C33.6982 1.25582 50.0139 1.14232 49.1321 12.8683Z" fill="#F4D2C6"/>
<mask id="mask4_8_3010" style="mask-type:luminance" maskUnits="userSpaceOnUse" x="34" y="4" width="16" height="18">
<path d="M49.1321 12.8683C48.956 24.2131 35.1301 24.2116 34.9555 12.8683C33.6982 1.25582 50.0139 1.14232 49.1321 12.8683Z" fill="white"/>
</mask>
<g mask="url(#mask4_8_3010)">
<path d="M35.5681 8.78504C35.5681 8.78504 40.9262 9.89245 48.1105 7.89882L47.3334 5.33185L36.8778 5.70292L35.5681 8.34703" fill="#EDA19D"/>
</g>
<path d="M45.7167 14.9536C43.8701 14.9536 40.2146 14.9536 38.3694 14.9536C39.2556 17.4842 37.3217 30.1561 37.3217 30.1561C39.6907 30.1561 44.3968 30.1561 46.7645 30.1561C46.7645 30.1546 44.8305 17.4828 45.7167 14.9536Z" fill="#F4D2C6"/>
<path d="M38.4697 20.3175C38.4697 20.3175 41.7992 22.8845 45.6162 20.3175L45.817 22.6153C45.817 22.6153 41.7076 24.5361 38.2675 22.6386L38.4697 20.3175Z" fill="#EDA19D"/>
<path d="M35.9159 6.75359C35.9159 6.75359 45.1855 7.67619 47.5764 6.25009C49.9673 4.82399 49.4638 0 49.4638 0C48.1046 0.216825 32.7042 -0.160072 35.9159 6.75359Z" fill="#59445A"/>
<path d="M36.0919 3.65546C36.0919 3.65546 33.5031 4.43253 33.1917 5.49338C32.8803 6.55567 35.0514 10.6593 35.0514 10.6593C35.635 10.6535 36.137 10.2504 36.2694 9.6829L37.0756 6.21952L36.0919 3.65546Z" fill="#59445A"/>
<path d="M47.975 3.65546C47.975 3.65546 50.5638 4.43253 50.8753 5.49338C51.1867 6.55567 49.0155 10.6593 49.0155 10.6593C48.4291 10.6753 47.8892 10.1791 47.7975 9.68145C47.7815 9.61305 46.9913 6.21952 46.9913 6.21952L47.975 3.65546Z" fill="#59445A"/>
<path d="M46.9913 6.51054C46.9913 6.51054 49.0825 5.29982 49.1319 4.09491C49.1319 4.09491 49.9207 6.99949 46.9913 6.51054Z" fill="#34254B"/>
<path d="M27.3797 156.375L26.6928 158.783L19.2655 161.965C18.3807 162.345 17.8074 163.214 17.8074 164.177H33.1452L32.5631 156.375H27.3797Z" fill="#152E60"/>
<path d="M56.6453 156.375L57.3321 158.783L64.7595 161.965C65.6442 162.345 66.2176 163.214 66.2176 164.177H50.8798L51.4618 156.375H56.6453Z" fill="#152E60"/>
<path d="M56.7224 38.608C55.3239 29.2918 48.2109 24.6249 40.2393 25.6567C33.8742 25.4224 28.1393 31.8966 27.3477 38.6181C27.2458 39.2905 22.1541 72.9318 22.1541 72.9318H61.9189L56.7224 38.608Z" fill="#1A7CB8"/>
<mask id="mask5_8_3010" style="mask-type:luminance" maskUnits="userSpaceOnUse" x="22" y="25" width="40" height="48">
<path d="M56.7224 38.608C55.3239 29.2918 48.2109 24.6249 40.2393 25.6567C33.8742 25.4224 28.1393 31.8966 27.3477 38.6181C27.2458 39.2905 22.1541 72.9318 22.1541 72.9318H61.9189L56.7224 38.608Z" fill="white"/>
</mask>
<g mask="url(#mask5_8_3010)">
<path d="M37.8993 73.7875L45.2219 65.9439L29.8841 41.044L35.1184 64.1628L19.4081 75.215L37.8993 73.7875Z" fill="#145D8A"/>
</g>
<path d="M29.8862 41.0413L0.00280762 54.3682L10.9767 78.9753L40.8601 65.6483L29.8862 41.0413Z" fill="#F3AC4A"/>
<path d="M17.2663 46.6698L12.6213 48.7413L14.2714 52.4413L18.9164 50.3698L17.2663 46.6698Z" fill="#FDF1E6"/>
<path d="M8.4126 75.215C9.99295 75.5613 13.0387 75.4595 13.3341 77.6161L8.4126 77.8649V75.215Z" fill="#F4D2C6"/>
<path d="M37.8993 25.9099C39.3341 30.1663 44.7518 30.1649 46.1867 25.9099C46.1867 25.9099 42.6418 23.9919 37.8993 25.9099Z" fill="#F4D2C6"/>
<path d="M24.7181 72.9405H59.5819L24.8695 79.6854L24.7181 72.9405Z" fill="#2A437D"/>
<path d="M37.8994 25.9099L41.8531 29.1142L40.216 30.1489C37.6054 31.5211 37.1805 27.9064 36.546 26.294C36.5475 26.294 37.2358 25.9943 37.8994 25.9099Z" fill="#F3F5FB"/>
<path d="M42.8441 29.0371L44.3837 29.9917C45.4635 30.6625 46.8808 30.0426 47.121 28.7941L47.5983 26.3217C47.5983 26.3217 46.52 25.9637 46.1867 25.9099L42.8441 29.0371Z" fill="#F3F5FB"/>
</svg>
