<svg width="21" height="21" viewBox="0 0 21 21" fill="none" xmlns="http://www.w3.org/2000/svg">
<path d="M7.99572 5.26708e-07C6.74429 0.000669411 5.51047 0.294916 4.39342 0.859089C3.27638 1.42326 2.30726 2.24163 1.56398 3.24841C0.820691 4.25519 0.323961 5.42231 0.113713 6.65595C-0.0965353 7.8896 -0.014438 9.15536 0.353407 10.3515C0.721251 11.5477 1.36458 12.6408 2.2317 13.5432C3.09881 14.4455 4.16551 15.1318 5.34608 15.547C6.52664 15.9621 7.78814 16.0945 9.02917 15.9335C10.2702 15.7725 11.4562 15.3226 12.4917 14.62L17.4357 19.56C17.573 19.7074 17.7386 19.8256 17.9226 19.9076C18.1066 19.9895 18.3053 20.0336 18.5067 20.0372C18.7081 20.0407 18.9081 20.0037 19.0949 19.9282C19.2817 19.8528 19.4514 19.7405 19.5938 19.5981C19.7362 19.4556 19.8485 19.286 19.924 19.0992C19.9994 18.9124 20.0365 18.7124 20.0329 18.511C20.0294 18.3095 19.9853 18.1109 19.9033 17.9269C19.8213 17.7429 19.7031 17.5773 19.5557 17.44L14.6157 12.496C15.433 11.2932 15.9069 9.89031 15.9866 8.43827C16.0663 6.98624 15.7487 5.53995 15.0679 4.25492C14.3871 2.96989 13.369 1.89473 12.1229 1.14503C10.8768 0.395339 9.44994 -0.000527083 7.99572 5.26708e-07ZM2.99572 8C2.99572 6.67392 3.52251 5.40215 4.46019 4.46447C5.39787 3.52678 6.66964 3 7.99572 3C9.32181 3 10.5936 3.52678 11.5313 4.46447C12.4689 5.40215 12.9957 6.67392 12.9957 8C12.9957 9.32608 12.4689 10.5979 11.5313 11.5355C10.5936 12.4732 9.32181 13 7.99572 13C6.66964 13 5.39787 12.4732 4.46019 11.5355C3.52251 10.5979 2.99572 9.32608 2.99572 8Z" fill="#F9FAFB"/>
</svg>
