<svg width="132" height="132" viewBox="0 0 132 132" fill="none" xmlns="http://www.w3.org/2000/svg">
<path d="M66 0.375C83.4048 0.375 100.097 7.28904 112.404 19.5961C124.711 31.9032 131.625 48.5952 131.625 66C131.625 83.4048 124.711 100.097 112.404 112.404C100.097 124.711 83.4048 131.625 66 131.625C48.5952 131.625 31.9032 124.711 19.5961 112.404C7.28904 100.097 0.375 83.4048 0.375 66C0.375 48.5952 7.28904 31.9032 19.5961 19.5961C31.9032 7.28904 48.5952 0.375 66 0.375ZM66 28.5C64.8098 28.499 63.6324 28.7462 62.5431 29.2259C61.4538 29.7056 60.4765 30.4072 59.6736 31.2859C58.8708 32.1647 58.26 33.2012 57.8804 34.3292C57.5007 35.4573 57.3605 36.6522 57.4688 37.8375L60.8906 75.3937C61.0233 76.6564 61.6188 77.8252 62.5623 78.6748C63.5058 79.5243 64.7304 79.9944 66 79.9944C67.2696 79.9944 68.4942 79.5243 69.4377 78.6748C70.3812 77.8252 70.9767 76.6564 71.1094 75.3937L74.5219 37.8375C74.63 36.653 74.4901 35.4589 74.111 34.3315C73.7319 33.204 73.122 32.168 72.3202 31.2894C71.5183 30.4108 70.5422 29.709 69.454 29.2288C68.3658 28.7485 67.1895 28.5003 66 28.5ZM66 103.5C67.9891 103.5 69.8968 102.71 71.3033 101.303C72.7098 99.8968 73.5 97.9891 73.5 96C73.5 94.0109 72.7098 92.1032 71.3033 90.6967C69.8968 89.2902 67.9891 88.5 66 88.5C64.0109 88.5 62.1032 89.2902 60.6967 90.6967C59.2902 92.1032 58.5 94.0109 58.5 96C58.5 97.9891 59.2902 99.8968 60.6967 101.303C62.1032 102.71 64.0109 103.5 66 103.5Z" fill="#FF8800"/>
</svg>
