<svg width="40" height="40" viewBox="0 0 40 40" fill="none" xmlns="http://www.w3.org/2000/svg">
<path fill-rule="evenodd" clip-rule="evenodd" d="M20 3.33333C10.795 3.33333 3.33337 10.795 3.33337 20C3.33337 23.15 4.20837 26.1 5.73004 28.6133L4.24337 33.6667C4.15802 33.9568 4.1524 34.2646 4.22711 34.5576C4.30183 34.8507 4.45412 35.1182 4.66797 35.3321C4.88183 35.5459 5.14934 35.6982 5.4424 35.7729C5.73546 35.8476 6.04324 35.842 6.33337 35.7567L11.3867 34.27C13.9845 35.8418 16.9637 36.6708 20 36.6667C29.205 36.6667 36.6667 29.205 36.6667 20C36.6667 10.795 29.205 3.33333 20 3.33333ZM16.23 23.7717C19.6017 27.1417 22.82 27.5867 23.9567 27.6283C25.685 27.6917 27.3684 26.3717 28.0234 24.84C28.1061 24.6495 28.1361 24.4402 28.1103 24.2341C28.0845 24.028 28.0038 23.8326 27.8767 23.6683C26.9634 22.5017 25.7284 21.6633 24.5217 20.83C24.2698 20.6558 23.9602 20.5859 23.6578 20.635C23.3555 20.6841 23.0839 20.8484 22.9 21.0933L21.9 22.6183C21.8475 22.7003 21.7655 22.7591 21.671 22.7826C21.5765 22.8062 21.4766 22.7927 21.3917 22.745C20.7134 22.3567 19.725 21.6967 19.015 20.9867C18.305 20.2767 17.685 19.3333 17.3367 18.6983C17.2935 18.6177 17.281 18.5241 17.3016 18.4349C17.3221 18.3457 17.3743 18.267 17.4484 18.2133L18.9884 17.07C19.2081 16.8789 19.35 16.6137 19.3869 16.3248C19.4237 16.0359 19.3531 15.7435 19.1884 15.5033C18.4417 14.41 17.5717 13.02 16.31 12.0983C16.1472 11.9803 15.9565 11.9068 15.7566 11.8848C15.5567 11.8629 15.3546 11.8934 15.17 11.9733C13.6367 12.63 12.31 14.3133 12.3734 16.045C12.415 17.1817 12.86 20.4 16.23 23.7717Z" fill="#F9FAFB"/>
</svg>
